{"glyphs":{"0":{"ha":849,"x_min":65,"x_max":784,"o":"m 424 -13 q 157 113 249 -13 q 65 514 65 240 q 157 915 65 788 q 424 1041 249 1041 q 692 915 599 1041 q 784 514 784 788 q 692 114 784 240 q 424 -13 599 -13 m 424 135 q 525 170 485 135 q 586 289 565 206 q 608 513 608 372 q 586 739 608 655 q 525 857 565 822 q 424 892 485 892 q 323 857 363 892 q 261 739 283 822 q 240 515 240 656 q 261 289 240 373 q 323 170 283 206 q 424 135 363 135 z "},"1":{"ha":500,"x_min":13,"x_max":400,"o":"m 289 1031 l 400 1031 l 400 0 l 222 0 l 222 817 l 13 673 l 13 841 l 289 1031 z "},"2":{"ha":675,"x_min":20,"x_max":639,"o":"m 639 153 l 639 0 l 33 0 l 33 98 l 297 466 q 388 618 360 554 q 415 739 415 681 q 369 856 415 819 q 226 892 324 892 q 20 855 115 892 l 20 1003 q 125 1031 63 1020 q 247 1041 188 1041 q 503 972 415 1041 q 591 757 591 903 q 560 596 591 676 q 453 412 529 515 l 264 153 l 639 153 z "},"3":{"ha":690,"x_min":28,"x_max":649,"o":"m 440 533 q 595 446 542 510 q 649 281 649 381 q 605 122 649 188 q 476 21 561 56 q 267 -13 390 -13 q 28 22 140 -13 l 28 161 q 144 135 82 144 q 262 126 207 126 q 479 290 479 126 q 425 414 479 372 q 256 456 372 456 l 135 456 l 135 597 l 222 597 q 390 639 335 597 q 446 758 446 681 q 399 866 446 830 q 257 902 353 902 q 148 892 202 902 q 44 865 93 883 l 44 1004 q 152 1031 89 1021 q 276 1041 216 1041 q 530 972 443 1041 q 617 774 617 903 q 570 622 617 685 q 440 533 524 559 z "},"4":{"ha":810,"x_min":27,"x_max":787,"o":"m 787 366 l 787 227 l 657 227 l 657 0 l 497 0 l 497 227 l 27 227 l 27 326 l 378 1028 l 550 1028 l 223 366 l 497 366 l 517 681 l 657 681 l 657 366 l 787 366 z "},"5":{"ha":697,"x_min":47,"x_max":666,"o":"m 265 610 q 494 565 406 601 q 624 464 582 529 q 666 300 666 399 q 569 66 666 146 q 287 -13 472 -13 q 47 24 160 -13 l 47 163 q 163 136 101 145 q 282 126 226 126 q 443 168 390 126 q 496 294 496 210 q 468 389 496 352 q 375 446 441 425 q 191 474 308 467 l 78 481 l 112 1028 l 626 1028 l 626 884 l 271 884 l 253 611 l 265 610 z "},"6":{"ha":792,"x_min":72,"x_max":758,"o":"m 453 608 q 609 575 540 608 q 718 473 678 542 q 758 303 758 405 q 718 132 758 203 q 604 24 677 60 q 435 -13 531 -13 q 168 105 264 -13 q 72 483 72 223 q 188 904 72 767 q 525 1041 305 1041 q 710 1013 638 1041 l 710 870 q 531 899 631 899 q 319 814 390 899 q 246 543 249 730 q 340 591 285 574 q 453 608 394 608 m 436 122 q 552 165 508 122 q 596 297 596 209 q 549 430 596 387 q 419 474 501 474 q 327 459 372 474 q 247 413 282 444 q 274 239 250 303 q 339 148 299 174 q 436 122 379 122 z "},"7":{"ha":645,"x_min":7,"x_max":606,"o":"m 7 1028 l 606 1028 l 606 930 l 279 0 l 96 0 l 414 875 l 7 875 l 7 1028 z "},"8":{"ha":849,"x_min":55,"x_max":792,"o":"m 607 534 q 750 425 708 488 q 792 272 792 363 q 750 123 792 188 q 625 23 707 59 q 428 -13 543 -13 q 223 20 306 -13 q 97 115 139 53 q 55 258 55 176 q 102 409 55 343 q 236 514 149 476 q 119 620 155 559 q 83 764 83 682 q 124 910 83 848 q 243 1007 165 973 q 431 1041 321 1041 q 608 1009 533 1041 q 724 919 683 978 q 764 781 764 860 q 725 639 764 702 q 607 534 687 576 m 431 913 q 298 874 344 913 q 252 770 252 836 q 271 692 252 724 q 339 634 290 660 q 479 581 388 608 l 483 579 q 580 660 550 615 q 610 766 610 704 q 563 875 610 837 q 431 913 517 913 m 428 115 q 575 154 525 115 q 625 263 625 192 q 605 343 625 311 q 536 400 585 375 q 399 450 488 425 q 354 464 377 456 q 256 385 290 435 q 222 274 222 335 q 274 156 222 197 q 428 115 326 115 z "},"9":{"ha":792,"x_min":34,"x_max":721,"o":"m 358 1041 q 625 923 528 1041 q 721 545 721 805 q 604 124 721 260 q 267 -13 488 -13 q 83 15 155 -13 l 83 158 q 262 129 161 129 q 473 214 403 129 q 547 485 544 298 q 452 437 507 454 q 340 420 398 420 q 183 453 252 420 q 74 555 114 486 q 34 724 34 623 q 75 896 34 824 q 189 1004 115 967 q 358 1041 262 1041 m 197 731 q 244 598 197 641 q 373 554 291 554 q 465 569 420 554 q 546 615 510 584 q 518 789 542 725 q 453 880 494 853 q 356 906 413 906 q 241 863 285 906 q 197 731 197 819 z "},"\u0000":{"ha":0,"x_min":0,"x_max":0,"o":""},"\r":{"ha":322,"x_min":0,"x_max":0,"o":""}," ":{"ha":322,"x_min":0,"x_max":0,"o":""},"A":{"ha":917,"x_min":9,"x_max":908,"o":"m 731 0 l 642 296 l 272 296 l 183 0 l 9 0 l 328 1028 l 588 1028 l 908 0 l 731 0 m 317 444 l 597 444 l 457 911 l 317 444 z "},"Á":{"ha":917,"x_min":9,"x_max":908,"o":"m 731 0 l 642 296 l 272 296 l 183 0 l 9 0 l 328 1028 l 588 1028 l 908 0 l 731 0 m 317 444 l 597 444 l 457 911 l 317 444 m 379 1111 l 493 1317 l 677 1317 l 536 1111 l 379 1111 z "},"Ă":{"ha":917,"x_min":9,"x_max":908,"o":"m 731 0 l 642 296 l 272 296 l 183 0 l 9 0 l 328 1028 l 588 1028 l 908 0 l 731 0 m 317 444 l 597 444 l 457 911 l 317 444 m 458 1115 q 294 1165 353 1115 q 226 1308 235 1215 l 335 1308 q 372 1230 343 1255 q 458 1206 401 1206 q 545 1230 516 1206 q 581 1308 574 1255 l 690 1308 q 622 1165 681 1215 q 458 1115 563 1115 z "},"Ắ":{"ha":917,"x_min":9,"x_max":908,"o":"m 731 0 l 642 296 l 272 296 l 183 0 l 9 0 l 328 1028 l 588 1028 l 908 0 l 731 0 m 317 444 l 597 444 l 457 911 l 317 444 m 411 1276 l 494 1444 l 614 1444 l 506 1276 l 411 1276 m 458 1115 q 297 1161 355 1115 q 229 1291 239 1208 l 328 1291 q 366 1218 336 1241 q 458 1194 395 1194 q 551 1217 522 1194 q 592 1291 580 1240 l 687 1291 q 619 1161 677 1208 q 458 1115 561 1115 z "},"Ặ":{"ha":917,"x_min":9,"x_max":908,"o":"m 731 0 l 642 296 l 272 296 l 183 0 l 9 0 l 328 1028 l 588 1028 l 908 0 l 731 0 m 317 444 l 597 444 l 457 911 l 317 444 m 458 -274 q 375 -251 405 -274 q 346 -186 346 -228 q 375 -120 346 -144 q 458 -97 405 -97 q 541 -120 512 -97 q 570 -186 570 -144 q 541 -251 570 -228 q 458 -274 512 -274 m 458 1115 q 294 1165 353 1115 q 226 1308 235 1215 l 335 1308 q 372 1230 343 1255 q 458 1206 401 1206 q 545 1230 516 1206 q 581 1308 574 1255 l 690 1308 q 622 1165 681 1215 q 458 1115 563 1115 z "},"Ằ":{"ha":917,"x_min":9,"x_max":908,"o":"m 731 0 l 642 296 l 272 296 l 183 0 l 9 0 l 328 1028 l 588 1028 l 908 0 l 731 0 m 317 444 l 597 444 l 457 911 l 317 444 m 411 1276 l 302 1444 l 422 1444 l 506 1276 l 411 1276 m 458 1115 q 297 1161 354 1115 q 229 1291 239 1207 l 324 1291 q 365 1218 335 1241 q 458 1194 395 1194 q 550 1218 521 1194 q 588 1291 578 1241 l 687 1291 q 619 1161 677 1208 q 458 1115 561 1115 z "},"Ẳ":{"ha":917,"x_min":9,"x_max":908,"o":"m 731 0 l 642 296 l 272 296 l 183 0 l 9 0 l 328 1028 l 588 1028 l 908 0 l 731 0 m 317 444 l 597 444 l 457 911 l 317 444 m 411 1276 q 431 1319 413 1304 q 482 1349 449 1335 q 512 1365 502 1358 q 522 1381 522 1372 q 447 1408 522 1408 q 318 1390 379 1408 l 318 1454 q 384 1468 345 1463 q 460 1474 424 1474 q 620 1392 620 1474 q 605 1353 620 1367 q 558 1324 589 1339 q 520 1302 533 1312 q 505 1276 507 1292 l 411 1276 m 458 1115 q 297 1161 354 1115 q 229 1291 239 1207 l 328 1291 q 365 1218 336 1241 q 458 1194 394 1194 q 550 1218 520 1194 q 592 1291 580 1241 l 687 1291 q 619 1161 677 1208 q 458 1115 561 1115 z "},"Ẵ":{"ha":917,"x_min":9,"x_max":908,"o":"m 731 0 l 642 296 l 272 296 l 183 0 l 9 0 l 328 1028 l 588 1028 l 908 0 l 731 0 m 317 444 l 597 444 l 457 911 l 317 444 m 556 1330 q 505 1336 529 1330 q 447 1355 480 1342 q 397 1370 416 1365 q 359 1376 378 1376 q 294 1365 323 1376 q 229 1328 265 1353 l 229 1414 q 290 1447 259 1438 q 360 1457 320 1457 q 411 1451 387 1457 q 470 1432 435 1444 q 521 1416 503 1421 q 557 1411 539 1411 q 622 1422 593 1411 q 687 1458 651 1433 l 687 1373 q 626 1340 657 1349 q 556 1330 596 1330 m 458 1115 q 297 1161 354 1115 q 229 1291 239 1207 l 328 1291 q 365 1218 336 1241 q 458 1194 394 1194 q 550 1218 521 1194 q 588 1291 578 1241 l 687 1291 q 619 1161 677 1208 q 458 1115 561 1115 z "},"Â":{"ha":917,"x_min":9,"x_max":908,"o":"m 731 0 l 642 296 l 272 296 l 183 0 l 9 0 l 328 1028 l 588 1028 l 908 0 l 731 0 m 317 444 l 597 444 l 457 911 l 317 444 m 689 1111 l 558 1111 l 458 1249 l 358 1111 l 228 1111 l 382 1317 l 534 1317 l 689 1111 z "},"Ấ":{"ha":917,"x_min":9,"x_max":908,"o":"m 731 0 l 642 296 l 272 296 l 183 0 l 9 0 l 328 1028 l 588 1028 l 908 0 l 731 0 m 317 444 l 597 444 l 457 911 l 317 444 m 699 1433 l 820 1433 l 711 1258 l 617 1258 l 699 1433 m 382 1300 l 534 1300 l 689 1111 l 558 1111 l 458 1240 l 358 1111 l 228 1111 l 382 1300 z "},"Ậ":{"ha":917,"x_min":9,"x_max":908,"o":"m 731 0 l 642 296 l 272 296 l 183 0 l 9 0 l 328 1028 l 588 1028 l 908 0 l 731 0 m 317 444 l 597 444 l 457 911 l 317 444 m 458 -274 q 375 -251 405 -274 q 346 -186 346 -228 q 375 -120 346 -144 q 458 -97 405 -97 q 541 -120 512 -97 q 570 -186 570 -144 q 541 -251 570 -228 q 458 -274 512 -274 m 689 1111 l 558 1111 l 458 1249 l 358 1111 l 228 1111 l 382 1317 l 534 1317 l 689 1111 z "},"Ầ":{"ha":917,"x_min":9,"x_max":908,"o":"m 731 0 l 642 296 l 272 296 l 183 0 l 9 0 l 328 1028 l 588 1028 l 908 0 l 731 0 m 317 444 l 597 444 l 457 911 l 317 444 m 733 1258 l 638 1258 l 529 1433 l 650 1433 l 733 1258 m 382 1300 l 534 1300 l 689 1111 l 558 1111 l 458 1240 l 358 1111 l 228 1111 l 382 1300 z "},"Ẩ":{"ha":917,"x_min":9,"x_max":908,"o":"m 731 0 l 642 296 l 272 296 l 183 0 l 9 0 l 328 1028 l 588 1028 l 908 0 l 731 0 m 317 444 l 597 444 l 457 911 l 317 444 m 665 1456 q 825 1375 825 1456 q 809 1336 825 1349 q 763 1306 794 1322 q 725 1284 738 1294 q 710 1258 712 1274 l 617 1258 q 637 1302 619 1287 q 687 1332 655 1317 q 717 1347 707 1340 q 726 1364 726 1354 q 709 1384 726 1378 q 652 1391 692 1391 q 523 1373 584 1391 l 523 1438 q 590 1451 551 1446 q 665 1456 630 1456 m 382 1300 l 534 1300 l 689 1111 l 558 1111 l 458 1240 l 358 1111 l 228 1111 l 382 1300 z "},"Ẫ":{"ha":917,"x_min":9,"x_max":908,"o":"m 731 0 l 642 296 l 272 296 l 183 0 l 9 0 l 328 1028 l 588 1028 l 908 0 l 731 0 m 317 444 l 597 444 l 457 911 l 317 444 m 560 1411 q 625 1422 596 1411 q 689 1458 654 1433 l 689 1373 q 629 1340 660 1349 q 558 1330 599 1330 q 507 1336 531 1330 q 445 1355 483 1342 q 394 1371 413 1366 q 357 1376 376 1376 q 292 1365 321 1376 q 228 1328 263 1353 l 228 1414 q 287 1447 256 1438 q 358 1457 318 1457 q 412 1450 386 1457 q 471 1432 438 1444 q 522 1416 503 1421 q 560 1411 540 1411 m 382 1300 l 534 1300 l 689 1111 l 558 1111 l 458 1240 l 358 1111 l 228 1111 l 382 1300 z "},"Ȁ":{"ha":917,"x_min":9,"x_max":908,"o":"m 731 0 l 642 296 l 272 296 l 183 0 l 9 0 l 328 1028 l 588 1028 l 908 0 l 731 0 m 317 444 l 597 444 l 457 911 l 317 444 m 264 1111 l 172 1317 l 315 1317 l 397 1111 l 264 1111 m 519 1111 l 426 1317 l 569 1317 l 652 1111 l 519 1111 z "},"Ä":{"ha":917,"x_min":9,"x_max":908,"o":"m 731 0 l 642 296 l 272 296 l 183 0 l 9 0 l 328 1028 l 588 1028 l 908 0 l 731 0 m 317 444 l 597 444 l 457 911 l 317 444 m 295 1128 q 221 1151 247 1128 q 195 1216 195 1174 q 221 1281 195 1258 q 295 1304 247 1304 q 369 1281 343 1304 q 396 1216 396 1258 q 369 1151 396 1174 q 295 1128 343 1128 m 621 1128 q 547 1151 573 1128 q 520 1216 520 1174 q 547 1281 520 1258 q 621 1304 573 1304 q 695 1281 669 1304 q 721 1216 721 1258 q 695 1151 721 1174 q 621 1128 669 1128 z "},"Ạ":{"ha":917,"x_min":9,"x_max":908,"o":"m 731 0 l 642 296 l 272 296 l 183 0 l 9 0 l 328 1028 l 588 1028 l 908 0 l 731 0 m 317 444 l 597 444 l 457 911 l 317 444 m 458 -274 q 375 -251 405 -274 q 346 -186 346 -228 q 375 -120 346 -144 q 458 -97 405 -97 q 541 -120 512 -97 q 570 -186 570 -144 q 541 -251 570 -228 q 458 -274 512 -274 z "},"À":{"ha":917,"x_min":9,"x_max":908,"o":"m 731 0 l 642 296 l 272 296 l 183 0 l 9 0 l 328 1028 l 588 1028 l 908 0 l 731 0 m 317 444 l 597 444 l 457 911 l 317 444 m 380 1111 l 239 1317 l 423 1317 l 536 1111 l 380 1111 z "},"Ả":{"ha":917,"x_min":9,"x_max":908,"o":"m 731 0 l 642 296 l 272 296 l 183 0 l 9 0 l 328 1028 l 588 1028 l 908 0 l 731 0 m 317 444 l 597 444 l 457 911 l 317 444 m 411 1111 q 423 1148 413 1133 q 447 1172 433 1163 q 483 1191 461 1181 q 513 1208 503 1201 q 522 1225 522 1215 q 504 1247 522 1240 q 447 1254 486 1254 q 318 1235 381 1254 l 318 1308 q 384 1322 345 1317 q 460 1327 424 1327 q 620 1238 620 1327 q 604 1195 620 1211 q 558 1164 588 1180 q 520 1140 533 1151 q 505 1111 507 1128 l 411 1111 z "},"Ȃ":{"ha":917,"x_min":9,"x_max":908,"o":"m 731 0 l 642 296 l 272 296 l 183 0 l 9 0 l 328 1028 l 588 1028 l 908 0 l 731 0 m 317 444 l 597 444 l 457 911 l 317 444 m 226 1119 q 294 1263 235 1213 q 458 1313 353 1313 q 622 1262 563 1313 q 690 1119 681 1212 l 581 1119 q 544 1197 573 1172 q 458 1222 515 1222 q 371 1197 400 1222 q 335 1119 342 1172 l 226 1119 z "},"Ā":{"ha":917,"x_min":9,"x_max":908,"o":"m 731 0 l 642 296 l 272 296 l 183 0 l 9 0 l 328 1028 l 588 1028 l 908 0 l 731 0 m 317 444 l 597 444 l 457 911 l 317 444 m 228 1158 l 228 1270 l 688 1270 l 688 1158 l 228 1158 z "},"Ą":{"ha":917,"x_min":9,"x_max":951,"o":"m 851 -224 q 951 -202 895 -224 l 951 -277 q 831 -301 894 -301 q 697 -265 742 -301 q 652 -163 652 -228 q 677 -75 652 -115 q 760 0 703 -35 l 731 0 l 642 296 l 272 296 l 183 0 l 9 0 l 328 1028 l 588 1028 l 908 0 q 788 -73 822 -36 q 755 -152 755 -109 q 851 -224 755 -224 m 317 444 l 597 444 l 457 911 l 317 444 z "},"Å":{"ha":917,"x_min":9,"x_max":908,"o":"m 731 0 l 642 296 l 272 296 l 183 0 l 9 0 l 328 1028 l 588 1028 l 908 0 l 731 0 m 317 444 l 597 444 l 457 911 l 317 444 m 460 1047 q 385 1065 418 1047 q 333 1116 352 1083 q 315 1188 315 1148 q 333 1261 315 1228 q 385 1311 352 1293 q 460 1330 418 1330 q 534 1311 501 1330 q 585 1261 567 1293 q 604 1188 604 1228 q 585 1116 604 1148 q 534 1065 567 1083 q 460 1047 501 1047 m 460 1115 q 510 1135 491 1115 q 530 1188 530 1155 q 510 1241 530 1222 q 460 1261 491 1261 q 408 1241 428 1261 q 389 1188 389 1222 q 409 1135 389 1155 q 460 1115 428 1115 z "},"Ǻ":{"ha":917,"x_min":9,"x_max":908,"o":"m 731 0 l 642 296 l 272 296 l 183 0 l 9 0 l 328 1028 l 588 1028 l 908 0 l 731 0 m 317 444 l 597 444 l 457 911 l 317 444 m 583 1265 q 604 1189 604 1231 q 585 1116 604 1149 q 534 1066 567 1084 q 460 1047 501 1047 q 385 1066 418 1047 q 333 1116 352 1084 q 315 1189 315 1149 q 333 1261 315 1229 q 385 1312 352 1294 q 460 1330 418 1330 q 504 1324 483 1330 l 581 1412 l 718 1412 l 583 1265 m 460 1116 q 510 1136 491 1116 q 530 1189 530 1156 q 510 1241 530 1222 q 460 1261 491 1261 q 408 1242 428 1261 q 389 1189 389 1222 q 408 1136 389 1156 q 460 1116 428 1116 z "},"Ã":{"ha":917,"x_min":9,"x_max":908,"o":"m 731 0 l 642 296 l 272 296 l 183 0 l 9 0 l 328 1028 l 588 1028 l 908 0 l 731 0 m 317 444 l 597 444 l 457 911 l 317 444 m 568 1136 q 510 1143 538 1136 q 447 1165 483 1151 q 391 1184 412 1178 q 346 1190 369 1190 q 279 1178 308 1190 q 220 1140 250 1166 l 220 1249 q 275 1286 244 1274 q 348 1298 306 1298 q 406 1291 379 1298 q 470 1269 433 1283 q 526 1250 505 1256 q 570 1244 547 1244 q 638 1256 608 1244 q 696 1294 667 1268 l 696 1184 q 641 1148 672 1160 q 568 1136 610 1136 z "},"Æ":{"ha":1269,"x_min":9,"x_max":1228,"o":"m 796 149 l 1228 149 l 1228 0 l 633 0 l 613 295 l 276 295 l 185 0 l 9 0 l 332 1028 l 1221 1028 l 1221 878 l 744 878 l 764 601 l 1152 601 l 1152 451 l 774 451 l 796 149 m 322 444 l 603 444 l 574 878 l 456 878 l 322 444 z "},"Ǽ":{"ha":1269,"x_min":9,"x_max":1228,"o":"m 796 149 l 1228 149 l 1228 0 l 633 0 l 613 295 l 276 295 l 185 0 l 9 0 l 332 1028 l 1221 1028 l 1221 878 l 744 878 l 764 601 l 1152 601 l 1152 451 l 774 451 l 796 149 m 322 444 l 603 444 l 574 878 l 456 878 l 322 444 m 569 1111 l 683 1317 l 867 1317 l 726 1111 l 569 1111 z "},"B":{"ha":861,"x_min":93,"x_max":824,"o":"m 627 531 q 773 447 722 510 q 824 283 824 384 q 776 120 824 185 q 624 23 728 56 q 355 -10 521 -10 q 223 -6 293 -10 q 93 8 153 -1 l 93 1009 q 235 1032 159 1024 q 387 1040 310 1040 q 696 972 598 1040 q 794 760 794 903 q 752 615 794 676 q 627 531 709 553 m 410 903 q 267 892 334 903 l 267 597 l 416 597 q 539 613 493 597 q 606 664 585 630 q 626 750 626 697 q 605 839 626 805 q 536 888 583 872 q 410 903 489 903 m 400 126 q 551 143 495 126 q 632 197 607 161 q 656 291 656 233 q 604 416 656 376 q 438 456 551 456 l 267 456 l 267 133 q 400 126 326 126 z "},"C":{"ha":774,"x_min":58,"x_max":749,"o":"m 533 -13 q 179 111 301 -13 q 58 512 58 236 q 183 911 58 781 q 544 1041 308 1041 q 749 1016 653 1041 l 749 865 q 557 890 658 890 q 382 853 451 890 q 278 734 313 817 q 244 515 244 651 q 278 291 244 374 q 381 173 313 208 q 552 138 448 138 q 749 172 641 138 l 749 22 q 648 -4 704 5 q 533 -13 591 -13 z "},"Ć":{"ha":774,"x_min":58,"x_max":749,"o":"m 533 -13 q 179 111 301 -13 q 58 512 58 236 q 183 911 58 781 q 544 1041 308 1041 q 749 1016 653 1041 l 749 865 q 557 890 658 890 q 382 853 451 890 q 278 734 313 817 q 244 515 244 651 q 278 291 244 374 q 381 173 313 208 q 552 138 448 138 q 749 172 641 138 l 749 22 q 648 -4 704 5 q 533 -13 591 -13 m 399 1111 l 513 1317 l 697 1317 l 556 1111 l 399 1111 z "},"Č":{"ha":774,"x_min":58,"x_max":749,"o":"m 533 -13 q 179 111 301 -13 q 58 512 58 236 q 183 911 58 781 q 544 1041 308 1041 q 749 1016 653 1041 l 749 865 q 557 890 658 890 q 382 853 451 890 q 278 734 313 817 q 244 515 244 651 q 278 291 244 374 q 381 173 313 208 q 552 138 448 138 q 749 172 641 138 l 749 22 q 648 -4 704 5 q 533 -13 591 -13 m 577 1317 l 708 1317 l 553 1111 l 401 1111 l 247 1317 l 378 1317 l 478 1178 l 577 1317 z "},"Ç":{"ha":774,"x_min":58,"x_max":749,"o":"m 557 890 q 382 853 451 890 q 278 734 313 817 q 244 515 244 651 q 278 291 244 374 q 381 173 313 208 q 552 138 448 138 q 749 172 641 138 l 749 22 q 648 -4 704 5 q 533 -13 591 -13 l 516 -13 l 516 -64 q 607 -101 575 -72 q 639 -180 639 -131 q 595 -269 639 -237 q 466 -301 551 -301 q 334 -278 394 -301 l 334 -203 q 458 -226 394 -226 q 520 -214 499 -226 q 541 -174 541 -201 q 456 -119 541 -119 l 426 -119 l 426 -6 q 152 145 246 19 q 58 512 58 270 q 183 911 58 781 q 544 1041 308 1041 q 749 1016 653 1041 l 749 865 q 557 890 658 890 z "},"Ḉ":{"ha":774,"x_min":58,"x_max":749,"o":"m 697 1317 l 556 1111 l 399 1111 l 513 1317 l 697 1317 m 557 890 q 382 853 451 890 q 278 734 313 817 q 244 515 244 651 q 278 291 244 374 q 381 173 313 208 q 552 138 448 138 q 749 172 641 138 l 749 22 q 648 -4 704 5 q 533 -13 591 -13 l 516 -13 l 516 -64 q 607 -101 575 -72 q 639 -180 639 -131 q 595 -269 639 -237 q 466 -301 551 -301 q 334 -278 394 -301 l 334 -203 q 458 -226 394 -226 q 520 -214 499 -226 q 541 -174 541 -201 q 456 -119 541 -119 l 426 -119 l 426 -6 q 152 145 246 19 q 58 512 58 270 q 183 911 58 781 q 544 1041 308 1041 q 749 1016 653 1041 l 749 865 q 557 890 658 890 z "},"Ĉ":{"ha":774,"x_min":58,"x_max":749,"o":"m 533 -13 q 179 111 301 -13 q 58 512 58 236 q 183 911 58 781 q 544 1041 308 1041 q 749 1016 653 1041 l 749 865 q 557 890 658 890 q 382 853 451 890 q 278 734 313 817 q 244 515 244 651 q 278 291 244 374 q 381 173 313 208 q 552 138 448 138 q 749 172 641 138 l 749 22 q 648 -4 704 5 q 533 -13 591 -13 m 708 1111 l 577 1111 l 478 1249 l 378 1111 l 247 1111 l 401 1317 l 553 1317 l 708 1111 z "},"Ċ":{"ha":774,"x_min":58,"x_max":749,"o":"m 533 -13 q 179 111 301 -13 q 58 512 58 236 q 183 911 58 781 q 544 1041 308 1041 q 749 1016 653 1041 l 749 865 q 557 890 658 890 q 382 853 451 890 q 278 734 313 817 q 244 515 244 651 q 278 291 244 374 q 381 173 313 208 q 552 138 448 138 q 749 172 641 138 l 749 22 q 648 -4 704 5 q 533 -13 591 -13 m 478 1128 q 395 1151 424 1128 q 365 1216 365 1174 q 395 1281 365 1258 q 478 1304 424 1304 q 560 1281 531 1304 q 590 1216 590 1258 q 560 1151 590 1174 q 478 1128 531 1128 z "},"D":{"ha":943,"x_min":93,"x_max":885,"o":"m 340 -10 q 93 4 222 -10 l 93 1010 q 373 1040 234 1040 q 758 911 630 1040 q 885 514 885 782 q 825 216 885 331 q 644 45 765 100 q 340 -10 524 -10 m 383 138 q 561 175 492 138 q 667 295 631 213 q 702 515 702 378 q 667 732 702 649 q 563 853 632 815 q 388 892 494 892 q 271 881 332 892 l 271 144 q 383 138 324 138 z "},"Ǳ":{"ha":1692,"x_min":93,"x_max":1656,"o":"m 340 -10 q 93 4 222 -10 l 93 1010 q 373 1040 234 1040 q 758 911 630 1040 q 885 514 885 782 q 825 216 885 331 q 644 45 765 100 q 340 -10 524 -10 m 383 138 q 561 175 492 138 q 667 295 631 213 q 702 515 702 378 q 667 732 702 649 q 563 853 632 815 q 388 892 494 892 q 271 881 332 892 l 271 144 q 383 138 324 138 m 1177 153 l 1656 153 l 1656 0 l 947 0 l 947 99 l 1419 874 l 955 874 l 955 1028 l 1649 1028 l 1649 928 l 1177 153 z "},"Ǆ":{"ha":1692,"x_min":93,"x_max":1656,"o":"m 340 -10 q 93 4 222 -10 l 93 1010 q 373 1040 234 1040 q 758 911 630 1040 q 885 514 885 782 q 825 216 885 331 q 644 45 765 100 q 340 -10 524 -10 m 383 138 q 561 175 492 138 q 667 295 631 213 q 702 515 702 378 q 667 732 702 649 q 563 853 632 815 q 388 892 494 892 q 271 881 332 892 l 271 144 q 383 138 324 138 m 1177 153 l 1656 153 l 1656 0 l 947 0 l 947 99 l 1419 874 l 955 874 l 955 1028 l 1649 1028 l 1649 928 l 1177 153 m 1402 1317 l 1533 1317 l 1378 1111 l 1226 1111 l 1072 1317 l 1203 1317 l 1303 1178 l 1402 1317 z "},"Ð":{"ha":943,"x_min":0,"x_max":885,"o":"m 373 1040 q 758 911 630 1040 q 885 514 885 782 q 825 216 885 331 q 644 45 765 100 q 340 -10 524 -10 q 93 4 222 -10 l 93 469 l 0 469 l 0 589 l 93 589 l 93 1010 q 373 1040 234 1040 m 383 138 q 561 175 492 138 q 667 295 631 213 q 702 515 702 378 q 667 732 702 649 q 563 853 632 815 q 388 892 494 892 q 271 881 332 892 l 271 589 l 457 589 l 457 469 l 271 469 l 271 144 q 383 138 324 138 z "},"Ď":{"ha":943,"x_min":93,"x_max":885,"o":"m 340 -10 q 93 4 222 -10 l 93 1010 q 373 1040 234 1040 q 758 911 630 1040 q 885 514 885 782 q 825 216 885 331 q 644 45 765 100 q 340 -10 524 -10 m 383 138 q 561 175 492 138 q 667 295 631 213 q 702 515 702 378 q 667 732 702 649 q 563 853 632 815 q 388 892 494 892 q 271 881 332 892 l 271 144 q 383 138 324 138 m 526 1317 l 658 1317 l 503 1111 l 351 1111 l 197 1317 l 327 1317 l 427 1178 l 526 1317 z "},"Đ":{"ha":943,"x_min":0,"x_max":885,"o":"m 373 1040 q 758 911 630 1040 q 885 514 885 782 q 825 216 885 331 q 644 45 765 100 q 340 -10 524 -10 q 93 4 222 -10 l 93 469 l 0 469 l 0 589 l 93 589 l 93 1010 q 373 1040 234 1040 m 383 138 q 561 175 492 138 q 667 295 631 213 q 702 515 702 378 q 667 732 702 649 q 563 853 632 815 q 388 892 494 892 q 271 881 332 892 l 271 589 l 457 589 l 457 469 l 271 469 l 271 144 q 383 138 324 138 z "},"Ḍ":{"ha":943,"x_min":93,"x_max":885,"o":"m 340 -10 q 93 4 222 -10 l 93 1010 q 373 1040 234 1040 q 758 911 630 1040 q 885 514 885 782 q 825 216 885 331 q 644 45 765 100 q 340 -10 524 -10 m 383 138 q 561 175 492 138 q 667 295 631 213 q 702 515 702 378 q 667 732 702 649 q 563 853 632 815 q 388 892 494 892 q 271 881 332 892 l 271 144 q 383 138 324 138 m 435 -274 q 352 -251 381 -274 q 322 -186 322 -228 q 352 -120 322 -144 q 435 -97 381 -97 q 517 -120 488 -97 q 547 -186 547 -144 q 517 -251 547 -228 q 435 -274 488 -274 z "},"Ḏ":{"ha":943,"x_min":93,"x_max":885,"o":"m 340 -10 q 93 4 222 -10 l 93 1010 q 373 1040 234 1040 q 758 911 630 1040 q 885 514 885 782 q 825 216 885 331 q 644 45 765 100 q 340 -10 524 -10 m 383 138 q 561 175 492 138 q 667 295 631 213 q 702 515 702 378 q 667 732 702 649 q 563 853 632 815 q 388 892 494 892 q 271 881 332 892 l 271 144 q 383 138 324 138 m 205 -238 l 205 -126 l 664 -126 l 664 -238 l 205 -238 z "},"ǲ":{"ha":1565,"x_min":93,"x_max":1535,"o":"m 340 -10 q 93 4 222 -10 l 93 1010 q 373 1040 234 1040 q 758 911 630 1040 q 885 514 885 782 q 825 216 885 331 q 644 45 765 100 q 340 -10 524 -10 m 383 138 q 561 175 492 138 q 667 295 631 213 q 702 515 702 378 q 667 732 702 649 q 563 853 632 815 q 388 892 494 892 q 271 881 332 892 l 271 144 q 383 138 324 138 m 1188 140 l 1535 140 l 1535 0 l 981 0 l 981 109 l 1322 618 l 989 618 l 989 758 l 1528 758 l 1528 649 l 1188 140 z "},"ǅ":{"ha":1565,"x_min":93,"x_max":1535,"o":"m 340 -10 q 93 4 222 -10 l 93 1010 q 373 1040 234 1040 q 758 911 630 1040 q 885 514 885 782 q 825 216 885 331 q 644 45 765 100 q 340 -10 524 -10 m 383 138 q 561 175 492 138 q 667 295 631 213 q 702 515 702 378 q 667 732 702 649 q 563 853 632 815 q 388 892 494 892 q 271 881 332 892 l 271 144 q 383 138 324 138 m 1188 140 l 1535 140 l 1535 0 l 981 0 l 981 109 l 1322 618 l 989 618 l 989 758 l 1528 758 l 1528 649 l 1188 140 m 1358 1094 l 1490 1094 l 1335 889 l 1183 889 l 1028 1094 l 1159 1094 l 1259 956 l 1358 1094 z "},"E":{"ha":788,"x_min":93,"x_max":746,"o":"m 269 149 l 746 149 l 746 0 l 93 0 l 93 1028 l 739 1028 l 739 878 l 269 878 l 269 601 l 670 601 l 670 451 l 269 451 l 269 149 z "},"É":{"ha":788,"x_min":93,"x_max":746,"o":"m 269 149 l 746 149 l 746 0 l 93 0 l 93 1028 l 739 1028 l 739 878 l 269 878 l 269 601 l 670 601 l 670 451 l 269 451 l 269 149 m 352 1111 l 466 1317 l 650 1317 l 509 1111 l 352 1111 z "},"Ĕ":{"ha":788,"x_min":93,"x_max":746,"o":"m 269 149 l 746 149 l 746 0 l 93 0 l 93 1028 l 739 1028 l 739 878 l 269 878 l 269 601 l 670 601 l 670 451 l 269 451 l 269 149 m 431 1115 q 267 1165 326 1115 q 199 1308 208 1215 l 308 1308 q 345 1230 316 1255 q 431 1206 374 1206 q 518 1230 489 1206 q 553 1308 547 1255 l 663 1308 q 595 1165 654 1215 q 431 1115 536 1115 z "},"Ě":{"ha":788,"x_min":93,"x_max":746,"o":"m 269 149 l 746 149 l 746 0 l 93 0 l 93 1028 l 739 1028 l 739 878 l 269 878 l 269 601 l 670 601 l 670 451 l 269 451 l 269 149 m 531 1317 l 662 1317 l 507 1111 l 355 1111 l 201 1317 l 331 1317 l 431 1178 l 531 1317 z "},"Ḝ":{"ha":788,"x_min":93,"x_max":746,"o":"m 431 1115 q 267 1165 326 1115 q 199 1308 208 1215 l 308 1308 q 345 1230 316 1255 q 431 1206 374 1206 q 518 1230 489 1206 q 553 1308 547 1255 l 663 1308 q 595 1165 654 1215 q 431 1115 536 1115 m 466 0 l 466 -64 q 557 -101 525 -72 q 589 -180 589 -131 q 545 -269 589 -237 q 416 -301 501 -301 q 284 -278 344 -301 l 284 -203 q 408 -226 344 -226 q 470 -214 449 -226 q 491 -174 491 -201 q 406 -119 491 -119 l 376 -119 l 376 0 l 93 0 l 93 1028 l 739 1028 l 739 878 l 269 878 l 269 601 l 670 601 l 670 451 l 269 451 l 269 149 l 746 149 l 746 0 l 466 0 z "},"Ê":{"ha":788,"x_min":93,"x_max":746,"o":"m 269 149 l 746 149 l 746 0 l 93 0 l 93 1028 l 739 1028 l 739 878 l 269 878 l 269 601 l 670 601 l 670 451 l 269 451 l 269 149 m 662 1111 l 531 1111 l 431 1249 l 331 1111 l 201 1111 l 355 1317 l 507 1317 l 662 1111 z "},"Ế":{"ha":788,"x_min":93,"x_max":793,"o":"m 269 149 l 746 149 l 746 0 l 93 0 l 93 1028 l 739 1028 l 739 878 l 269 878 l 269 601 l 670 601 l 670 451 l 269 451 l 269 149 m 672 1433 l 793 1433 l 684 1258 l 590 1258 l 672 1433 m 355 1300 l 507 1300 l 662 1111 l 531 1111 l 431 1240 l 331 1111 l 201 1111 l 355 1300 z "},"Ệ":{"ha":788,"x_min":93,"x_max":746,"o":"m 269 149 l 746 149 l 746 0 l 93 0 l 93 1028 l 739 1028 l 739 878 l 269 878 l 269 601 l 670 601 l 670 451 l 269 451 l 269 149 m 432 -274 q 349 -251 378 -274 q 319 -186 319 -228 q 349 -120 319 -144 q 432 -97 378 -97 q 515 -120 485 -97 q 544 -186 544 -144 q 515 -251 544 -228 q 432 -274 485 -274 m 662 1111 l 531 1111 l 431 1249 l 331 1111 l 201 1111 l 355 1317 l 507 1317 l 662 1111 z "},"Ề":{"ha":788,"x_min":93,"x_max":746,"o":"m 269 149 l 746 149 l 746 0 l 93 0 l 93 1028 l 739 1028 l 739 878 l 269 878 l 269 601 l 670 601 l 670 451 l 269 451 l 269 149 m 706 1258 l 611 1258 l 502 1433 l 623 1433 l 706 1258 m 355 1300 l 507 1300 l 662 1111 l 531 1111 l 431 1240 l 331 1111 l 201 1111 l 355 1300 z "},"Ể":{"ha":788,"x_min":93,"x_max":798,"o":"m 269 149 l 746 149 l 746 0 l 93 0 l 93 1028 l 739 1028 l 739 878 l 269 878 l 269 601 l 670 601 l 670 451 l 269 451 l 269 149 m 638 1456 q 798 1375 798 1456 q 782 1336 798 1349 q 735 1306 767 1322 q 698 1284 710 1294 q 683 1258 685 1274 l 590 1258 q 610 1302 592 1287 q 660 1332 628 1317 q 690 1347 680 1340 q 699 1364 699 1354 q 682 1384 699 1378 q 625 1391 665 1391 q 496 1373 557 1391 l 496 1438 q 563 1451 524 1446 q 638 1456 603 1456 m 355 1300 l 507 1300 l 662 1111 l 531 1111 l 431 1240 l 331 1111 l 201 1111 l 355 1300 z "},"Ễ":{"ha":788,"x_min":93,"x_max":746,"o":"m 269 149 l 746 149 l 746 0 l 93 0 l 93 1028 l 739 1028 l 739 878 l 269 878 l 269 601 l 670 601 l 670 451 l 269 451 l 269 149 m 533 1411 q 598 1422 569 1411 q 662 1458 627 1433 l 662 1373 q 602 1340 633 1349 q 531 1330 572 1330 q 480 1336 503 1330 q 418 1355 456 1342 q 367 1371 386 1366 q 330 1376 349 1376 q 265 1365 294 1376 q 201 1328 235 1353 l 201 1414 q 260 1447 229 1438 q 331 1457 291 1457 q 385 1450 359 1457 q 444 1432 410 1444 q 494 1416 476 1421 q 533 1411 513 1411 m 355 1300 l 507 1300 l 662 1111 l 531 1111 l 431 1240 l 331 1111 l 201 1111 l 355 1300 z "},"Ȅ":{"ha":788,"x_min":93,"x_max":746,"o":"m 269 149 l 746 149 l 746 0 l 93 0 l 93 1028 l 739 1028 l 739 878 l 269 878 l 269 601 l 670 601 l 670 451 l 269 451 l 269 149 m 237 1111 l 144 1317 l 288 1317 l 370 1111 l 237 1111 m 492 1111 l 399 1317 l 542 1317 l 625 1111 l 492 1111 z "},"Ë":{"ha":788,"x_min":93,"x_max":746,"o":"m 269 149 l 746 149 l 746 0 l 93 0 l 93 1028 l 739 1028 l 739 878 l 269 878 l 269 601 l 670 601 l 670 451 l 269 451 l 269 149 m 268 1128 q 194 1151 220 1128 q 168 1216 168 1174 q 194 1281 168 1258 q 268 1304 220 1304 q 342 1281 316 1304 q 369 1216 369 1258 q 342 1151 369 1174 q 268 1128 316 1128 m 594 1128 q 519 1151 546 1128 q 493 1216 493 1174 q 519 1281 493 1258 q 594 1304 546 1304 q 668 1281 642 1304 q 694 1216 694 1258 q 668 1151 694 1174 q 594 1128 642 1128 z "},"Ė":{"ha":788,"x_min":93,"x_max":746,"o":"m 269 149 l 746 149 l 746 0 l 93 0 l 93 1028 l 739 1028 l 739 878 l 269 878 l 269 601 l 670 601 l 670 451 l 269 451 l 269 149 m 431 1128 q 348 1151 378 1128 q 319 1216 319 1174 q 348 1281 319 1258 q 431 1304 378 1304 q 514 1281 485 1304 q 543 1216 543 1258 q 514 1151 543 1174 q 431 1128 485 1128 z "},"Ẹ":{"ha":788,"x_min":93,"x_max":746,"o":"m 269 149 l 746 149 l 746 0 l 93 0 l 93 1028 l 739 1028 l 739 878 l 269 878 l 269 601 l 670 601 l 670 451 l 269 451 l 269 149 m 432 -274 q 349 -251 378 -274 q 319 -186 319 -228 q 349 -120 319 -144 q 432 -97 378 -97 q 515 -120 485 -97 q 544 -186 544 -144 q 515 -251 544 -228 q 432 -274 485 -274 z "},"È":{"ha":788,"x_min":93,"x_max":746,"o":"m 269 149 l 746 149 l 746 0 l 93 0 l 93 1028 l 739 1028 l 739 878 l 269 878 l 269 601 l 670 601 l 670 451 l 269 451 l 269 149 m 353 1111 l 212 1317 l 396 1317 l 509 1111 l 353 1111 z "},"Ẻ":{"ha":788,"x_min":93,"x_max":746,"o":"m 269 149 l 746 149 l 746 0 l 93 0 l 93 1028 l 739 1028 l 739 878 l 269 878 l 269 601 l 670 601 l 670 451 l 269 451 l 269 149 m 384 1111 q 396 1148 385 1133 q 420 1172 406 1163 q 456 1191 434 1181 q 485 1208 476 1201 q 494 1225 494 1215 q 477 1247 494 1240 q 419 1254 459 1254 q 291 1235 353 1254 l 291 1308 q 357 1322 318 1317 q 433 1327 397 1327 q 593 1238 593 1327 q 577 1195 593 1211 q 531 1164 561 1180 q 493 1140 506 1151 q 478 1111 480 1128 l 384 1111 z "},"Ȇ":{"ha":788,"x_min":93,"x_max":746,"o":"m 269 149 l 746 149 l 746 0 l 93 0 l 93 1028 l 739 1028 l 739 878 l 269 878 l 269 601 l 670 601 l 670 451 l 269 451 l 269 149 m 199 1119 q 267 1263 208 1213 q 431 1313 326 1313 q 595 1262 535 1313 q 663 1119 654 1212 l 553 1119 q 517 1197 546 1172 q 431 1222 488 1222 q 344 1197 373 1222 q 308 1119 315 1172 l 199 1119 z "},"Ē":{"ha":788,"x_min":93,"x_max":746,"o":"m 269 149 l 746 149 l 746 0 l 93 0 l 93 1028 l 739 1028 l 739 878 l 269 878 l 269 601 l 670 601 l 670 451 l 269 451 l 269 149 m 201 1158 l 201 1270 l 660 1270 l 660 1158 l 201 1158 z "},"Ḗ":{"ha":788,"x_min":93,"x_max":746,"o":"m 269 149 l 746 149 l 746 0 l 93 0 l 93 1028 l 739 1028 l 739 878 l 269 878 l 269 601 l 670 601 l 670 451 l 269 451 l 269 149 m 345 1347 l 458 1508 l 658 1508 l 517 1347 l 345 1347 m 201 1158 l 201 1270 l 660 1270 l 660 1158 l 201 1158 z "},"Ḕ":{"ha":788,"x_min":93,"x_max":746,"o":"m 269 149 l 746 149 l 746 0 l 93 0 l 93 1028 l 739 1028 l 739 878 l 269 878 l 269 601 l 670 601 l 670 451 l 269 451 l 269 149 m 345 1347 l 204 1508 l 403 1508 l 517 1347 l 345 1347 m 201 1158 l 201 1270 l 660 1270 l 660 1158 l 201 1158 z "},"Ę":{"ha":788,"x_min":93,"x_max":746,"o":"m 689 0 q 569 -73 603 -36 q 536 -152 536 -109 q 633 -224 536 -224 q 733 -202 676 -224 l 733 -277 q 612 -301 675 -301 q 478 -265 524 -301 q 433 -163 433 -228 q 459 -75 433 -115 q 542 0 484 -35 l 93 0 l 93 1028 l 739 1028 l 739 878 l 269 878 l 269 601 l 670 601 l 670 451 l 269 451 l 269 149 l 746 149 l 746 0 l 689 0 z "},"Ẽ":{"ha":788,"x_min":93,"x_max":746,"o":"m 269 149 l 746 149 l 746 0 l 93 0 l 93 1028 l 739 1028 l 739 878 l 269 878 l 269 601 l 670 601 l 670 451 l 269 451 l 269 149 m 541 1136 q 483 1143 510 1136 q 420 1165 456 1151 q 364 1184 385 1178 q 319 1190 342 1190 q 252 1178 281 1190 q 193 1140 223 1166 l 193 1249 q 248 1286 217 1274 q 321 1298 279 1298 q 379 1291 352 1298 q 443 1269 406 1283 q 499 1250 478 1256 q 543 1244 520 1244 q 610 1256 581 1244 q 669 1294 640 1268 l 669 1184 q 614 1148 644 1160 q 541 1136 583 1136 z "},"F":{"ha":756,"x_min":93,"x_max":736,"o":"m 736 876 l 271 876 l 271 583 l 668 583 l 668 432 l 271 432 l 271 0 l 93 0 l 93 1028 l 736 1028 l 736 876 z "},"G":{"ha":903,"x_min":57,"x_max":819,"o":"m 819 500 l 819 10 q 591 -10 701 -10 q 190 116 323 -10 q 58 513 58 242 q 191 912 57 783 q 578 1041 324 1041 q 796 1014 692 1041 l 796 864 q 593 890 691 890 q 397 853 474 890 q 282 733 321 817 q 243 510 243 650 q 280 295 243 377 q 390 176 317 213 q 576 139 463 139 q 653 142 612 139 l 653 500 l 819 500 z "},"Ǵ":{"ha":903,"x_min":58,"x_max":819,"o":"m 819 500 l 819 10 q 591 -10 701 -10 q 190 116 323 -10 q 58 513 58 242 q 191 912 57 783 q 578 1041 324 1041 q 796 1014 692 1041 l 796 864 q 593 890 691 890 q 397 853 474 890 q 282 733 321 817 q 243 510 243 650 q 280 295 243 377 q 390 176 317 213 q 576 139 463 139 q 653 142 612 139 l 653 500 l 819 500 m 433 1111 l 547 1317 l 731 1317 l 590 1111 l 433 1111 z "},"Ğ":{"ha":903,"x_min":58,"x_max":819,"o":"m 819 500 l 819 10 q 591 -10 701 -10 q 190 116 323 -10 q 58 513 58 242 q 191 912 57 783 q 578 1041 324 1041 q 796 1014 692 1041 l 796 864 q 593 890 691 890 q 397 853 474 890 q 282 733 321 817 q 243 510 243 650 q 280 295 243 377 q 390 176 317 213 q 576 139 463 139 q 653 142 612 139 l 653 500 l 819 500 m 512 1115 q 348 1165 407 1115 q 279 1308 288 1215 l 389 1308 q 426 1230 397 1255 q 512 1206 455 1206 q 598 1230 569 1206 q 634 1308 627 1255 l 744 1308 q 676 1165 735 1215 q 512 1115 617 1115 z "},"Ǧ":{"ha":903,"x_min":58,"x_max":819,"o":"m 819 500 l 819 10 q 591 -10 701 -10 q 190 116 323 -10 q 58 513 58 242 q 191 912 57 783 q 578 1041 324 1041 q 796 1014 692 1041 l 796 864 q 593 890 691 890 q 397 853 474 890 q 282 733 321 817 q 243 510 243 650 q 280 295 243 377 q 390 176 317 213 q 576 139 463 139 q 653 142 612 139 l 653 500 l 819 500 m 611 1317 l 742 1317 l 588 1111 l 435 1111 l 281 1317 l 412 1317 l 512 1178 l 611 1317 z "},"Ĝ":{"ha":903,"x_min":58,"x_max":819,"o":"m 819 500 l 819 10 q 591 -10 701 -10 q 190 116 323 -10 q 58 513 58 242 q 191 912 57 783 q 578 1041 324 1041 q 796 1014 692 1041 l 796 864 q 593 890 691 890 q 397 853 474 890 q 282 733 321 817 q 243 510 243 650 q 280 295 243 377 q 390 176 317 213 q 576 139 463 139 q 653 142 612 139 l 653 500 l 819 500 m 742 1111 l 611 1111 l 512 1249 l 412 1111 l 281 1111 l 435 1317 l 588 1317 l 742 1111 z "},"Ģ":{"ha":903,"x_min":58,"x_max":819,"o":"m 819 500 l 819 10 q 591 -10 701 -10 q 190 116 323 -10 q 58 513 58 242 q 191 912 57 783 q 578 1041 324 1041 q 796 1014 692 1041 l 796 864 q 593 890 691 890 q 397 853 474 890 q 282 733 321 817 q 243 510 243 650 q 280 295 243 377 q 390 176 317 213 q 576 139 463 139 q 653 142 612 139 l 653 500 l 819 500 m 510 -97 q 614 -191 614 -97 q 601 -265 614 -225 q 565 -337 588 -306 l 456 -337 q 490 -237 484 -279 q 430 -215 450 -233 q 410 -167 410 -197 q 435 -116 410 -134 q 510 -97 460 -97 z "},"Ġ":{"ha":903,"x_min":58,"x_max":819,"o":"m 819 500 l 819 10 q 591 -10 701 -10 q 190 116 323 -10 q 58 513 58 242 q 191 912 57 783 q 578 1041 324 1041 q 796 1014 692 1041 l 796 864 q 593 890 691 890 q 397 853 474 890 q 282 733 321 817 q 243 510 243 650 q 280 295 243 377 q 390 176 317 213 q 576 139 463 139 q 653 142 612 139 l 653 500 l 819 500 m 512 1128 q 429 1151 458 1128 q 399 1216 399 1174 q 429 1281 399 1258 q 512 1304 458 1304 q 594 1281 565 1304 q 624 1216 624 1258 q 594 1151 624 1174 q 512 1128 565 1128 z "},"Ḡ":{"ha":903,"x_min":58,"x_max":819,"o":"m 819 500 l 819 10 q 591 -10 701 -10 q 190 116 323 -10 q 58 513 58 242 q 191 912 57 783 q 578 1041 324 1041 q 796 1014 692 1041 l 796 864 q 593 890 691 890 q 397 853 474 890 q 282 733 321 817 q 243 510 243 650 q 280 295 243 377 q 390 176 317 213 q 576 139 463 139 q 653 142 612 139 l 653 500 l 819 500 m 282 1158 l 282 1270 l 741 1270 l 741 1158 l 282 1158 z "},"H":{"ha":971,"x_min":93,"x_max":878,"o":"m 93 0 l 93 1028 l 271 1028 l 271 606 l 700 606 l 700 1028 l 878 1028 l 878 0 l 700 0 l 700 446 l 271 446 l 271 0 l 93 0 z "},"Ħ":{"ha":971,"x_min":1,"x_max":971,"o":"m 971 874 l 971 760 l 878 760 l 878 0 l 700 0 l 700 446 l 271 446 l 271 0 l 93 0 l 93 760 l 1 760 l 1 874 l 93 874 l 93 1028 l 271 1028 l 271 874 l 700 874 l 700 1028 l 878 1028 l 878 874 l 971 874 m 700 606 l 700 760 l 271 760 l 271 606 l 700 606 z "},"Ḫ":{"ha":971,"x_min":93,"x_max":878,"o":"m 93 0 l 93 1028 l 271 1028 l 271 606 l 700 606 l 700 1028 l 878 1028 l 878 0 l 700 0 l 700 446 l 271 446 l 271 0 l 93 0 m 486 -297 q 320 -246 380 -297 q 253 -101 260 -194 l 363 -101 q 399 -180 369 -154 q 486 -206 428 -206 q 574 -180 544 -206 q 608 -101 603 -154 l 718 -101 q 652 -246 711 -194 q 486 -297 592 -297 z "},"Ĥ":{"ha":971,"x_min":93,"x_max":878,"o":"m 93 0 l 93 1028 l 271 1028 l 271 606 l 700 606 l 700 1028 l 878 1028 l 878 0 l 700 0 l 700 446 l 271 446 l 271 0 l 93 0 m 717 1111 l 585 1111 l 486 1249 l 386 1111 l 256 1111 l 410 1317 l 562 1317 l 717 1111 z "},"Ḥ":{"ha":971,"x_min":93,"x_max":878,"o":"m 93 0 l 93 1028 l 271 1028 l 271 606 l 700 606 l 700 1028 l 878 1028 l 878 0 l 700 0 l 700 446 l 271 446 l 271 0 l 93 0 m 486 -274 q 403 -251 433 -274 q 374 -186 374 -228 q 403 -120 374 -144 q 486 -97 433 -97 q 569 -120 540 -97 q 598 -186 598 -144 q 569 -251 598 -228 q 486 -274 540 -274 z "},"I":{"ha":364,"x_min":93,"x_max":271,"o":"m 93 0 l 93 1028 l 271 1028 l 271 0 l 93 0 z "},"Í":{"ha":364,"x_min":93,"x_max":401,"o":"m 93 0 l 93 1028 l 271 1028 l 271 0 l 93 0 m 103 1111 l 217 1317 l 401 1317 l 260 1111 l 103 1111 z "},"Ĭ":{"ha":364,"x_min":-51,"x_max":414,"o":"m 93 0 l 93 1028 l 271 1028 l 271 0 l 93 0 m 182 1115 q 18 1165 77 1115 q -51 1308 -42 1215 l 59 1308 q 96 1230 67 1255 q 182 1206 125 1206 q 268 1230 240 1206 q 304 1308 297 1255 l 414 1308 q 346 1165 405 1215 q 182 1115 287 1115 z "},"Î":{"ha":364,"x_min":-49,"x_max":413,"o":"m 93 0 l 93 1028 l 271 1028 l 271 0 l 93 0 m 413 1111 l 281 1111 l 182 1249 l 82 1111 l -49 1111 l 106 1317 l 258 1317 l 413 1111 z "},"Ȉ":{"ha":364,"x_min":-105,"x_max":376,"o":"m 93 0 l 93 1028 l 271 1028 l 271 0 l 93 0 m -12 1111 l -105 1317 l 38 1317 l 121 1111 l -12 1111 m 242 1111 l 150 1317 l 293 1317 l 376 1111 l 242 1111 z "},"Ï":{"ha":364,"x_min":-81,"x_max":444,"o":"m 93 0 l 93 1028 l 271 1028 l 271 0 l 93 0 m 19 1128 q -55 1151 -29 1128 q -81 1216 -81 1174 q -55 1281 -81 1258 q 19 1304 -29 1304 q 93 1281 67 1304 q 119 1216 119 1258 q 93 1151 119 1174 q 19 1128 67 1128 m 344 1128 q 270 1151 297 1128 q 244 1216 244 1174 q 270 1281 244 1258 q 344 1304 297 1304 q 418 1281 392 1304 q 444 1216 444 1258 q 418 1151 444 1174 q 344 1128 392 1128 z "},"Ḯ":{"ha":364,"x_min":-81,"x_max":444,"o":"m 93 0 l 93 1028 l 271 1028 l 271 0 l 93 0 m 96 1347 l 209 1508 l 408 1508 l 268 1347 l 96 1347 m 19 1128 q -55 1151 -29 1128 q -81 1216 -81 1174 q -55 1281 -81 1258 q 19 1304 -29 1304 q 93 1281 67 1304 q 119 1216 119 1258 q 93 1151 119 1174 q 19 1128 67 1128 m 344 1128 q 270 1151 297 1128 q 244 1216 244 1174 q 270 1281 244 1258 q 344 1304 297 1304 q 418 1281 392 1304 q 444 1216 444 1258 q 418 1151 444 1174 q 344 1128 392 1128 z "},"İ":{"ha":364,"x_min":69,"x_max":294,"o":"m 93 0 l 93 1028 l 271 1028 l 271 0 l 93 0 m 182 1128 q 99 1151 128 1128 q 69 1216 69 1174 q 99 1281 69 1258 q 182 1304 128 1304 q 265 1281 235 1304 q 294 1216 294 1258 q 265 1151 294 1174 q 182 1128 235 1128 z "},"Ị":{"ha":364,"x_min":69,"x_max":294,"o":"m 93 0 l 93 1028 l 271 1028 l 271 0 l 93 0 m 182 -274 q 99 -251 128 -274 q 69 -186 69 -228 q 99 -120 69 -144 q 182 -97 128 -97 q 265 -120 235 -97 q 294 -186 294 -144 q 265 -251 294 -228 q 182 -274 235 -274 z "},"Ì":{"ha":364,"x_min":-37,"x_max":271,"o":"m 93 0 l 93 1028 l 271 1028 l 271 0 l 93 0 m 103 1111 l -37 1317 l 147 1317 l 260 1111 l 103 1111 z "},"Ỉ":{"ha":364,"x_min":42,"x_max":344,"o":"m 93 0 l 93 1028 l 271 1028 l 271 0 l 93 0 m 135 1111 q 147 1148 136 1133 q 171 1172 157 1163 q 206 1191 185 1181 q 236 1208 227 1201 q 245 1225 245 1215 q 227 1247 245 1240 q 170 1254 210 1254 q 42 1235 104 1254 l 42 1308 q 108 1322 69 1317 q 183 1327 147 1327 q 344 1238 344 1327 q 328 1195 344 1211 q 281 1164 312 1180 q 243 1140 256 1151 q 228 1111 231 1128 l 135 1111 z "},"Ȋ":{"ha":364,"x_min":-51,"x_max":414,"o":"m 93 0 l 93 1028 l 271 1028 l 271 0 l 93 0 m -51 1119 q 17 1263 -42 1213 q 181 1313 76 1313 q 345 1262 286 1313 q 414 1119 405 1212 l 304 1119 q 268 1197 297 1172 q 181 1222 239 1222 q 95 1197 124 1222 q 59 1119 66 1172 l -51 1119 z "},"Ī":{"ha":364,"x_min":-48,"x_max":411,"o":"m 93 0 l 93 1028 l 271 1028 l 271 0 l 93 0 m -48 1158 l -48 1270 l 411 1270 l 411 1158 l -48 1158 z "},"Į":{"ha":364,"x_min":15,"x_max":315,"o":"m 215 -224 q 315 -202 258 -224 l 315 -277 q 194 -301 257 -301 q 60 -265 106 -301 q 15 -163 15 -228 q 41 -75 15 -115 q 124 0 66 -35 l 93 0 l 93 1028 l 271 1028 l 271 0 q 151 -73 185 -36 q 118 -152 118 -109 q 215 -224 118 -224 z "},"Ĩ":{"ha":364,"x_min":-56,"x_max":419,"o":"m 93 0 l 93 1028 l 271 1028 l 271 0 l 93 0 m 292 1136 q 234 1143 261 1136 q 171 1165 207 1151 q 114 1184 135 1178 q 69 1190 93 1190 q 3 1178 32 1190 q -56 1140 -26 1166 l -56 1249 q -1 1286 -32 1274 q 72 1298 30 1298 q 130 1291 103 1298 q 194 1269 157 1283 q 250 1250 228 1256 q 294 1244 271 1244 q 361 1256 332 1244 q 419 1294 390 1268 l 419 1184 q 364 1148 395 1160 q 292 1136 333 1136 z "},"J":{"ha":364,"x_min":-17,"x_max":271,"o":"m -17 -163 q 69 6 44 -77 q 94 206 94 89 l 94 1028 l 271 1028 l 271 202 q 230 -30 269 73 q 99 -240 191 -133 l -17 -163 z "},"Ĵ":{"ha":364,"x_min":-49,"x_max":413,"o":"m -17 -163 q 69 6 44 -77 q 94 206 94 89 l 94 1028 l 271 1028 l 271 202 q 230 -30 269 73 q 99 -240 191 -133 l -17 -163 m 413 1111 l 281 1111 l 182 1249 l 82 1111 l -49 1111 l 106 1317 l 258 1317 l 413 1111 z "},"K":{"ha":849,"x_min":93,"x_max":881,"o":"m 688 0 l 380 446 l 271 446 l 271 0 l 93 0 l 93 1028 l 271 1028 l 271 606 l 382 606 l 665 1028 l 853 1028 l 519 531 l 881 0 l 688 0 z "},"Ķ":{"ha":849,"x_min":93,"x_max":881,"o":"m 688 0 l 380 446 l 271 446 l 271 0 l 93 0 l 93 1028 l 271 1028 l 271 606 l 382 606 l 665 1028 l 853 1028 l 519 531 l 881 0 l 688 0 m 444 -97 q 548 -191 548 -97 q 535 -265 548 -225 q 499 -337 522 -306 l 390 -337 q 424 -237 418 -279 q 364 -215 384 -233 q 344 -167 344 -197 q 369 -116 344 -134 q 444 -97 394 -97 z "},"L":{"ha":726,"x_min":93,"x_max":721,"o":"m 93 0 l 93 1028 l 271 1028 l 271 154 l 721 154 l 721 0 l 93 0 z "},"Ǉ":{"ha":1090,"x_min":93,"x_max":997,"o":"m 93 0 l 93 1028 l 271 1028 l 271 154 l 721 154 l 721 0 l 93 0 m 709 -163 q 795 6 770 -77 q 819 206 819 89 l 819 1028 l 997 1028 l 997 202 q 956 -30 994 73 q 825 -240 917 -133 l 709 -163 z "},"Ĺ":{"ha":726,"x_min":93,"x_max":721,"o":"m 93 0 l 93 1028 l 271 1028 l 271 154 l 721 154 l 721 0 l 93 0 m 106 1111 l 219 1317 l 403 1317 l 263 1111 l 106 1111 z "},"Ľ":{"ha":726,"x_min":93,"x_max":721,"o":"m 93 0 l 93 1028 l 271 1028 l 271 154 l 721 154 l 721 0 l 93 0 m 457 792 q 471 943 467 866 q 475 1122 475 1021 l 596 1122 q 554 792 596 924 l 457 792 z "},"Ļ":{"ha":726,"x_min":93,"x_max":721,"o":"m 93 0 l 93 1028 l 271 1028 l 271 154 l 721 154 l 721 0 l 93 0 m 406 -97 q 509 -191 509 -97 q 496 -265 509 -225 q 460 -337 483 -306 l 351 -337 q 385 -237 379 -279 q 325 -215 345 -233 q 305 -167 305 -197 q 330 -116 305 -134 q 406 -97 356 -97 z "},"Ŀ":{"ha":726,"x_min":93,"x_max":721,"o":"m 93 0 l 93 1028 l 271 1028 l 271 154 l 721 154 l 721 0 l 93 0 m 540 486 q 456 512 484 486 q 428 585 428 538 q 456 659 428 633 q 540 685 484 685 q 623 659 595 685 q 651 585 651 633 q 623 512 651 538 q 540 486 595 486 z "},"Ḷ":{"ha":726,"x_min":93,"x_max":721,"o":"m 93 0 l 93 1028 l 271 1028 l 271 154 l 721 154 l 721 0 l 93 0 m 407 -274 q 324 -251 353 -274 q 294 -186 294 -228 q 324 -120 294 -144 q 407 -97 353 -97 q 490 -120 460 -97 q 519 -186 519 -144 q 490 -251 519 -228 q 407 -274 460 -274 z "},"ǈ":{"ha":1067,"x_min":93,"x_max":1008,"o":"m 93 0 l 93 1028 l 271 1028 l 271 154 l 721 154 l 721 0 l 93 0 m 698 -249 q 784 -79 759 -162 q 808 121 808 4 l 808 758 l 984 758 l 984 129 q 945 -111 984 -6 q 814 -326 906 -217 l 698 -249 m 896 888 q 812 914 840 888 q 783 988 783 940 q 812 1061 783 1035 q 896 1087 840 1087 q 980 1061 951 1087 q 1008 988 1008 1035 q 980 914 1008 940 q 896 888 951 888 z "},"Ḻ":{"ha":726,"x_min":93,"x_max":721,"o":"m 93 0 l 93 1028 l 271 1028 l 271 154 l 721 154 l 721 0 l 93 0 m 177 -238 l 177 -126 l 636 -126 l 636 -238 l 177 -238 z "},"Ł":{"ha":726,"x_min":-28,"x_max":721,"o":"m 271 154 l 721 154 l 721 0 l 93 0 l 93 439 l 29 399 l -28 503 l 93 580 l 93 1028 l 271 1028 l 271 692 l 446 802 l 503 697 l 271 551 l 271 154 z "},"M":{"ha":1206,"x_min":96,"x_max":1109,"o":"m 893 1028 l 1109 1028 l 1109 0 l 943 0 l 943 778 l 676 147 l 529 147 l 262 764 l 262 0 l 96 0 l 96 1028 l 312 1028 l 606 335 l 893 1028 z "},"Ṃ":{"ha":1206,"x_min":96,"x_max":1109,"o":"m 893 1028 l 1109 1028 l 1109 0 l 943 0 l 943 778 l 676 147 l 529 147 l 262 764 l 262 0 l 96 0 l 96 1028 l 312 1028 l 606 335 l 893 1028 m 613 -274 q 530 -251 560 -274 q 501 -186 501 -228 q 530 -120 501 -144 q 613 -97 560 -97 q 696 -120 667 -97 q 725 -186 725 -144 q 696 -251 725 -228 q 613 -274 667 -274 z "},"N":{"ha":985,"x_min":93,"x_max":892,"o":"m 724 1028 l 892 1028 l 892 0 l 712 0 l 260 745 l 260 0 l 93 0 l 93 1028 l 273 1028 l 724 283 l 724 1028 z "},"Ǌ":{"ha":1349,"x_min":93,"x_max":1256,"o":"m 724 1028 l 892 1028 l 892 0 l 712 0 l 260 745 l 260 0 l 93 0 l 93 1028 l 273 1028 l 724 283 l 724 1028 m 968 -163 q 1054 6 1029 -77 q 1078 206 1078 89 l 1078 1028 l 1256 1028 l 1256 202 q 1215 -30 1253 73 q 1084 -240 1176 -133 l 968 -163 z "},"Ń":{"ha":985,"x_min":93,"x_max":892,"o":"m 724 1028 l 892 1028 l 892 0 l 712 0 l 260 745 l 260 0 l 93 0 l 93 1028 l 273 1028 l 724 283 l 724 1028 m 413 1111 l 527 1317 l 711 1317 l 570 1111 l 413 1111 z "},"Ň":{"ha":985,"x_min":93,"x_max":892,"o":"m 724 1028 l 892 1028 l 892 0 l 712 0 l 260 745 l 260 0 l 93 0 l 93 1028 l 273 1028 l 724 283 l 724 1028 m 592 1317 l 723 1317 l 568 1111 l 416 1111 l 262 1317 l 392 1317 l 492 1178 l 592 1317 z "},"Ņ":{"ha":985,"x_min":93,"x_max":892,"o":"m 724 1028 l 892 1028 l 892 0 l 712 0 l 260 745 l 260 0 l 93 0 l 93 1028 l 273 1028 l 724 283 l 724 1028 m 491 -97 q 594 -191 594 -97 q 581 -265 594 -225 q 546 -337 568 -306 l 436 -337 q 471 -237 465 -279 q 410 -215 431 -233 q 390 -167 390 -197 q 416 -116 390 -134 q 491 -97 441 -97 z "},"Ṅ":{"ha":985,"x_min":93,"x_max":892,"o":"m 724 1028 l 892 1028 l 892 0 l 712 0 l 260 745 l 260 0 l 93 0 l 93 1028 l 273 1028 l 724 283 l 724 1028 m 492 1128 q 409 1151 439 1128 q 380 1216 380 1174 q 409 1281 380 1258 q 492 1304 439 1304 q 575 1281 546 1304 q 604 1216 604 1258 q 575 1151 604 1174 q 492 1128 546 1128 z "},"Ṇ":{"ha":985,"x_min":93,"x_max":892,"o":"m 724 1028 l 892 1028 l 892 0 l 712 0 l 260 745 l 260 0 l 93 0 l 93 1028 l 273 1028 l 724 283 l 724 1028 m 492 -274 q 409 -251 439 -274 q 380 -186 380 -228 q 409 -120 380 -144 q 492 -97 439 -97 q 575 -120 546 -97 q 604 -186 604 -144 q 575 -251 604 -228 q 492 -274 546 -274 z "},"Ŋ":{"ha":985,"x_min":93,"x_max":892,"o":"m 892 1028 l 892 144 q 875 -32 892 47 q 821 -181 858 -110 q 722 -326 784 -252 l 606 -249 q 677 -129 651 -186 q 715 -6 703 -72 l 260 744 l 260 0 l 93 0 l 93 1028 l 273 1028 l 724 285 l 724 1028 l 892 1028 z "},"ǋ":{"ha":1326,"x_min":93,"x_max":1267,"o":"m 724 1028 l 892 1028 l 892 0 l 712 0 l 260 745 l 260 0 l 93 0 l 93 1028 l 273 1028 l 724 283 l 724 1028 m 957 -249 q 1043 -79 1018 -162 q 1067 121 1067 4 l 1067 758 l 1243 758 l 1243 129 q 1204 -111 1243 -6 q 1073 -326 1165 -217 l 957 -249 m 1155 888 q 1071 914 1099 888 q 1042 988 1042 940 q 1071 1061 1042 1035 q 1155 1087 1099 1087 q 1239 1061 1210 1087 q 1267 988 1267 1035 q 1239 914 1267 940 q 1155 888 1210 888 z "},"Ṉ":{"ha":985,"x_min":93,"x_max":892,"o":"m 724 1028 l 892 1028 l 892 0 l 712 0 l 260 745 l 260 0 l 93 0 l 93 1028 l 273 1028 l 724 283 l 724 1028 m 263 -238 l 263 -126 l 722 -126 l 722 -238 l 263 -238 z "},"Ñ":{"ha":985,"x_min":93,"x_max":892,"o":"m 724 1028 l 892 1028 l 892 0 l 712 0 l 260 745 l 260 0 l 93 0 l 93 1028 l 273 1028 l 724 283 l 724 1028 m 602 1136 q 544 1143 572 1136 q 481 1165 517 1151 q 425 1184 446 1178 q 380 1190 403 1190 q 313 1178 342 1190 q 254 1140 284 1166 l 254 1249 q 309 1286 278 1274 q 382 1298 340 1298 q 440 1291 413 1298 q 504 1269 467 1283 q 560 1250 539 1256 q 604 1244 581 1244 q 672 1256 642 1244 q 730 1294 701 1268 l 730 1184 q 675 1148 706 1160 q 602 1136 644 1136 z "},"O":{"ha":975,"x_min":58,"x_max":917,"o":"m 488 -13 q 172 116 285 -13 q 58 514 58 245 q 172 911 58 782 q 488 1041 285 1041 q 803 912 690 1041 q 917 514 917 783 q 803 116 917 246 q 488 -13 690 -13 m 488 135 q 672 222 608 135 q 735 510 735 309 q 672 804 735 715 q 488 893 608 893 q 304 806 367 893 q 241 518 241 718 q 304 223 241 312 q 488 135 367 135 z "},"Ó":{"ha":975,"x_min":58,"x_max":917,"o":"m 488 -13 q 172 116 285 -13 q 58 514 58 245 q 172 911 58 782 q 488 1041 285 1041 q 803 912 690 1041 q 917 514 917 783 q 803 116 917 246 q 488 -13 690 -13 m 488 135 q 672 222 608 135 q 735 510 735 309 q 672 804 735 715 q 488 893 608 893 q 304 806 367 893 q 241 518 241 718 q 304 223 241 312 q 488 135 367 135 m 408 1111 l 522 1317 l 706 1317 l 565 1111 l 408 1111 z "},"Ŏ":{"ha":975,"x_min":58,"x_max":917,"o":"m 488 -13 q 172 116 285 -13 q 58 514 58 245 q 172 911 58 782 q 488 1041 285 1041 q 803 912 690 1041 q 917 514 917 783 q 803 116 917 246 q 488 -13 690 -13 m 488 135 q 672 222 608 135 q 735 510 735 309 q 672 804 735 715 q 488 893 608 893 q 304 806 367 893 q 241 518 241 718 q 304 223 241 312 q 488 135 367 135 m 488 1115 q 323 1165 383 1115 q 255 1308 264 1215 l 365 1308 q 401 1230 372 1255 q 488 1206 431 1206 q 574 1230 545 1206 q 610 1308 603 1255 l 719 1308 q 651 1165 710 1215 q 488 1115 592 1115 z "},"Ô":{"ha":975,"x_min":58,"x_max":917,"o":"m 488 -13 q 172 116 285 -13 q 58 514 58 245 q 172 911 58 782 q 488 1041 285 1041 q 803 912 690 1041 q 917 514 917 783 q 803 116 917 246 q 488 -13 690 -13 m 488 135 q 672 222 608 135 q 735 510 735 309 q 672 804 735 715 q 488 893 608 893 q 304 806 367 893 q 241 518 241 718 q 304 223 241 312 q 488 135 367 135 m 718 1111 l 587 1111 l 488 1249 l 388 1111 l 257 1111 l 411 1317 l 563 1317 l 718 1111 z "},"Ố":{"ha":975,"x_min":58,"x_max":917,"o":"m 488 -13 q 172 116 285 -13 q 58 514 58 245 q 172 911 58 782 q 488 1041 285 1041 q 803 912 690 1041 q 917 514 917 783 q 803 116 917 246 q 488 -13 690 -13 m 488 135 q 672 222 608 135 q 735 510 735 309 q 672 804 735 715 q 488 893 608 893 q 304 806 367 893 q 241 518 241 718 q 304 223 241 312 q 488 135 367 135 m 728 1433 l 849 1433 l 740 1258 l 646 1258 l 728 1433 m 411 1300 l 563 1300 l 718 1111 l 587 1111 l 488 1240 l 388 1111 l 257 1111 l 411 1300 z "},"Ộ":{"ha":975,"x_min":58,"x_max":917,"o":"m 488 -13 q 172 116 285 -13 q 58 514 58 245 q 172 911 58 782 q 488 1041 285 1041 q 803 912 690 1041 q 917 514 917 783 q 803 116 917 246 q 488 -13 690 -13 m 488 135 q 672 222 608 135 q 735 510 735 309 q 672 804 735 715 q 488 893 608 893 q 304 806 367 893 q 241 518 241 718 q 304 223 241 312 q 488 135 367 135 m 488 -274 q 405 -251 434 -274 q 375 -186 375 -228 q 405 -120 375 -144 q 488 -97 434 -97 q 570 -120 541 -97 q 599 -186 599 -144 q 570 -251 599 -228 q 488 -274 541 -274 m 718 1111 l 587 1111 l 488 1249 l 388 1111 l 257 1111 l 411 1317 l 563 1317 l 718 1111 z "},"Ồ":{"ha":975,"x_min":58,"x_max":917,"o":"m 488 -13 q 172 116 285 -13 q 58 514 58 245 q 172 911 58 782 q 488 1041 285 1041 q 803 912 690 1041 q 917 514 917 783 q 803 116 917 246 q 488 -13 690 -13 m 488 135 q 672 222 608 135 q 735 510 735 309 q 672 804 735 715 q 488 893 608 893 q 304 806 367 893 q 241 518 241 718 q 304 223 241 312 q 488 135 367 135 m 762 1258 l 667 1258 l 558 1433 l 679 1433 l 762 1258 m 411 1300 l 563 1300 l 718 1111 l 587 1111 l 488 1240 l 388 1111 l 257 1111 l 411 1300 z "},"Ổ":{"ha":975,"x_min":58,"x_max":917,"o":"m 488 -13 q 172 116 285 -13 q 58 514 58 245 q 172 911 58 782 q 488 1041 285 1041 q 803 912 690 1041 q 917 514 917 783 q 803 116 917 246 q 488 -13 690 -13 m 488 135 q 672 222 608 135 q 735 510 735 309 q 672 804 735 715 q 488 893 608 893 q 304 806 367 893 q 241 518 241 718 q 304 223 241 312 q 488 135 367 135 m 694 1456 q 854 1375 854 1456 q 839 1336 854 1349 q 792 1306 823 1322 q 754 1284 767 1294 q 739 1258 741 1274 l 646 1258 q 666 1302 648 1287 q 716 1332 684 1317 q 746 1347 736 1340 q 756 1364 756 1354 q 738 1384 756 1378 q 681 1391 721 1391 q 552 1373 613 1391 l 552 1438 q 619 1451 580 1446 q 694 1456 659 1456 m 411 1300 l 563 1300 l 718 1111 l 587 1111 l 488 1240 l 388 1111 l 257 1111 l 411 1300 z "},"Ỗ":{"ha":975,"x_min":58,"x_max":917,"o":"m 488 -13 q 172 116 285 -13 q 58 514 58 245 q 172 911 58 782 q 488 1041 285 1041 q 803 912 690 1041 q 917 514 917 783 q 803 116 917 246 q 488 -13 690 -13 m 488 135 q 672 222 608 135 q 735 510 735 309 q 672 804 735 715 q 488 893 608 893 q 304 806 367 893 q 241 518 241 718 q 304 223 241 312 q 488 135 367 135 m 589 1411 q 654 1422 625 1411 q 718 1458 683 1433 l 718 1373 q 658 1340 689 1349 q 587 1330 628 1330 q 536 1336 560 1330 q 474 1355 512 1342 q 424 1371 442 1366 q 386 1376 405 1376 q 321 1365 350 1376 q 257 1328 292 1353 l 257 1414 q 316 1447 285 1438 q 388 1457 347 1457 q 441 1450 415 1457 q 500 1432 467 1444 q 551 1416 532 1421 q 589 1411 569 1411 m 411 1300 l 563 1300 l 718 1111 l 587 1111 l 488 1240 l 388 1111 l 257 1111 l 411 1300 z "},"Ȍ":{"ha":975,"x_min":58,"x_max":917,"o":"m 488 -13 q 172 116 285 -13 q 58 514 58 245 q 172 911 58 782 q 488 1041 285 1041 q 803 912 690 1041 q 917 514 917 783 q 803 116 917 246 q 488 -13 690 -13 m 488 135 q 672 222 608 135 q 735 510 735 309 q 672 804 735 715 q 488 893 608 893 q 304 806 367 893 q 241 518 241 718 q 304 223 241 312 q 488 135 367 135 m 293 1111 l 201 1317 l 344 1317 l 426 1111 l 293 1111 m 548 1111 l 456 1317 l 599 1317 l 681 1111 l 548 1111 z "},"Ö":{"ha":975,"x_min":58,"x_max":917,"o":"m 488 -13 q 172 116 285 -13 q 58 514 58 245 q 172 911 58 782 q 488 1041 285 1041 q 803 912 690 1041 q 917 514 917 783 q 803 116 917 246 q 488 -13 690 -13 m 488 135 q 672 222 608 135 q 735 510 735 309 q 672 804 735 715 q 488 893 608 893 q 304 806 367 893 q 241 518 241 718 q 304 223 241 312 q 488 135 367 135 m 324 1128 q 250 1151 276 1128 q 224 1216 224 1174 q 250 1281 224 1258 q 324 1304 276 1304 q 399 1281 372 1304 q 425 1216 425 1258 q 399 1151 425 1174 q 324 1128 372 1128 m 650 1128 q 576 1151 602 1128 q 549 1216 549 1174 q 576 1281 549 1258 q 650 1304 602 1304 q 724 1281 698 1304 q 750 1216 750 1258 q 724 1151 750 1174 q 650 1128 698 1128 z "},"Ȫ":{"ha":975,"x_min":58,"x_max":917,"o":"m 488 -13 q 172 116 285 -13 q 58 514 58 245 q 172 911 58 782 q 488 1041 285 1041 q 803 912 690 1041 q 917 514 917 783 q 803 116 917 246 q 488 -13 690 -13 m 488 135 q 672 222 608 135 q 735 510 735 309 q 672 804 735 715 q 488 893 608 893 q 304 806 367 893 q 241 518 241 718 q 304 223 241 312 q 488 135 367 135 m 324 1128 q 250 1151 276 1128 q 224 1216 224 1174 q 250 1281 224 1258 q 324 1304 276 1304 q 399 1281 372 1304 q 425 1216 425 1258 q 399 1151 425 1174 q 324 1128 372 1128 m 650 1128 q 576 1151 602 1128 q 549 1216 549 1174 q 576 1281 549 1258 q 650 1304 602 1304 q 724 1281 698 1304 q 750 1216 750 1258 q 724 1151 750 1174 q 650 1128 698 1128 m 258 1382 l 258 1494 l 717 1494 l 717 1382 l 258 1382 z "},"Ȱ":{"ha":975,"x_min":58,"x_max":917,"o":"m 488 -13 q 172 116 285 -13 q 58 514 58 245 q 172 911 58 782 q 488 1041 285 1041 q 803 912 690 1041 q 917 514 917 783 q 803 116 917 246 q 488 -13 690 -13 m 488 135 q 672 222 608 135 q 735 510 735 309 q 672 804 735 715 q 488 893 608 893 q 304 806 367 893 q 241 518 241 718 q 304 223 241 312 q 488 135 367 135 m 488 1128 q 405 1151 434 1128 q 375 1216 375 1174 q 405 1281 375 1258 q 488 1304 434 1304 q 570 1281 541 1304 q 599 1216 599 1258 q 570 1151 599 1174 q 488 1128 541 1128 m 258 1382 l 258 1494 l 717 1494 l 717 1382 l 258 1382 z "},"Ọ":{"ha":975,"x_min":58,"x_max":917,"o":"m 488 -13 q 172 116 285 -13 q 58 514 58 245 q 172 911 58 782 q 488 1041 285 1041 q 803 912 690 1041 q 917 514 917 783 q 803 116 917 246 q 488 -13 690 -13 m 488 135 q 672 222 608 135 q 735 510 735 309 q 672 804 735 715 q 488 893 608 893 q 304 806 367 893 q 241 518 241 718 q 304 223 241 312 q 488 135 367 135 m 488 -274 q 405 -251 434 -274 q 375 -186 375 -228 q 405 -120 375 -144 q 488 -97 434 -97 q 570 -120 541 -97 q 599 -186 599 -144 q 570 -251 599 -228 q 488 -274 541 -274 z "},"Ò":{"ha":975,"x_min":58,"x_max":917,"o":"m 488 -13 q 172 116 285 -13 q 58 514 58 245 q 172 911 58 782 q 488 1041 285 1041 q 803 912 690 1041 q 917 514 917 783 q 803 116 917 246 q 488 -13 690 -13 m 488 135 q 672 222 608 135 q 735 510 735 309 q 672 804 735 715 q 488 893 608 893 q 304 806 367 893 q 241 518 241 718 q 304 223 241 312 q 488 135 367 135 m 409 1111 l 268 1317 l 452 1317 l 565 1111 l 409 1111 z "},"Ỏ":{"ha":975,"x_min":58,"x_max":917,"o":"m 488 -13 q 172 116 285 -13 q 58 514 58 245 q 172 911 58 782 q 488 1041 285 1041 q 803 912 690 1041 q 917 514 917 783 q 803 116 917 246 q 488 -13 690 -13 m 488 135 q 672 222 608 135 q 735 510 735 309 q 672 804 735 715 q 488 893 608 893 q 304 806 367 893 q 241 518 241 718 q 304 223 241 312 q 488 135 367 135 m 440 1111 q 452 1148 442 1133 q 476 1172 463 1163 q 512 1191 490 1181 q 542 1208 533 1201 q 551 1225 551 1215 q 533 1247 551 1240 q 476 1254 515 1254 q 347 1235 410 1254 l 347 1308 q 414 1322 374 1317 q 489 1327 453 1327 q 649 1238 649 1327 q 633 1195 649 1211 q 587 1164 617 1180 q 549 1140 562 1151 q 534 1111 536 1128 l 440 1111 z "},"Ơ":{"ha":975,"x_min":58,"x_max":925,"o":"m 776 941 q 917 514 917 813 q 804 116 917 245 q 488 -13 690 -13 q 171 116 285 -13 q 58 514 58 245 q 172 911 58 782 q 488 1041 285 1041 q 541 1039 513 1041 q 592 1033 568 1036 q 678 1026 649 1026 q 768 1052 737 1026 q 799 1135 799 1078 q 786 1233 799 1177 l 910 1233 q 925 1127 925 1185 q 885 1001 925 1047 q 776 941 846 954 m 488 135 q 672 222 608 135 q 735 510 735 309 q 672 804 735 715 q 488 893 608 893 q 304 806 367 893 q 241 518 241 718 q 304 223 241 312 q 488 135 367 135 z "},"Ớ":{"ha":975,"x_min":58,"x_max":925,"o":"m 776 941 q 917 514 917 813 q 804 116 917 245 q 488 -13 690 -13 q 171 116 285 -13 q 58 514 58 245 q 172 911 58 782 q 488 1041 285 1041 q 541 1039 513 1041 q 592 1033 568 1036 q 678 1026 649 1026 q 768 1052 737 1026 q 799 1135 799 1078 q 786 1233 799 1177 l 910 1233 q 925 1127 925 1185 q 885 1001 925 1047 q 776 941 846 954 m 488 135 q 672 222 608 135 q 735 510 735 309 q 672 804 735 715 q 488 893 608 893 q 304 806 367 893 q 241 518 241 718 q 304 223 241 312 q 488 135 367 135 m 408 1111 l 522 1317 l 706 1317 l 565 1111 l 408 1111 z "},"Ợ":{"ha":975,"x_min":58,"x_max":925,"o":"m 776 941 q 917 514 917 813 q 804 116 917 245 q 488 -13 690 -13 q 171 116 285 -13 q 58 514 58 245 q 172 911 58 782 q 488 1041 285 1041 q 541 1039 513 1041 q 592 1033 568 1036 q 678 1026 649 1026 q 768 1052 737 1026 q 799 1135 799 1078 q 786 1233 799 1177 l 910 1233 q 925 1127 925 1185 q 885 1001 925 1047 q 776 941 846 954 m 488 135 q 672 222 608 135 q 735 510 735 309 q 672 804 735 715 q 488 893 608 893 q 304 806 367 893 q 241 518 241 718 q 304 223 241 312 q 488 135 367 135 m 488 -274 q 405 -251 434 -274 q 375 -186 375 -228 q 405 -120 375 -144 q 488 -97 434 -97 q 570 -120 541 -97 q 599 -186 599 -144 q 570 -251 599 -228 q 488 -274 541 -274 z "},"Ờ":{"ha":975,"x_min":58,"x_max":925,"o":"m 776 941 q 917 514 917 813 q 804 116 917 245 q 488 -13 690 -13 q 171 116 285 -13 q 58 514 58 245 q 172 911 58 782 q 488 1041 285 1041 q 541 1039 513 1041 q 592 1033 568 1036 q 678 1026 649 1026 q 768 1052 737 1026 q 799 1135 799 1078 q 786 1233 799 1177 l 910 1233 q 925 1127 925 1185 q 885 1001 925 1047 q 776 941 846 954 m 488 135 q 672 222 608 135 q 735 510 735 309 q 672 804 735 715 q 488 893 608 893 q 304 806 367 893 q 241 518 241 718 q 304 223 241 312 q 488 135 367 135 m 409 1111 l 268 1317 l 452 1317 l 565 1111 l 409 1111 z "},"Ở":{"ha":975,"x_min":58,"x_max":925,"o":"m 776 941 q 917 514 917 813 q 804 116 917 245 q 488 -13 690 -13 q 171 116 285 -13 q 58 514 58 245 q 172 911 58 782 q 488 1041 285 1041 q 541 1039 513 1041 q 592 1033 568 1036 q 678 1026 649 1026 q 768 1052 737 1026 q 799 1135 799 1078 q 786 1233 799 1177 l 910 1233 q 925 1127 925 1185 q 885 1001 925 1047 q 776 941 846 954 m 488 135 q 672 222 608 135 q 735 510 735 309 q 672 804 735 715 q 488 893 608 893 q 304 806 367 893 q 241 518 241 718 q 304 223 241 312 q 488 135 367 135 m 440 1111 q 452 1148 442 1133 q 476 1172 463 1163 q 512 1191 490 1181 q 542 1208 533 1201 q 551 1225 551 1215 q 533 1247 551 1240 q 476 1254 515 1254 q 347 1235 410 1254 l 347 1308 q 414 1322 374 1317 q 489 1327 453 1327 q 649 1238 649 1327 q 633 1195 649 1211 q 587 1164 617 1180 q 549 1140 562 1151 q 534 1111 536 1128 l 440 1111 z "},"Ỡ":{"ha":975,"x_min":58,"x_max":925,"o":"m 593 1136 q 537 1143 563 1136 q 476 1165 511 1151 q 423 1184 443 1178 q 381 1190 403 1190 q 317 1178 344 1190 q 261 1140 290 1166 l 261 1249 q 313 1286 284 1274 q 383 1298 342 1298 q 438 1291 412 1298 q 499 1269 464 1283 q 552 1250 532 1256 q 594 1244 572 1244 q 658 1256 631 1244 q 714 1294 686 1268 l 714 1184 q 662 1148 692 1160 q 593 1136 633 1136 m 776 941 q 917 514 917 813 q 804 116 917 245 q 488 -13 690 -13 q 171 116 285 -13 q 58 514 58 245 q 172 911 58 782 q 488 1041 285 1041 q 541 1039 513 1041 q 592 1033 568 1036 q 678 1026 649 1026 q 768 1052 737 1026 q 799 1135 799 1078 q 786 1233 799 1177 l 910 1233 q 925 1127 925 1185 q 885 1001 925 1047 q 776 941 846 954 m 488 135 q 672 222 608 135 q 735 510 735 309 q 672 804 735 715 q 488 893 608 893 q 304 806 367 893 q 241 518 241 718 q 304 223 241 312 q 488 135 367 135 z "},"Ő":{"ha":975,"x_min":58,"x_max":917,"o":"m 488 -13 q 172 116 285 -13 q 58 514 58 245 q 172 911 58 782 q 488 1041 285 1041 q 803 912 690 1041 q 917 514 917 783 q 803 116 917 246 q 488 -13 690 -13 m 488 135 q 672 222 608 135 q 735 510 735 309 q 672 804 735 715 q 488 893 608 893 q 304 806 367 893 q 241 518 241 718 q 304 223 241 312 q 488 135 367 135 m 293 1111 l 376 1317 l 519 1317 l 426 1111 l 293 1111 m 548 1111 l 631 1317 l 774 1317 l 681 1111 l 548 1111 z "},"Ȏ":{"ha":975,"x_min":58,"x_max":917,"o":"m 488 -13 q 172 116 285 -13 q 58 514 58 245 q 172 911 58 782 q 488 1041 285 1041 q 803 912 690 1041 q 917 514 917 783 q 803 116 917 246 q 488 -13 690 -13 m 488 135 q 672 222 608 135 q 735 510 735 309 q 672 804 735 715 q 488 893 608 893 q 304 806 367 893 q 241 518 241 718 q 304 223 241 312 q 488 135 367 135 m 255 1119 q 323 1263 264 1213 q 487 1313 382 1313 q 651 1262 592 1313 q 719 1119 710 1212 l 610 1119 q 573 1197 602 1172 q 487 1222 544 1222 q 400 1197 429 1222 q 365 1119 372 1172 l 255 1119 z "},"Ō":{"ha":975,"x_min":58,"x_max":917,"o":"m 488 -13 q 172 116 285 -13 q 58 514 58 245 q 172 911 58 782 q 488 1041 285 1041 q 803 912 690 1041 q 917 514 917 783 q 803 116 917 246 q 488 -13 690 -13 m 488 135 q 672 222 608 135 q 735 510 735 309 q 672 804 735 715 q 488 893 608 893 q 304 806 367 893 q 241 518 241 718 q 304 223 241 312 q 488 135 367 135 m 258 1158 l 258 1270 l 717 1270 l 717 1158 l 258 1158 z "},"Ṓ":{"ha":975,"x_min":58,"x_max":917,"o":"m 488 -13 q 172 116 285 -13 q 58 514 58 245 q 172 911 58 782 q 488 1041 285 1041 q 803 912 690 1041 q 917 514 917 783 q 803 116 917 246 q 488 -13 690 -13 m 488 135 q 672 222 608 135 q 735 510 735 309 q 672 804 735 715 q 488 893 608 893 q 304 806 367 893 q 241 518 241 718 q 304 223 241 312 q 488 135 367 135 m 401 1347 l 515 1508 l 714 1508 l 574 1347 l 401 1347 m 258 1158 l 258 1270 l 717 1270 l 717 1158 l 258 1158 z "},"Ṑ":{"ha":975,"x_min":58,"x_max":917,"o":"m 488 -13 q 172 116 285 -13 q 58 514 58 245 q 172 911 58 782 q 488 1041 285 1041 q 803 912 690 1041 q 917 514 917 783 q 803 116 917 246 q 488 -13 690 -13 m 488 135 q 672 222 608 135 q 735 510 735 309 q 672 804 735 715 q 488 893 608 893 q 304 806 367 893 q 241 518 241 718 q 304 223 241 312 q 488 135 367 135 m 401 1347 l 260 1508 l 460 1508 l 574 1347 l 401 1347 m 258 1158 l 258 1270 l 717 1270 l 717 1158 l 258 1158 z "},"Ǫ":{"ha":975,"x_min":58,"x_max":917,"o":"m 647 10 q 511 -64 552 -23 q 470 -152 470 -105 q 566 -224 470 -224 q 666 -202 611 -224 l 666 -277 q 545 -301 609 -301 q 412 -265 458 -301 q 366 -163 366 -228 q 388 -81 366 -118 q 458 -12 410 -44 q 163 125 269 -4 q 58 514 58 255 q 172 911 58 782 q 488 1041 285 1041 q 803 912 690 1041 q 917 514 917 783 q 844 176 917 298 q 647 10 772 54 m 241 518 q 304 223 241 312 q 488 135 367 135 q 672 222 608 135 q 735 510 735 309 q 672 804 735 715 q 488 893 608 893 q 304 806 367 893 q 241 518 241 718 z "},"Ø":{"ha":975,"x_min":58,"x_max":917,"o":"m 816 896 q 917 514 917 762 q 803 116 917 246 q 488 -13 690 -13 q 231 60 333 -13 l 169 -28 l 88 29 l 159 131 q 58 514 58 265 q 172 911 58 782 q 488 1041 285 1041 q 744 967 642 1041 l 807 1056 l 888 999 l 816 896 m 241 518 q 271 291 241 378 l 649 831 q 488 893 592 893 q 304 806 367 893 q 241 518 241 718 m 488 135 q 672 222 608 135 q 735 510 735 309 q 704 736 735 651 l 326 196 q 488 135 385 135 z "},"Ǿ":{"ha":975,"x_min":58,"x_max":917,"o":"m 816 896 q 917 514 917 762 q 803 116 917 246 q 488 -13 690 -13 q 231 60 333 -13 l 169 -28 l 88 29 l 159 131 q 58 514 58 265 q 172 911 58 782 q 488 1041 285 1041 q 744 967 642 1041 l 807 1056 l 888 999 l 816 896 m 241 518 q 271 291 241 378 l 649 831 q 488 893 592 893 q 304 806 367 893 q 241 518 241 718 m 488 135 q 672 222 608 135 q 735 510 735 309 q 704 736 735 651 l 326 196 q 488 135 385 135 m 408 1111 l 522 1317 l 706 1317 l 565 1111 l 408 1111 z "},"Õ":{"ha":975,"x_min":58,"x_max":917,"o":"m 488 -13 q 172 116 285 -13 q 58 514 58 245 q 172 911 58 782 q 488 1041 285 1041 q 803 912 690 1041 q 917 514 917 783 q 803 116 917 246 q 488 -13 690 -13 m 488 135 q 672 222 608 135 q 735 510 735 309 q 672 804 735 715 q 488 893 608 893 q 304 806 367 893 q 241 518 241 718 q 304 223 241 312 q 488 135 367 135 m 597 1136 q 540 1143 567 1136 q 476 1165 513 1151 q 420 1184 441 1178 q 375 1190 399 1190 q 308 1178 338 1190 q 249 1140 279 1166 l 249 1249 q 305 1286 274 1274 q 377 1298 335 1298 q 435 1291 408 1298 q 499 1269 463 1283 q 555 1250 534 1256 q 599 1244 576 1244 q 667 1256 638 1244 q 725 1294 696 1268 l 725 1184 q 670 1148 701 1160 q 597 1136 639 1136 z "},"Ṍ":{"ha":975,"x_min":58,"x_max":917,"o":"m 488 -13 q 172 116 285 -13 q 58 514 58 245 q 172 911 58 782 q 488 1041 285 1041 q 803 912 690 1041 q 917 514 917 783 q 803 116 917 246 q 488 -13 690 -13 m 488 135 q 672 222 608 135 q 735 510 735 309 q 672 804 735 715 q 488 893 608 893 q 304 806 367 893 q 241 518 241 718 q 304 223 241 312 q 488 135 367 135 m 401 1347 l 515 1508 l 714 1508 l 574 1347 l 401 1347 m 597 1136 q 540 1143 567 1136 q 476 1165 513 1151 q 420 1184 441 1178 q 375 1190 399 1190 q 308 1178 338 1190 q 249 1140 279 1166 l 249 1249 q 305 1286 274 1274 q 377 1298 335 1298 q 435 1291 408 1298 q 499 1269 463 1283 q 555 1250 534 1256 q 599 1244 576 1244 q 667 1256 638 1244 q 725 1294 696 1268 l 725 1184 q 670 1148 701 1160 q 597 1136 639 1136 z "},"Ṏ":{"ha":975,"x_min":58,"x_max":917,"o":"m 488 -13 q 172 116 285 -13 q 58 514 58 245 q 172 911 58 782 q 488 1041 285 1041 q 803 912 690 1041 q 917 514 917 783 q 803 116 917 246 q 488 -13 690 -13 m 488 135 q 672 222 608 135 q 735 510 735 309 q 672 804 735 715 q 488 893 608 893 q 304 806 367 893 q 241 518 241 718 q 304 223 241 312 q 488 135 367 135 m 597 1136 q 540 1143 567 1136 q 476 1165 513 1151 q 420 1184 441 1178 q 375 1190 399 1190 q 308 1178 338 1190 q 249 1140 279 1166 l 249 1249 q 305 1286 274 1274 q 377 1298 335 1298 q 435 1291 408 1298 q 499 1269 463 1283 q 555 1250 534 1256 q 599 1244 576 1244 q 667 1256 638 1244 q 725 1294 696 1268 l 725 1184 q 670 1148 701 1160 q 597 1136 639 1136 m 324 1351 q 250 1375 276 1351 q 224 1440 224 1398 q 250 1505 224 1481 q 324 1528 276 1528 q 399 1505 372 1528 q 425 1440 425 1481 q 399 1375 425 1398 q 324 1351 372 1351 m 650 1351 q 576 1375 602 1351 q 549 1440 549 1398 q 576 1505 549 1481 q 650 1528 602 1528 q 724 1505 698 1528 q 750 1440 750 1481 q 724 1375 750 1398 q 650 1351 698 1351 z "},"Ȭ":{"ha":975,"x_min":58,"x_max":917,"o":"m 488 -13 q 172 116 285 -13 q 58 514 58 245 q 172 911 58 782 q 488 1041 285 1041 q 803 912 690 1041 q 917 514 917 783 q 803 116 917 246 q 488 -13 690 -13 m 488 135 q 672 222 608 135 q 735 510 735 309 q 672 804 735 715 q 488 893 608 893 q 304 806 367 893 q 241 518 241 718 q 304 223 241 312 q 488 135 367 135 m 597 1136 q 540 1143 567 1136 q 476 1165 513 1151 q 420 1184 441 1178 q 375 1190 399 1190 q 308 1178 338 1190 q 249 1140 279 1166 l 249 1249 q 305 1286 274 1274 q 377 1298 335 1298 q 435 1291 408 1298 q 499 1269 463 1283 q 555 1250 534 1256 q 599 1244 576 1244 q 667 1256 638 1244 q 725 1294 696 1268 l 725 1184 q 670 1148 701 1160 q 597 1136 639 1136 m 258 1382 l 258 1494 l 717 1494 l 717 1382 l 258 1382 z "},"Œ":{"ha":1335,"x_min":58,"x_max":1294,"o":"m 1294 149 l 1294 0 l 780 0 q 731 -1 760 0 q 688 -3 702 -3 q 580 -8 617 -8 q 188 119 318 -8 q 58 514 58 246 q 190 907 58 778 q 577 1036 322 1036 q 686 1032 617 1036 q 777 1028 750 1028 l 1287 1028 l 1287 878 l 836 878 l 836 601 l 1218 601 l 1218 451 l 836 451 l 836 149 l 1294 149 m 660 882 q 547 888 607 888 q 376 850 444 888 q 274 730 308 812 q 240 514 240 647 q 275 298 240 380 q 379 178 310 215 q 552 141 448 141 q 660 145 618 141 l 660 882 z "},"P":{"ha":844,"x_min":93,"x_max":794,"o":"m 93 1011 q 369 1040 234 1040 q 688 951 582 1040 q 794 676 794 863 q 688 404 794 497 q 373 312 582 312 q 271 316 342 312 l 271 0 l 93 0 l 93 1011 m 376 453 q 561 506 502 453 q 619 673 619 558 q 562 845 619 791 q 385 899 505 899 q 271 890 322 899 l 271 460 q 376 453 315 453 z "},"Þ":{"ha":851,"x_min":93,"x_max":794,"o":"m 93 1028 l 271 1028 l 271 885 q 372 892 330 892 q 689 803 583 892 q 794 528 794 715 q 688 256 794 348 q 374 164 583 164 q 271 168 342 164 l 271 0 l 93 0 l 93 1028 m 376 306 q 561 358 502 306 q 619 526 619 410 q 562 697 619 643 q 385 751 505 751 q 271 742 322 751 l 271 312 q 376 306 315 306 z "},"Q":{"ha":975,"x_min":58,"x_max":917,"o":"m 917 514 q 836 167 917 296 q 598 10 755 38 q 902 -50 735 -31 l 871 -194 q 384 -59 561 -147 q 132 167 207 29 q 58 513 58 304 q 172 911 58 782 q 488 1041 285 1041 q 803 912 690 1041 q 917 514 917 783 m 241 518 q 270 293 241 378 q 353 172 299 208 q 488 135 408 135 q 672 222 608 135 q 735 510 735 309 q 672 804 735 715 q 488 893 608 893 q 304 806 367 893 q 241 518 241 718 z "},"R":{"ha":888,"x_min":93,"x_max":871,"o":"m 678 0 l 408 395 q 378 394 399 394 q 329 395 354 394 q 293 397 304 397 q 268 398 276 398 l 268 0 l 93 0 l 93 1010 q 378 1040 238 1040 q 689 960 586 1040 q 791 719 791 881 q 737 532 792 607 q 578 423 682 457 l 871 0 l 678 0 m 268 538 q 378 533 324 533 q 563 577 504 533 q 622 718 622 622 q 568 858 622 814 q 397 902 513 902 q 268 892 334 902 l 268 538 z "},"Ŕ":{"ha":888,"x_min":93,"x_max":871,"o":"m 678 0 l 408 395 q 378 394 399 394 q 329 395 354 394 q 293 397 304 397 q 268 398 276 398 l 268 0 l 93 0 l 93 1010 q 378 1040 238 1040 q 689 960 586 1040 q 791 719 791 881 q 737 532 792 607 q 578 423 682 457 l 871 0 l 678 0 m 268 538 q 378 533 324 533 q 563 577 504 533 q 622 718 622 622 q 568 858 622 814 q 397 902 513 902 q 268 892 334 902 l 268 538 m 351 1111 l 465 1317 l 649 1317 l 508 1111 l 351 1111 z "},"Ř":{"ha":888,"x_min":93,"x_max":871,"o":"m 678 0 l 408 395 q 378 394 399 394 q 329 395 354 394 q 293 397 304 397 q 268 398 276 398 l 268 0 l 93 0 l 93 1010 q 378 1040 238 1040 q 689 960 586 1040 q 791 719 791 881 q 737 532 792 607 q 578 423 682 457 l 871 0 l 678 0 m 268 538 q 378 533 324 533 q 563 577 504 533 q 622 718 622 622 q 568 858 622 814 q 397 902 513 902 q 268 892 334 902 l 268 538 m 529 1317 l 660 1317 l 506 1111 l 353 1111 l 199 1317 l 330 1317 l 430 1178 l 529 1317 z "},"Ŗ":{"ha":888,"x_min":93,"x_max":871,"o":"m 678 0 l 408 395 q 378 394 399 394 q 329 395 354 394 q 293 397 304 397 q 268 398 276 398 l 268 0 l 93 0 l 93 1010 q 378 1040 238 1040 q 689 960 586 1040 q 791 719 791 881 q 737 532 792 607 q 578 423 682 457 l 871 0 l 678 0 m 268 538 q 378 533 324 533 q 563 577 504 533 q 622 718 622 622 q 568 858 622 814 q 397 902 513 902 q 268 892 334 902 l 268 538 m 468 -97 q 572 -191 572 -97 q 558 -265 572 -225 q 523 -337 545 -306 l 413 -337 q 448 -237 442 -279 q 388 -215 408 -233 q 367 -167 367 -197 q 393 -116 367 -134 q 468 -97 418 -97 z "},"Ȑ":{"ha":888,"x_min":93,"x_max":871,"o":"m 678 0 l 408 395 q 378 394 399 394 q 329 395 354 394 q 293 397 304 397 q 268 398 276 398 l 268 0 l 93 0 l 93 1010 q 378 1040 238 1040 q 689 960 586 1040 q 791 719 791 881 q 737 532 792 607 q 578 423 682 457 l 871 0 l 678 0 m 268 538 q 378 533 324 533 q 563 577 504 533 q 622 718 622 622 q 568 858 622 814 q 397 902 513 902 q 268 892 334 902 l 268 538 m 235 1111 l 143 1317 l 286 1317 l 369 1111 l 235 1111 m 490 1111 l 398 1317 l 541 1317 l 624 1111 l 490 1111 z "},"Ṛ":{"ha":888,"x_min":93,"x_max":871,"o":"m 678 0 l 408 395 q 378 394 399 394 q 329 395 354 394 q 293 397 304 397 q 268 398 276 398 l 268 0 l 93 0 l 93 1010 q 378 1040 238 1040 q 689 960 586 1040 q 791 719 791 881 q 737 532 792 607 q 578 423 682 457 l 871 0 l 678 0 m 268 538 q 378 533 324 533 q 563 577 504 533 q 622 718 622 622 q 568 858 622 814 q 397 902 513 902 q 268 892 334 902 l 268 538 m 469 -274 q 386 -251 416 -274 q 357 -186 357 -228 q 386 -120 357 -144 q 469 -97 416 -97 q 552 -120 523 -97 q 581 -186 581 -144 q 552 -251 581 -228 q 469 -274 523 -274 z "},"Ȓ":{"ha":888,"x_min":93,"x_max":871,"o":"m 678 0 l 408 395 q 378 394 399 394 q 329 395 354 394 q 293 397 304 397 q 268 398 276 398 l 268 0 l 93 0 l 93 1010 q 378 1040 238 1040 q 689 960 586 1040 q 791 719 791 881 q 737 532 792 607 q 578 423 682 457 l 871 0 l 678 0 m 268 538 q 378 533 324 533 q 563 577 504 533 q 622 718 622 622 q 568 858 622 814 q 397 902 513 902 q 268 892 334 902 l 268 538 m 197 1119 q 265 1263 206 1213 q 429 1313 324 1313 q 593 1262 534 1313 q 662 1119 653 1212 l 552 1119 q 516 1197 544 1172 q 429 1222 487 1222 q 343 1197 372 1222 q 307 1119 314 1172 l 197 1119 z "},"Ṟ":{"ha":888,"x_min":93,"x_max":871,"o":"m 678 0 l 408 395 q 378 394 399 394 q 329 395 354 394 q 293 397 304 397 q 268 398 276 398 l 268 0 l 93 0 l 93 1010 q 378 1040 238 1040 q 689 960 586 1040 q 791 719 791 881 q 737 532 792 607 q 578 423 682 457 l 871 0 l 678 0 m 268 538 q 378 533 324 533 q 563 577 504 533 q 622 718 622 622 q 568 858 622 814 q 397 902 513 902 q 268 892 334 902 l 268 538 m 240 -238 l 240 -126 l 699 -126 l 699 -238 l 240 -238 z "},"S":{"ha":725,"x_min":35,"x_max":689,"o":"m 312 -13 q 181 -3 248 -13 q 58 28 114 8 l 58 177 q 184 146 118 157 q 310 135 250 135 q 510 279 510 135 q 495 346 510 319 q 445 393 480 373 q 349 431 411 413 l 283 451 q 99 557 162 486 q 35 740 35 628 q 79 901 35 834 q 208 1005 122 969 q 421 1041 294 1041 q 538 1034 481 1041 q 640 1013 595 1026 l 640 863 q 433 892 547 892 q 267 856 319 892 q 215 751 215 819 q 228 687 215 713 q 273 642 242 661 q 361 606 305 623 l 426 587 q 624 478 559 549 q 689 293 689 408 q 644 129 689 198 q 515 23 600 60 q 312 -13 431 -13 z "},"Ś":{"ha":725,"x_min":35,"x_max":689,"o":"m 312 -13 q 181 -3 248 -13 q 58 28 114 8 l 58 177 q 184 146 118 157 q 310 135 250 135 q 510 279 510 135 q 495 346 510 319 q 445 393 480 373 q 349 431 411 413 l 283 451 q 99 557 162 486 q 35 740 35 628 q 79 901 35 834 q 208 1005 122 969 q 421 1041 294 1041 q 538 1034 481 1041 q 640 1013 595 1026 l 640 863 q 433 892 547 892 q 267 856 319 892 q 215 751 215 819 q 228 687 215 713 q 273 642 242 661 q 361 606 305 623 l 426 587 q 624 478 559 549 q 689 293 689 408 q 644 129 689 198 q 515 23 600 60 q 312 -13 431 -13 m 290 1111 l 404 1317 l 588 1317 l 447 1111 l 290 1111 z "},"Ṥ":{"ha":725,"x_min":35,"x_max":689,"o":"m 312 -13 q 181 -3 248 -13 q 58 28 114 8 l 58 177 q 184 146 118 157 q 310 135 250 135 q 510 279 510 135 q 495 346 510 319 q 445 393 480 373 q 349 431 411 413 l 283 451 q 99 557 162 486 q 35 740 35 628 q 79 901 35 834 q 208 1005 122 969 q 421 1041 294 1041 q 538 1034 481 1041 q 640 1013 595 1026 l 640 863 q 433 892 547 892 q 267 856 319 892 q 215 751 215 819 q 228 687 215 713 q 273 642 242 661 q 361 606 305 623 l 426 587 q 624 478 559 549 q 689 293 689 408 q 644 129 689 198 q 515 23 600 60 q 312 -13 431 -13 m 242 1289 q 174 1308 198 1289 q 149 1363 149 1327 q 174 1418 149 1399 q 242 1438 199 1438 q 311 1418 287 1438 q 335 1363 335 1399 q 311 1308 335 1327 q 242 1289 287 1289 m 290 1111 l 404 1317 l 588 1317 l 447 1111 l 290 1111 z "},"Š":{"ha":725,"x_min":35,"x_max":689,"o":"m 312 -13 q 181 -3 248 -13 q 58 28 114 8 l 58 177 q 184 146 118 157 q 310 135 250 135 q 510 279 510 135 q 495 346 510 319 q 445 393 480 373 q 349 431 411 413 l 283 451 q 99 557 162 486 q 35 740 35 628 q 79 901 35 834 q 208 1005 122 969 q 421 1041 294 1041 q 538 1034 481 1041 q 640 1013 595 1026 l 640 863 q 433 892 547 892 q 267 856 319 892 q 215 751 215 819 q 228 687 215 713 q 273 642 242 661 q 361 606 305 623 l 426 587 q 624 478 559 549 q 689 293 689 408 q 644 129 689 198 q 515 23 600 60 q 312 -13 431 -13 m 469 1317 l 600 1317 l 445 1111 l 293 1111 l 139 1317 l 269 1317 l 369 1178 l 469 1317 z "},"Ṧ":{"ha":725,"x_min":35,"x_max":689,"o":"m 312 -13 q 181 -3 248 -13 q 58 28 114 8 l 58 177 q 184 146 118 157 q 310 135 250 135 q 510 279 510 135 q 495 346 510 319 q 445 393 480 373 q 349 431 411 413 l 283 451 q 99 557 162 486 q 35 740 35 628 q 79 901 35 834 q 208 1005 122 969 q 421 1041 294 1041 q 538 1034 481 1041 q 640 1013 595 1026 l 640 863 q 433 892 547 892 q 267 856 319 892 q 215 751 215 819 q 228 687 215 713 q 273 642 242 661 q 361 606 305 623 l 426 587 q 624 478 559 549 q 689 293 689 408 q 644 129 689 198 q 515 23 600 60 q 312 -13 431 -13 m 369 1332 q 300 1351 325 1332 q 276 1406 276 1370 q 300 1461 276 1442 q 369 1481 325 1481 q 438 1461 413 1481 q 463 1406 463 1442 q 438 1351 463 1370 q 369 1332 414 1332 m 469 1317 l 600 1317 l 445 1111 l 293 1111 l 139 1317 l 269 1317 l 369 1178 l 469 1317 z "},"Ş":{"ha":725,"x_min":35,"x_max":689,"o":"m 689 293 q 615 91 689 169 q 403 -7 540 13 l 403 -64 q 494 -101 463 -72 q 526 -180 526 -131 q 483 -269 526 -237 q 353 -301 439 -301 q 222 -278 281 -301 l 222 -203 q 345 -226 281 -226 q 408 -214 387 -226 q 428 -174 428 -201 q 344 -119 428 -119 l 314 -119 l 314 -13 l 312 -13 q 181 -3 248 -13 q 58 28 114 8 l 58 177 q 184 146 118 157 q 310 135 250 135 q 510 279 510 135 q 495 346 510 319 q 445 393 480 373 q 349 431 411 413 l 283 451 q 99 557 162 486 q 35 740 35 628 q 79 901 35 834 q 208 1005 122 969 q 421 1041 294 1041 q 538 1034 481 1041 q 640 1013 595 1026 l 640 863 q 433 892 547 892 q 267 856 319 892 q 215 751 215 819 q 228 687 215 713 q 273 642 242 661 q 361 606 305 623 l 426 587 q 624 478 559 549 q 689 293 689 408 z "},"Ŝ":{"ha":725,"x_min":35,"x_max":689,"o":"m 312 -13 q 181 -3 248 -13 q 58 28 114 8 l 58 177 q 184 146 118 157 q 310 135 250 135 q 510 279 510 135 q 495 346 510 319 q 445 393 480 373 q 349 431 411 413 l 283 451 q 99 557 162 486 q 35 740 35 628 q 79 901 35 834 q 208 1005 122 969 q 421 1041 294 1041 q 538 1034 481 1041 q 640 1013 595 1026 l 640 863 q 433 892 547 892 q 267 856 319 892 q 215 751 215 819 q 228 687 215 713 q 273 642 242 661 q 361 606 305 623 l 426 587 q 624 478 559 549 q 689 293 689 408 q 644 129 689 198 q 515 23 600 60 q 312 -13 431 -13 m 600 1111 l 469 1111 l 369 1249 l 269 1111 l 139 1111 l 293 1317 l 445 1317 l 600 1111 z "},"Ș":{"ha":725,"x_min":35,"x_max":689,"o":"m 312 -13 q 181 -3 248 -13 q 58 28 114 8 l 58 177 q 184 146 118 157 q 310 135 250 135 q 510 279 510 135 q 495 346 510 319 q 445 393 480 373 q 349 431 411 413 l 283 451 q 99 557 162 486 q 35 740 35 628 q 79 901 35 834 q 208 1005 122 969 q 421 1041 294 1041 q 538 1034 481 1041 q 640 1013 595 1026 l 640 863 q 433 892 547 892 q 267 856 319 892 q 215 751 215 819 q 228 687 215 713 q 273 642 242 661 q 361 606 305 623 l 426 587 q 624 478 559 549 q 689 293 689 408 q 644 129 689 198 q 515 23 600 60 q 312 -13 431 -13 m 368 -97 q 472 -191 472 -97 q 458 -265 472 -225 q 423 -337 445 -306 l 313 -337 q 348 -237 342 -279 q 288 -215 308 -233 q 267 -167 267 -197 q 293 -116 267 -134 q 368 -97 318 -97 z "},"Ṡ":{"ha":725,"x_min":35,"x_max":689,"o":"m 312 -13 q 181 -3 248 -13 q 58 28 114 8 l 58 177 q 184 146 118 157 q 310 135 250 135 q 510 279 510 135 q 495 346 510 319 q 445 393 480 373 q 349 431 411 413 l 283 451 q 99 557 162 486 q 35 740 35 628 q 79 901 35 834 q 208 1005 122 969 q 421 1041 294 1041 q 538 1034 481 1041 q 640 1013 595 1026 l 640 863 q 433 892 547 892 q 267 856 319 892 q 215 751 215 819 q 228 687 215 713 q 273 642 242 661 q 361 606 305 623 l 426 587 q 624 478 559 549 q 689 293 689 408 q 644 129 689 198 q 515 23 600 60 q 312 -13 431 -13 m 369 1128 q 286 1151 316 1128 q 257 1216 257 1174 q 286 1281 257 1258 q 369 1304 316 1304 q 452 1281 423 1304 q 481 1216 481 1258 q 452 1151 481 1174 q 369 1128 423 1128 z "},"Ṣ":{"ha":725,"x_min":35,"x_max":689,"o":"m 312 -13 q 181 -3 248 -13 q 58 28 114 8 l 58 177 q 184 146 118 157 q 310 135 250 135 q 510 279 510 135 q 495 346 510 319 q 445 393 480 373 q 349 431 411 413 l 283 451 q 99 557 162 486 q 35 740 35 628 q 79 901 35 834 q 208 1005 122 969 q 421 1041 294 1041 q 538 1034 481 1041 q 640 1013 595 1026 l 640 863 q 433 892 547 892 q 267 856 319 892 q 215 751 215 819 q 228 687 215 713 q 273 642 242 661 q 361 606 305 623 l 426 587 q 624 478 559 549 q 689 293 689 408 q 644 129 689 198 q 515 23 600 60 q 312 -13 431 -13 m 369 -274 q 286 -251 316 -274 q 257 -186 257 -228 q 286 -120 257 -144 q 369 -97 316 -97 q 452 -120 423 -97 q 481 -186 481 -144 q 452 -251 481 -228 q 369 -274 423 -274 z "},"Ṩ":{"ha":725,"x_min":35,"x_max":689,"o":"m 312 -13 q 181 -3 248 -13 q 58 28 114 8 l 58 177 q 184 146 118 157 q 310 135 250 135 q 510 279 510 135 q 495 346 510 319 q 445 393 480 373 q 349 431 411 413 l 283 451 q 99 557 162 486 q 35 740 35 628 q 79 901 35 834 q 208 1005 122 969 q 421 1041 294 1041 q 538 1034 481 1041 q 640 1013 595 1026 l 640 863 q 433 892 547 892 q 267 856 319 892 q 215 751 215 819 q 228 687 215 713 q 273 642 242 661 q 361 606 305 623 l 426 587 q 624 478 559 549 q 689 293 689 408 q 644 129 689 198 q 515 23 600 60 q 312 -13 431 -13 m 369 -274 q 286 -251 316 -274 q 257 -186 257 -228 q 286 -120 257 -144 q 369 -97 316 -97 q 452 -120 423 -97 q 481 -186 481 -144 q 452 -251 481 -228 q 369 -274 423 -274 m 369 1128 q 286 1151 316 1128 q 257 1216 257 1174 q 286 1281 257 1258 q 369 1304 316 1304 q 452 1281 423 1304 q 481 1216 481 1258 q 452 1151 481 1174 q 369 1128 423 1128 z "},"ẞ":{"ha":1151,"x_min":93,"x_max":1116,"o":"m 860 587 q 1052 478 989 549 q 1116 293 1116 408 q 1072 128 1116 197 q 945 23 1028 60 q 744 -13 862 -13 q 620 -3 685 -13 q 501 26 555 7 l 501 175 q 623 146 560 156 q 742 135 686 135 q 939 279 939 135 q 924 346 939 319 q 876 394 909 374 q 785 431 843 414 l 722 451 q 541 556 603 485 q 479 740 479 627 q 515 890 479 826 q 463 894 492 894 q 318 842 365 894 q 271 681 271 790 l 271 0 l 93 0 l 93 658 q 463 1041 93 1041 q 652 1006 573 1041 q 860 1041 738 1041 q 970 1034 915 1041 q 1068 1015 1025 1027 l 1068 865 q 972 885 1023 878 q 872 892 921 892 q 708 856 759 892 q 656 751 656 819 q 669 686 656 713 q 713 641 683 660 q 796 606 743 622 l 860 587 z "},"Ə":{"ha":965,"x_min":51,"x_max":908,"o":"m 383 1041 q 776 912 645 1041 q 908 506 908 783 q 855 215 908 331 q 707 43 802 99 q 483 -13 611 -13 q 253 42 350 -13 q 104 213 157 97 q 51 506 51 328 l 51 572 l 728 572 q 677 763 719 692 q 560 864 635 834 q 367 894 484 894 q 236 886 304 894 q 110 863 169 878 l 110 1011 q 383 1041 235 1041 m 483 131 q 611 159 559 131 q 693 256 663 188 q 729 438 723 324 l 235 438 q 270 257 241 324 q 352 160 300 190 q 483 131 405 131 z "},"T":{"ha":812,"x_min":7,"x_max":806,"o":"m 317 0 l 317 874 l 7 874 l 7 1028 l 806 1028 l 806 874 l 495 874 l 495 0 l 317 0 z "},"Ŧ":{"ha":812,"x_min":7,"x_max":806,"o":"m 806 874 l 495 874 l 495 577 l 696 577 l 696 458 l 495 458 l 495 0 l 317 0 l 317 458 l 117 458 l 117 577 l 317 577 l 317 874 l 7 874 l 7 1028 l 806 1028 l 806 874 z "},"Ť":{"ha":812,"x_min":7,"x_max":806,"o":"m 317 0 l 317 874 l 7 874 l 7 1028 l 806 1028 l 806 874 l 495 874 l 495 0 l 317 0 m 506 1317 l 637 1317 l 482 1111 l 330 1111 l 176 1317 l 306 1317 l 406 1178 l 506 1317 z "},"Ţ":{"ha":812,"x_min":7,"x_max":806,"o":"m 440 0 l 440 -64 q 531 -101 499 -72 q 563 -180 563 -131 q 519 -269 563 -237 q 390 -301 476 -301 q 258 -278 318 -301 l 258 -203 q 382 -226 318 -226 q 444 -214 424 -226 q 465 -174 465 -201 q 381 -119 465 -119 l 351 -119 l 351 0 l 317 0 l 317 874 l 7 874 l 7 1028 l 806 1028 l 806 874 l 495 874 l 495 0 l 440 0 z "},"Ț":{"ha":812,"x_min":7,"x_max":806,"o":"m 317 0 l 317 874 l 7 874 l 7 1028 l 806 1028 l 806 874 l 495 874 l 495 0 l 317 0 m 405 -97 q 508 -191 508 -97 q 495 -265 508 -225 q 460 -337 482 -306 l 350 -337 q 385 -237 378 -279 q 324 -215 344 -233 q 304 -167 304 -197 q 330 -116 304 -134 q 405 -97 355 -97 z "},"Ṭ":{"ha":812,"x_min":7,"x_max":806,"o":"m 317 0 l 317 874 l 7 874 l 7 1028 l 806 1028 l 806 874 l 495 874 l 495 0 l 317 0 m 406 -274 q 323 -251 353 -274 q 294 -186 294 -228 q 323 -120 294 -144 q 406 -97 353 -97 q 489 -120 460 -97 q 518 -186 518 -144 q 489 -251 518 -228 q 406 -274 460 -274 z "},"Ṯ":{"ha":812,"x_min":7,"x_max":806,"o":"m 317 0 l 317 874 l 7 874 l 7 1028 l 806 1028 l 806 874 l 495 874 l 495 0 l 317 0 m 176 -238 l 176 -126 l 635 -126 l 635 -238 l 176 -238 z "},"U":{"ha":951,"x_min":88,"x_max":863,"o":"m 478 -13 q 258 31 344 -13 q 130 165 172 74 q 88 399 88 256 l 88 1028 l 266 1028 l 266 379 q 318 194 266 252 q 478 136 369 136 q 638 194 587 136 q 690 379 690 252 l 690 1028 l 863 1028 l 863 399 q 822 165 863 256 q 696 31 781 74 q 478 -13 611 -13 z "},"Ú":{"ha":951,"x_min":88,"x_max":863,"o":"m 478 -13 q 258 31 344 -13 q 130 165 172 74 q 88 399 88 256 l 88 1028 l 266 1028 l 266 379 q 318 194 266 252 q 478 136 369 136 q 638 194 587 136 q 690 379 690 252 l 690 1028 l 863 1028 l 863 399 q 822 165 863 256 q 696 31 781 74 q 478 -13 611 -13 m 399 1111 l 513 1317 l 697 1317 l 556 1111 l 399 1111 z "},"Ŭ":{"ha":951,"x_min":88,"x_max":863,"o":"m 478 -13 q 258 31 344 -13 q 130 165 172 74 q 88 399 88 256 l 88 1028 l 266 1028 l 266 379 q 318 194 266 252 q 478 136 369 136 q 638 194 587 136 q 690 379 690 252 l 690 1028 l 863 1028 l 863 399 q 822 165 863 256 q 696 31 781 74 q 478 -13 611 -13 m 478 1115 q 314 1165 373 1115 q 245 1308 254 1215 l 355 1308 q 392 1230 363 1255 q 478 1206 421 1206 q 564 1230 535 1206 q 600 1308 593 1255 l 710 1308 q 642 1165 701 1215 q 478 1115 583 1115 z "},"Û":{"ha":951,"x_min":88,"x_max":863,"o":"m 478 -13 q 258 31 344 -13 q 130 165 172 74 q 88 399 88 256 l 88 1028 l 266 1028 l 266 379 q 318 194 266 252 q 478 136 369 136 q 638 194 587 136 q 690 379 690 252 l 690 1028 l 863 1028 l 863 399 q 822 165 863 256 q 696 31 781 74 q 478 -13 611 -13 m 708 1111 l 577 1111 l 478 1249 l 378 1111 l 247 1111 l 401 1317 l 553 1317 l 708 1111 z "},"Ȕ":{"ha":951,"x_min":88,"x_max":863,"o":"m 478 -13 q 258 31 344 -13 q 130 165 172 74 q 88 399 88 256 l 88 1028 l 266 1028 l 266 379 q 318 194 266 252 q 478 136 369 136 q 638 194 587 136 q 690 379 690 252 l 690 1028 l 863 1028 l 863 399 q 822 165 863 256 q 696 31 781 74 q 478 -13 611 -13 m 283 1111 l 191 1317 l 334 1317 l 417 1111 l 283 1111 m 538 1111 l 446 1317 l 589 1317 l 672 1111 l 538 1111 z "},"Ü":{"ha":951,"x_min":88,"x_max":863,"o":"m 478 -13 q 258 31 344 -13 q 130 165 172 74 q 88 399 88 256 l 88 1028 l 266 1028 l 266 379 q 318 194 266 252 q 478 136 369 136 q 638 194 587 136 q 690 379 690 252 l 690 1028 l 863 1028 l 863 399 q 822 165 863 256 q 696 31 781 74 q 478 -13 611 -13 m 315 1128 q 241 1151 267 1128 q 215 1216 215 1174 q 241 1281 215 1258 q 315 1304 267 1304 q 389 1281 363 1304 q 415 1216 415 1258 q 389 1151 415 1174 q 315 1128 363 1128 m 640 1128 q 566 1151 592 1128 q 540 1216 540 1174 q 566 1281 540 1258 q 640 1304 592 1304 q 714 1281 688 1304 q 740 1216 740 1258 q 714 1151 740 1174 q 640 1128 688 1128 z "},"Ụ":{"ha":951,"x_min":88,"x_max":863,"o":"m 478 -13 q 258 31 344 -13 q 130 165 172 74 q 88 399 88 256 l 88 1028 l 266 1028 l 266 379 q 318 194 266 252 q 478 136 369 136 q 638 194 587 136 q 690 379 690 252 l 690 1028 l 863 1028 l 863 399 q 822 165 863 256 q 696 31 781 74 q 478 -13 611 -13 m 478 -274 q 395 -251 424 -274 q 365 -186 365 -228 q 395 -120 365 -144 q 478 -97 424 -97 q 560 -120 531 -97 q 590 -186 590 -144 q 560 -251 590 -228 q 478 -274 531 -274 z "},"Ù":{"ha":951,"x_min":88,"x_max":863,"o":"m 478 -13 q 258 31 344 -13 q 130 165 172 74 q 88 399 88 256 l 88 1028 l 266 1028 l 266 379 q 318 194 266 252 q 478 136 369 136 q 638 194 587 136 q 690 379 690 252 l 690 1028 l 863 1028 l 863 399 q 822 165 863 256 q 696 31 781 74 q 478 -13 611 -13 m 399 1111 l 258 1317 l 442 1317 l 556 1111 l 399 1111 z "},"Ủ":{"ha":951,"x_min":88,"x_max":863,"o":"m 478 -13 q 258 31 344 -13 q 130 165 172 74 q 88 399 88 256 l 88 1028 l 266 1028 l 266 379 q 318 194 266 252 q 478 136 369 136 q 638 194 587 136 q 690 379 690 252 l 690 1028 l 863 1028 l 863 399 q 822 165 863 256 q 696 31 781 74 q 478 -13 611 -13 m 431 1111 q 442 1148 432 1133 q 467 1172 453 1163 q 502 1191 481 1181 q 532 1208 523 1201 q 541 1225 541 1215 q 523 1247 541 1240 q 466 1254 506 1254 q 338 1235 400 1254 l 338 1308 q 404 1322 365 1317 q 479 1327 443 1327 q 640 1238 640 1327 q 624 1195 640 1211 q 577 1164 608 1180 q 539 1140 552 1151 q 524 1111 526 1128 l 431 1111 z "},"Ư":{"ha":955,"x_min":88,"x_max":998,"o":"m 478 -13 q 258 31 344 -13 q 130 165 172 74 q 88 399 88 256 l 88 1028 l 266 1028 l 266 379 q 318 194 266 252 q 478 136 369 136 q 638 194 587 136 q 690 379 690 252 l 690 1028 l 751 1028 q 841 1053 810 1028 q 872 1135 872 1078 q 858 1233 872 1179 l 983 1233 q 998 1127 998 1185 q 962 1008 998 1053 q 863 950 926 963 l 863 399 q 822 165 863 256 q 696 31 781 74 q 478 -13 611 -13 z "},"Ứ":{"ha":955,"x_min":88,"x_max":998,"o":"m 478 -13 q 258 31 344 -13 q 130 165 172 74 q 88 399 88 256 l 88 1028 l 266 1028 l 266 379 q 318 194 266 252 q 478 136 369 136 q 638 194 587 136 q 690 379 690 252 l 690 1028 l 751 1028 q 841 1053 810 1028 q 872 1135 872 1078 q 858 1233 872 1179 l 983 1233 q 998 1127 998 1185 q 962 1008 998 1053 q 863 950 926 963 l 863 399 q 822 165 863 256 q 696 31 781 74 q 478 -13 611 -13 m 397 1111 l 511 1317 l 695 1317 l 554 1111 l 397 1111 z "},"Ự":{"ha":955,"x_min":88,"x_max":998,"o":"m 478 -13 q 258 31 344 -13 q 130 165 172 74 q 88 399 88 256 l 88 1028 l 266 1028 l 266 379 q 318 194 266 252 q 478 136 369 136 q 638 194 587 136 q 690 379 690 252 l 690 1028 l 751 1028 q 841 1053 810 1028 q 872 1135 872 1078 q 858 1233 872 1179 l 983 1233 q 998 1127 998 1185 q 962 1008 998 1053 q 863 950 926 963 l 863 399 q 822 165 863 256 q 696 31 781 74 q 478 -13 611 -13 m 476 -274 q 393 -251 423 -274 q 364 -186 364 -228 q 393 -120 364 -144 q 476 -97 423 -97 q 559 -120 530 -97 q 588 -186 588 -144 q 559 -251 588 -228 q 476 -274 530 -274 z "},"Ừ":{"ha":955,"x_min":88,"x_max":998,"o":"m 478 -13 q 258 31 344 -13 q 130 165 172 74 q 88 399 88 256 l 88 1028 l 266 1028 l 266 379 q 318 194 266 252 q 478 136 369 136 q 638 194 587 136 q 690 379 690 252 l 690 1028 l 751 1028 q 841 1053 810 1028 q 872 1135 872 1078 q 858 1233 872 1179 l 983 1233 q 998 1127 998 1185 q 962 1008 998 1053 q 863 950 926 963 l 863 399 q 822 165 863 256 q 696 31 781 74 q 478 -13 611 -13 m 398 1111 l 257 1317 l 441 1317 l 554 1111 l 398 1111 z "},"Ử":{"ha":955,"x_min":88,"x_max":998,"o":"m 478 -13 q 258 31 344 -13 q 130 165 172 74 q 88 399 88 256 l 88 1028 l 266 1028 l 266 379 q 318 194 266 252 q 478 136 369 136 q 638 194 587 136 q 690 379 690 252 l 690 1028 l 751 1028 q 841 1053 810 1028 q 872 1135 872 1078 q 858 1233 872 1179 l 983 1233 q 998 1127 998 1185 q 962 1008 998 1053 q 863 950 926 963 l 863 399 q 822 165 863 256 q 696 31 781 74 q 478 -13 611 -13 m 429 1111 q 441 1148 431 1133 q 465 1172 451 1163 q 501 1191 479 1181 q 531 1208 522 1201 q 540 1225 540 1215 q 522 1247 540 1240 q 465 1254 504 1254 q 336 1235 399 1254 l 336 1308 q 402 1322 363 1317 q 478 1327 442 1327 q 638 1238 638 1327 q 622 1195 638 1211 q 576 1164 606 1180 q 538 1140 551 1151 q 523 1111 525 1128 l 429 1111 z "},"Ữ":{"ha":955,"x_min":88,"x_max":998,"o":"m 478 -13 q 258 31 344 -13 q 130 165 172 74 q 88 399 88 256 l 88 1028 l 266 1028 l 266 379 q 318 194 266 252 q 478 136 369 136 q 638 194 587 136 q 690 379 690 252 l 690 1028 l 751 1028 q 841 1053 810 1028 q 872 1135 872 1078 q 858 1233 872 1179 l 983 1233 q 998 1127 998 1185 q 962 1008 998 1053 q 863 950 926 963 l 863 399 q 822 165 863 256 q 696 31 781 74 q 478 -13 611 -13 m 586 1136 q 528 1143 556 1136 q 465 1165 501 1151 q 409 1184 430 1178 q 364 1190 388 1190 q 297 1178 326 1190 q 238 1140 268 1166 l 238 1249 q 293 1286 263 1274 q 366 1298 324 1298 q 424 1291 397 1298 q 488 1269 451 1283 q 544 1250 523 1256 q 588 1244 565 1244 q 656 1256 626 1244 q 714 1294 685 1268 l 714 1184 q 659 1148 690 1160 q 586 1136 628 1136 z "},"Ű":{"ha":951,"x_min":88,"x_max":863,"o":"m 478 -13 q 258 31 344 -13 q 130 165 172 74 q 88 399 88 256 l 88 1028 l 266 1028 l 266 379 q 318 194 266 252 q 478 136 369 136 q 638 194 587 136 q 690 379 690 252 l 690 1028 l 863 1028 l 863 399 q 822 165 863 256 q 696 31 781 74 q 478 -13 611 -13 m 283 1111 l 367 1317 l 509 1317 l 417 1111 l 283 1111 m 538 1111 l 621 1317 l 764 1317 l 672 1111 l 538 1111 z "},"Ȗ":{"ha":951,"x_min":88,"x_max":863,"o":"m 478 -13 q 258 31 344 -13 q 130 165 172 74 q 88 399 88 256 l 88 1028 l 266 1028 l 266 379 q 318 194 266 252 q 478 136 369 136 q 638 194 587 136 q 690 379 690 252 l 690 1028 l 863 1028 l 863 399 q 822 165 863 256 q 696 31 781 74 q 478 -13 611 -13 m 245 1119 q 313 1263 254 1213 q 477 1313 372 1313 q 641 1262 582 1313 q 710 1119 701 1212 l 600 1119 q 564 1197 592 1172 q 477 1222 535 1222 q 391 1197 419 1222 q 355 1119 362 1172 l 245 1119 z "},"Ū":{"ha":951,"x_min":88,"x_max":863,"o":"m 478 -13 q 258 31 344 -13 q 130 165 172 74 q 88 399 88 256 l 88 1028 l 266 1028 l 266 379 q 318 194 266 252 q 478 136 369 136 q 638 194 587 136 q 690 379 690 252 l 690 1028 l 863 1028 l 863 399 q 822 165 863 256 q 696 31 781 74 q 478 -13 611 -13 m 248 1158 l 248 1270 l 707 1270 l 707 1158 l 248 1158 z "},"Ṻ":{"ha":951,"x_min":88,"x_max":863,"o":"m 478 -13 q 258 31 344 -13 q 130 165 172 74 q 88 399 88 256 l 88 1028 l 266 1028 l 266 379 q 318 194 266 252 q 478 136 369 136 q 638 194 587 136 q 690 379 690 252 l 690 1028 l 863 1028 l 863 399 q 822 165 863 256 q 696 31 781 74 q 478 -13 611 -13 m 248 1158 l 248 1270 l 707 1270 l 707 1158 l 248 1158 m 315 1351 q 241 1375 267 1351 q 215 1440 215 1398 q 241 1505 215 1481 q 315 1528 267 1528 q 389 1505 363 1528 q 415 1440 415 1481 q 389 1375 415 1398 q 315 1351 363 1351 m 640 1351 q 566 1375 592 1351 q 540 1440 540 1398 q 566 1505 540 1481 q 640 1528 592 1528 q 714 1505 688 1528 q 740 1440 740 1481 q 714 1375 740 1398 q 640 1351 688 1351 z "},"Ų":{"ha":951,"x_min":88,"x_max":863,"o":"m 863 1028 l 863 399 q 811 142 863 239 q 645 10 758 46 q 502 -65 542 -24 q 463 -151 463 -105 q 558 -224 463 -224 q 658 -202 603 -224 l 658 -277 q 538 -300 601 -300 q 404 -264 449 -300 q 359 -162 359 -228 q 381 -81 359 -118 q 451 -12 402 -44 q 176 93 265 -6 q 88 399 88 193 l 88 1028 l 266 1028 l 266 379 q 318 194 266 252 q 478 136 369 136 q 638 194 587 136 q 690 379 690 252 l 690 1028 l 863 1028 z "},"Ů":{"ha":951,"x_min":88,"x_max":863,"o":"m 478 -13 q 258 31 344 -13 q 130 165 172 74 q 88 399 88 256 l 88 1028 l 266 1028 l 266 379 q 318 194 266 252 q 478 136 369 136 q 638 194 587 136 q 690 379 690 252 l 690 1028 l 863 1028 l 863 399 q 822 165 863 256 q 696 31 781 74 q 478 -13 611 -13 m 478 1103 q 403 1121 436 1103 q 351 1172 370 1140 q 333 1244 333 1204 q 351 1317 333 1285 q 403 1368 370 1349 q 478 1386 436 1386 q 552 1368 519 1386 q 603 1317 585 1349 q 622 1244 622 1285 q 603 1172 622 1204 q 552 1121 585 1140 q 478 1103 519 1103 m 478 1172 q 528 1191 509 1172 q 548 1244 548 1211 q 528 1298 548 1278 q 478 1317 509 1317 q 426 1298 446 1317 q 407 1244 407 1278 q 427 1191 407 1211 q 478 1172 447 1172 z "},"Ũ":{"ha":951,"x_min":88,"x_max":863,"o":"m 478 -13 q 258 31 344 -13 q 130 165 172 74 q 88 399 88 256 l 88 1028 l 266 1028 l 266 379 q 318 194 266 252 q 478 136 369 136 q 638 194 587 136 q 690 379 690 252 l 690 1028 l 863 1028 l 863 399 q 822 165 863 256 q 696 31 781 74 q 478 -13 611 -13 m 588 1136 q 530 1143 557 1136 q 467 1165 503 1151 q 410 1184 431 1178 q 365 1190 389 1190 q 299 1178 328 1190 q 240 1140 269 1166 l 240 1249 q 295 1286 264 1274 q 367 1298 326 1298 q 426 1291 399 1298 q 490 1269 453 1283 q 545 1250 524 1256 q 590 1244 567 1244 q 657 1256 628 1244 q 715 1294 686 1268 l 715 1184 q 660 1148 691 1160 q 588 1136 629 1136 z "},"Ṹ":{"ha":951,"x_min":88,"x_max":863,"o":"m 478 -13 q 258 31 344 -13 q 130 165 172 74 q 88 399 88 256 l 88 1028 l 266 1028 l 266 379 q 318 194 266 252 q 478 136 369 136 q 638 194 587 136 q 690 379 690 252 l 690 1028 l 863 1028 l 863 399 q 822 165 863 256 q 696 31 781 74 q 478 -13 611 -13 m 392 1347 l 505 1508 l 704 1508 l 564 1347 l 392 1347 m 588 1136 q 530 1143 557 1136 q 467 1165 503 1151 q 410 1184 431 1178 q 365 1190 389 1190 q 299 1178 328 1190 q 240 1140 269 1166 l 240 1249 q 295 1286 264 1274 q 367 1298 326 1298 q 426 1291 399 1298 q 490 1269 453 1283 q 545 1250 524 1256 q 590 1244 567 1244 q 657 1256 628 1244 q 715 1294 686 1268 l 715 1184 q 660 1148 691 1160 q 588 1136 629 1136 z "},"V":{"ha":897,"x_min":-1,"x_max":898,"o":"m 725 1028 l 898 1028 l 581 0 l 316 0 l -1 1028 l 185 1028 l 453 135 l 725 1028 z "},"W":{"ha":1434,"x_min":23,"x_max":1410,"o":"m 1242 1028 l 1410 1028 l 1155 0 l 924 0 l 721 819 l 510 0 l 279 0 l 23 1028 l 203 1028 l 407 172 l 623 1028 l 822 1028 l 1032 163 l 1242 1028 z "},"Ẃ":{"ha":1434,"x_min":23,"x_max":1410,"o":"m 1242 1028 l 1410 1028 l 1155 0 l 924 0 l 721 819 l 510 0 l 279 0 l 23 1028 l 203 1028 l 407 172 l 623 1028 l 822 1028 l 1032 163 l 1242 1028 m 638 1111 l 752 1317 l 936 1317 l 795 1111 l 638 1111 z "},"Ŵ":{"ha":1434,"x_min":23,"x_max":1410,"o":"m 1242 1028 l 1410 1028 l 1155 0 l 924 0 l 721 819 l 510 0 l 279 0 l 23 1028 l 203 1028 l 407 172 l 623 1028 l 822 1028 l 1032 163 l 1242 1028 m 948 1111 l 817 1111 l 717 1249 l 617 1111 l 487 1111 l 641 1317 l 793 1317 l 948 1111 z "},"Ẅ":{"ha":1434,"x_min":23,"x_max":1410,"o":"m 1242 1028 l 1410 1028 l 1155 0 l 924 0 l 721 819 l 510 0 l 279 0 l 23 1028 l 203 1028 l 407 172 l 623 1028 l 822 1028 l 1032 163 l 1242 1028 m 554 1128 q 480 1151 506 1128 q 454 1216 454 1174 q 480 1281 454 1258 q 554 1304 506 1304 q 628 1281 602 1304 q 655 1216 655 1258 q 628 1151 655 1174 q 554 1128 602 1128 m 880 1128 q 806 1151 832 1128 q 779 1216 779 1174 q 806 1281 779 1258 q 880 1304 832 1304 q 954 1281 928 1304 q 980 1216 980 1258 q 954 1151 980 1174 q 880 1128 928 1128 z "},"Ẁ":{"ha":1434,"x_min":23,"x_max":1410,"o":"m 1242 1028 l 1410 1028 l 1155 0 l 924 0 l 721 819 l 510 0 l 279 0 l 23 1028 l 203 1028 l 407 172 l 623 1028 l 822 1028 l 1032 163 l 1242 1028 m 639 1111 l 498 1317 l 682 1317 l 795 1111 l 639 1111 z "},"X":{"ha":881,"x_min":-10,"x_max":888,"o":"m 544 531 l 888 0 l 692 0 l 439 392 l 185 0 l -10 0 l 335 530 l 10 1028 l 208 1028 l 440 669 l 672 1028 l 866 1028 l 544 531 z "},"Y":{"ha":812,"x_min":-33,"x_max":839,"o":"m 839 1028 l 496 444 l 496 0 l 317 0 l 317 443 l -33 1028 l 157 1028 l 410 601 l 663 1028 l 839 1028 z "},"Ý":{"ha":812,"x_min":-33,"x_max":839,"o":"m 839 1028 l 496 444 l 496 0 l 317 0 l 317 443 l -33 1028 l 157 1028 l 410 601 l 663 1028 l 839 1028 m 328 1111 l 442 1317 l 626 1317 l 485 1111 l 328 1111 z "},"Ŷ":{"ha":812,"x_min":-33,"x_max":839,"o":"m 839 1028 l 496 444 l 496 0 l 317 0 l 317 443 l -33 1028 l 157 1028 l 410 601 l 663 1028 l 839 1028 m 638 1111 l 506 1111 l 407 1249 l 307 1111 l 176 1111 l 331 1317 l 483 1317 l 638 1111 z "},"Ÿ":{"ha":812,"x_min":-33,"x_max":839,"o":"m 839 1028 l 496 444 l 496 0 l 317 0 l 317 443 l -33 1028 l 157 1028 l 410 601 l 663 1028 l 839 1028 m 244 1128 q 170 1151 196 1128 q 144 1216 144 1174 q 170 1281 144 1258 q 244 1304 196 1304 q 318 1281 292 1304 q 344 1216 344 1258 q 318 1151 344 1174 q 244 1128 292 1128 m 569 1128 q 495 1151 522 1128 q 469 1216 469 1174 q 495 1281 469 1258 q 569 1304 522 1304 q 643 1281 617 1304 q 669 1216 669 1258 q 643 1151 669 1174 q 569 1128 617 1128 z "},"Ẏ":{"ha":812,"x_min":-33,"x_max":839,"o":"m 839 1028 l 496 444 l 496 0 l 317 0 l 317 443 l -33 1028 l 157 1028 l 410 601 l 663 1028 l 839 1028 m 407 1128 q 324 1151 353 1128 q 294 1216 294 1174 q 324 1281 294 1258 q 407 1304 353 1304 q 490 1281 460 1304 q 519 1216 519 1258 q 490 1151 519 1174 q 407 1128 460 1128 z "},"Ỵ":{"ha":812,"x_min":-33,"x_max":839,"o":"m 839 1028 l 496 444 l 496 0 l 317 0 l 317 443 l -33 1028 l 157 1028 l 410 601 l 663 1028 l 839 1028 m 406 -274 q 323 -251 353 -274 q 294 -186 294 -228 q 323 -120 294 -144 q 406 -97 353 -97 q 489 -120 460 -97 q 518 -186 518 -144 q 489 -251 518 -228 q 406 -274 460 -274 z "},"Ỳ":{"ha":812,"x_min":-33,"x_max":839,"o":"m 839 1028 l 496 444 l 496 0 l 317 0 l 317 443 l -33 1028 l 157 1028 l 410 601 l 663 1028 l 839 1028 m 328 1111 l 188 1317 l 372 1317 l 485 1111 l 328 1111 z "},"Ỷ":{"ha":812,"x_min":-33,"x_max":839,"o":"m 839 1028 l 496 444 l 496 0 l 317 0 l 317 443 l -33 1028 l 157 1028 l 410 601 l 663 1028 l 839 1028 m 360 1111 q 372 1148 361 1133 q 396 1172 382 1163 q 431 1191 410 1181 q 461 1208 452 1201 q 470 1225 470 1215 q 452 1247 470 1240 q 395 1254 435 1254 q 267 1235 329 1254 l 267 1308 q 333 1322 294 1317 q 408 1327 372 1327 q 569 1238 569 1327 q 553 1195 569 1211 q 506 1164 537 1180 q 468 1140 481 1151 q 453 1111 456 1128 l 360 1111 z "},"Ȳ":{"ha":812,"x_min":-33,"x_max":839,"o":"m 839 1028 l 496 444 l 496 0 l 317 0 l 317 443 l -33 1028 l 157 1028 l 410 601 l 663 1028 l 839 1028 m 177 1158 l 177 1270 l 636 1270 l 636 1158 l 177 1158 z "},"Ỹ":{"ha":812,"x_min":-33,"x_max":839,"o":"m 839 1028 l 496 444 l 496 0 l 317 0 l 317 443 l -33 1028 l 157 1028 l 410 601 l 663 1028 l 839 1028 m 517 1136 q 459 1143 486 1136 q 396 1165 432 1151 q 339 1184 360 1178 q 294 1190 318 1190 q 228 1178 257 1190 q 169 1140 199 1166 l 169 1249 q 224 1286 193 1274 q 297 1298 255 1298 q 355 1291 328 1298 q 419 1269 382 1283 q 475 1250 453 1256 q 519 1244 496 1244 q 586 1256 557 1244 q 644 1294 615 1268 l 644 1184 q 589 1148 620 1160 q 517 1136 558 1136 z "},"Z":{"ha":780,"x_min":35,"x_max":744,"o":"m 265 153 l 744 153 l 744 0 l 35 0 l 35 99 l 507 874 l 43 874 l 43 1028 l 738 1028 l 738 928 l 265 153 z "},"Ź":{"ha":780,"x_min":35,"x_max":744,"o":"m 265 153 l 744 153 l 744 0 l 35 0 l 35 99 l 507 874 l 43 874 l 43 1028 l 738 1028 l 738 928 l 265 153 m 312 1111 l 426 1317 l 610 1317 l 469 1111 l 312 1111 z "},"Ž":{"ha":780,"x_min":35,"x_max":744,"o":"m 265 153 l 744 153 l 744 0 l 35 0 l 35 99 l 507 874 l 43 874 l 43 1028 l 738 1028 l 738 928 l 265 153 m 490 1317 l 622 1317 l 467 1111 l 315 1111 l 160 1317 l 291 1317 l 391 1178 l 490 1317 z "},"Ż":{"ha":780,"x_min":35,"x_max":744,"o":"m 265 153 l 744 153 l 744 0 l 35 0 l 35 99 l 507 874 l 43 874 l 43 1028 l 738 1028 l 738 928 l 265 153 m 391 1128 q 308 1151 338 1128 q 278 1216 278 1174 q 308 1281 278 1258 q 391 1304 338 1304 q 474 1281 444 1304 q 503 1216 503 1258 q 474 1151 503 1174 q 391 1128 444 1128 z "},"Ẓ":{"ha":780,"x_min":35,"x_max":744,"o":"m 265 153 l 744 153 l 744 0 l 35 0 l 35 99 l 507 874 l 43 874 l 43 1028 l 738 1028 l 738 928 l 265 153 m 389 -274 q 306 -251 335 -274 q 276 -186 276 -228 q 306 -120 276 -144 q 389 -97 335 -97 q 472 -120 442 -97 q 501 -186 501 -144 q 472 -251 501 -228 q 389 -274 442 -274 z "},"a":{"ha":702,"x_min":44,"x_max":625,"o":"m 319 769 q 493 741 426 769 q 592 649 560 713 q 625 475 625 585 l 625 0 l 481 0 l 469 80 l 460 80 q 379 10 428 33 q 268 -13 330 -13 q 150 13 200 -13 q 72 87 99 39 q 44 201 44 135 q 113 365 44 307 q 328 435 181 424 l 455 447 l 455 484 q 438 572 455 540 q 385 617 421 603 q 288 631 349 631 q 195 623 245 631 q 97 601 144 615 l 97 739 q 204 761 144 753 q 319 769 264 769 m 324 116 q 394 131 360 116 q 455 178 428 146 l 455 342 l 346 332 q 248 298 279 326 q 217 219 217 269 q 244 142 217 168 q 324 116 272 116 z "},"á":{"ha":702,"x_min":44,"x_max":625,"o":"m 319 769 q 493 741 426 769 q 592 649 560 713 q 625 475 625 585 l 625 0 l 481 0 l 469 80 l 460 80 q 379 10 428 33 q 268 -13 330 -13 q 150 13 200 -13 q 72 87 99 39 q 44 201 44 135 q 113 365 44 307 q 328 435 181 424 l 455 447 l 455 484 q 438 572 455 540 q 385 617 421 603 q 288 631 349 631 q 195 623 245 631 q 97 601 144 615 l 97 739 q 204 761 144 753 q 319 769 264 769 m 324 116 q 394 131 360 116 q 455 178 428 146 l 455 342 l 346 332 q 248 298 279 326 q 217 219 217 269 q 244 142 217 168 q 324 116 272 116 m 270 861 l 411 1122 l 592 1122 l 426 861 l 270 861 z "},"ă":{"ha":702,"x_min":44,"x_max":625,"o":"m 319 769 q 493 741 426 769 q 592 649 560 713 q 625 475 625 585 l 625 0 l 481 0 l 469 80 l 460 80 q 379 10 428 33 q 268 -13 330 -13 q 150 13 200 -13 q 72 87 99 39 q 44 201 44 135 q 113 365 44 307 q 328 435 181 424 l 455 447 l 455 484 q 438 572 455 540 q 385 617 421 603 q 288 631 349 631 q 195 623 245 631 q 97 601 144 615 l 97 739 q 204 761 144 753 q 319 769 264 769 m 324 116 q 394 131 360 116 q 455 178 428 146 l 455 342 l 346 332 q 248 298 279 326 q 217 219 217 269 q 244 142 217 168 q 324 116 272 116 m 349 869 q 191 928 249 869 q 128 1106 133 988 l 238 1106 q 269 998 242 1033 q 349 963 297 963 q 428 998 401 963 q 459 1106 456 1033 l 569 1106 q 506 928 564 988 q 349 869 449 869 z "},"ắ":{"ha":702,"x_min":44,"x_max":625,"o":"m 319 769 q 493 741 426 769 q 592 649 560 713 q 625 475 625 585 l 625 0 l 481 0 l 469 80 l 460 80 q 379 10 428 33 q 268 -13 330 -13 q 150 13 200 -13 q 72 87 99 39 q 44 201 44 135 q 113 365 44 307 q 328 435 181 424 l 455 447 l 455 484 q 438 572 455 540 q 385 617 421 603 q 288 631 349 631 q 195 623 245 631 q 97 601 144 615 l 97 739 q 204 761 144 753 q 319 769 264 769 m 324 116 q 394 131 360 116 q 455 178 428 146 l 455 342 l 346 332 q 248 298 279 326 q 217 219 217 269 q 244 142 217 168 q 324 116 272 116 m 286 1109 l 400 1297 l 551 1297 l 410 1109 l 286 1109 m 349 869 q 189 926 247 869 q 122 1088 130 983 l 232 1088 q 267 991 238 1022 q 349 960 295 960 q 431 991 402 960 q 465 1088 459 1022 l 574 1088 q 509 926 567 982 q 349 869 451 869 z "},"ặ":{"ha":702,"x_min":44,"x_max":625,"o":"m 319 769 q 493 741 426 769 q 592 649 560 713 q 625 475 625 585 l 625 0 l 481 0 l 469 80 l 460 80 q 379 10 428 33 q 268 -13 330 -13 q 150 13 200 -13 q 72 87 99 39 q 44 201 44 135 q 113 365 44 307 q 328 435 181 424 l 455 447 l 455 484 q 438 572 455 540 q 385 617 421 603 q 288 631 349 631 q 195 623 245 631 q 97 601 144 615 l 97 739 q 204 761 144 753 q 319 769 264 769 m 324 116 q 394 131 360 116 q 455 178 428 146 l 455 342 l 346 332 q 248 298 279 326 q 217 219 217 269 q 244 142 217 168 q 324 116 272 116 m 351 -287 q 278 -262 305 -287 q 251 -193 251 -237 q 278 -123 251 -149 q 351 -97 305 -97 q 424 -123 398 -97 q 451 -193 451 -149 q 424 -262 451 -237 q 351 -287 398 -287 m 349 869 q 191 928 249 869 q 128 1106 133 988 l 238 1106 q 269 998 242 1033 q 349 963 297 963 q 428 998 401 963 q 459 1106 456 1033 l 569 1106 q 506 928 564 988 q 349 869 449 869 z "},"ằ":{"ha":702,"x_min":44,"x_max":625,"o":"m 319 769 q 493 741 426 769 q 592 649 560 713 q 625 475 625 585 l 625 0 l 481 0 l 469 80 l 460 80 q 379 10 428 33 q 268 -13 330 -13 q 150 13 200 -13 q 72 87 99 39 q 44 201 44 135 q 113 365 44 307 q 328 435 181 424 l 455 447 l 455 484 q 438 572 455 540 q 385 617 421 603 q 288 631 349 631 q 195 623 245 631 q 97 601 144 615 l 97 739 q 204 761 144 753 q 319 769 264 769 m 324 116 q 394 131 360 116 q 455 178 428 146 l 455 342 l 346 332 q 248 298 279 326 q 217 219 217 269 q 244 142 217 168 q 324 116 272 116 m 287 1109 l 147 1297 l 297 1297 l 410 1109 l 287 1109 m 349 869 q 189 926 247 869 q 122 1088 130 983 l 232 1088 q 267 991 238 1022 q 349 960 295 960 q 431 991 402 960 q 465 1088 459 1022 l 574 1088 q 509 926 567 982 q 349 869 451 869 z "},"ẳ":{"ha":702,"x_min":44,"x_max":625,"o":"m 319 769 q 493 741 426 769 q 592 649 560 713 q 625 475 625 585 l 625 0 l 481 0 l 469 80 l 460 80 q 379 10 428 33 q 268 -13 330 -13 q 150 13 200 -13 q 72 87 99 39 q 44 201 44 135 q 113 365 44 307 q 328 435 181 424 l 455 447 l 455 484 q 438 572 455 540 q 385 617 421 603 q 288 631 349 631 q 195 623 245 631 q 97 601 144 615 l 97 739 q 204 761 144 753 q 319 769 264 769 m 324 116 q 394 131 360 116 q 455 178 428 146 l 455 342 l 346 332 q 248 298 279 326 q 217 219 217 269 q 244 142 217 168 q 324 116 272 116 m 301 1109 q 322 1153 303 1138 q 372 1183 340 1169 q 403 1199 394 1192 q 412 1215 412 1205 q 394 1235 412 1228 q 337 1242 376 1242 q 208 1224 269 1242 l 208 1288 q 275 1302 235 1297 q 350 1307 314 1307 q 510 1226 510 1307 q 494 1186 510 1201 q 448 1158 478 1172 q 410 1135 424 1145 q 395 1109 397 1125 l 301 1109 m 349 869 q 189 926 247 869 q 122 1088 130 983 l 232 1088 q 267 991 238 1022 q 349 960 295 960 q 431 991 402 960 q 465 1088 459 1022 l 574 1088 q 509 926 567 982 q 349 869 451 869 z "},"ẵ":{"ha":702,"x_min":44,"x_max":625,"o":"m 319 769 q 493 741 426 769 q 592 649 560 713 q 625 475 625 585 l 625 0 l 481 0 l 469 80 l 460 80 q 379 10 428 33 q 268 -13 330 -13 q 150 13 200 -13 q 72 87 99 39 q 44 201 44 135 q 113 365 44 307 q 328 435 181 424 l 455 447 l 455 484 q 438 572 455 540 q 385 617 421 603 q 288 631 349 631 q 195 623 245 631 q 97 601 144 615 l 97 739 q 204 761 144 753 q 319 769 264 769 m 324 116 q 394 131 360 116 q 455 178 428 146 l 455 342 l 346 332 q 248 298 279 326 q 217 219 217 269 q 244 142 217 168 q 324 116 272 116 m 456 1133 q 399 1140 426 1133 q 338 1160 373 1147 q 283 1177 305 1172 q 239 1183 262 1183 q 173 1172 201 1183 q 115 1137 144 1160 l 115 1234 q 169 1268 139 1257 q 241 1279 200 1279 q 297 1272 271 1279 q 359 1252 322 1265 q 415 1234 394 1240 q 458 1228 435 1228 q 524 1240 495 1228 q 582 1275 553 1251 l 582 1178 q 527 1144 558 1155 q 456 1133 497 1133 m 349 869 q 189 926 247 869 q 122 1088 130 983 l 232 1088 q 267 991 238 1022 q 349 960 295 960 q 431 991 402 960 q 465 1088 459 1022 l 574 1088 q 509 926 567 982 q 349 869 451 869 z "},"â":{"ha":702,"x_min":44,"x_max":625,"o":"m 319 769 q 493 741 426 769 q 592 649 560 713 q 625 475 625 585 l 625 0 l 481 0 l 469 80 l 460 80 q 379 10 428 33 q 268 -13 330 -13 q 150 13 200 -13 q 72 87 99 39 q 44 201 44 135 q 113 365 44 307 q 328 435 181 424 l 455 447 l 455 484 q 438 572 455 540 q 385 617 421 603 q 288 631 349 631 q 195 623 245 631 q 97 601 144 615 l 97 739 q 204 761 144 753 q 319 769 264 769 m 324 116 q 394 131 360 116 q 455 178 428 146 l 455 342 l 346 332 q 248 298 279 326 q 217 219 217 269 q 244 142 217 168 q 324 116 272 116 m 567 861 l 442 861 l 349 1040 l 255 861 l 130 861 l 274 1122 l 424 1122 l 567 861 z "},"ấ":{"ha":702,"x_min":44,"x_max":761,"o":"m 319 769 q 493 741 426 769 q 592 649 560 713 q 625 475 625 585 l 625 0 l 481 0 l 469 80 l 460 80 q 379 10 428 33 q 268 -13 330 -13 q 150 13 200 -13 q 72 87 99 39 q 44 201 44 135 q 113 365 44 307 q 328 435 181 424 l 455 447 l 455 484 q 438 572 455 540 q 385 617 421 603 q 288 631 349 631 q 195 623 245 631 q 97 601 144 615 l 97 739 q 204 761 144 753 q 319 769 264 769 m 324 116 q 394 131 360 116 q 455 178 428 146 l 455 342 l 346 332 q 248 298 279 326 q 217 219 217 269 q 244 142 217 168 q 324 116 272 116 m 611 1297 l 761 1297 l 621 1109 l 497 1109 l 611 1297 m 274 1122 l 424 1122 l 567 861 l 442 861 l 349 1040 l 255 861 l 130 861 l 274 1122 z "},"ậ":{"ha":702,"x_min":44,"x_max":625,"o":"m 319 769 q 493 741 426 769 q 592 649 560 713 q 625 475 625 585 l 625 0 l 481 0 l 469 80 l 460 80 q 379 10 428 33 q 268 -13 330 -13 q 150 13 200 -13 q 72 87 99 39 q 44 201 44 135 q 113 365 44 307 q 328 435 181 424 l 455 447 l 455 484 q 438 572 455 540 q 385 617 421 603 q 288 631 349 631 q 195 623 245 631 q 97 601 144 615 l 97 739 q 204 761 144 753 q 319 769 264 769 m 324 116 q 394 131 360 116 q 455 178 428 146 l 455 342 l 346 332 q 248 298 279 326 q 217 219 217 269 q 244 142 217 168 q 324 116 272 116 m 351 -287 q 278 -262 305 -287 q 251 -193 251 -237 q 278 -123 251 -149 q 351 -97 305 -97 q 424 -123 398 -97 q 451 -193 451 -149 q 424 -262 451 -237 q 351 -287 398 -287 m 567 861 l 442 861 l 349 1040 l 255 861 l 130 861 l 274 1122 l 424 1122 l 567 861 z "},"ầ":{"ha":702,"x_min":44,"x_max":638,"o":"m 319 769 q 493 741 426 769 q 592 649 560 713 q 625 475 625 585 l 625 0 l 481 0 l 469 80 l 460 80 q 379 10 428 33 q 268 -13 330 -13 q 150 13 200 -13 q 72 87 99 39 q 44 201 44 135 q 113 365 44 307 q 328 435 181 424 l 455 447 l 455 484 q 438 572 455 540 q 385 617 421 603 q 288 631 349 631 q 195 623 245 631 q 97 601 144 615 l 97 739 q 204 761 144 753 q 319 769 264 769 m 324 116 q 394 131 360 116 q 455 178 428 146 l 455 342 l 346 332 q 248 298 279 326 q 217 219 217 269 q 244 142 217 168 q 324 116 272 116 m 638 1109 l 515 1109 l 374 1297 l 524 1297 l 638 1109 m 274 1122 l 424 1122 l 567 861 l 442 861 l 349 1040 l 255 861 l 130 861 l 274 1122 z "},"ẩ":{"ha":702,"x_min":44,"x_max":696,"o":"m 319 769 q 493 741 426 769 q 592 649 560 713 q 625 475 625 585 l 625 0 l 481 0 l 469 80 l 460 80 q 379 10 428 33 q 268 -13 330 -13 q 150 13 200 -13 q 72 87 99 39 q 44 201 44 135 q 113 365 44 307 q 328 435 181 424 l 455 447 l 455 484 q 438 572 455 540 q 385 617 421 603 q 288 631 349 631 q 195 623 245 631 q 97 601 144 615 l 97 739 q 204 761 144 753 q 319 769 264 769 m 324 116 q 394 131 360 116 q 455 178 428 146 l 455 342 l 346 332 q 248 298 279 326 q 217 219 217 269 q 244 142 217 168 q 324 116 272 116 m 540 1307 q 658 1287 619 1307 q 696 1226 696 1267 q 681 1189 696 1202 q 637 1160 666 1175 q 598 1137 611 1147 q 583 1109 585 1126 l 492 1109 q 513 1155 494 1139 q 562 1184 531 1170 q 590 1200 581 1194 q 599 1215 599 1206 q 526 1242 599 1242 q 400 1224 462 1242 l 400 1288 q 465 1302 426 1297 q 540 1307 503 1307 m 274 1122 l 424 1122 l 567 861 l 442 861 l 349 1040 l 255 861 l 130 861 l 274 1122 z "},"ẫ":{"ha":702,"x_min":44,"x_max":625,"o":"m 319 769 q 493 741 426 769 q 592 649 560 713 q 625 475 625 585 l 625 0 l 481 0 l 469 80 l 460 80 q 379 10 428 33 q 268 -13 330 -13 q 150 13 200 -13 q 72 87 99 39 q 44 201 44 135 q 113 365 44 307 q 328 435 181 424 l 455 447 l 455 484 q 438 572 455 540 q 385 617 421 603 q 288 631 349 631 q 195 623 245 631 q 97 601 144 615 l 97 739 q 204 761 144 753 q 319 769 264 769 m 324 116 q 394 131 360 116 q 455 178 428 146 l 455 342 l 346 332 q 248 298 279 326 q 217 219 217 269 q 244 142 217 168 q 324 116 272 116 m 458 1228 q 523 1240 494 1228 q 581 1275 552 1251 l 581 1177 q 526 1144 557 1155 q 456 1133 496 1133 q 401 1140 426 1133 q 338 1160 376 1147 q 284 1177 306 1172 q 239 1183 262 1183 q 173 1172 202 1183 q 115 1137 144 1160 l 115 1234 q 170 1268 140 1257 q 242 1279 201 1279 q 297 1272 272 1279 q 360 1252 323 1265 q 415 1234 395 1240 q 458 1228 435 1228 m 272 1092 l 424 1092 l 572 862 l 444 862 l 349 1023 l 253 862 l 124 862 l 272 1092 z "},"ȁ":{"ha":702,"x_min":44,"x_max":625,"o":"m 319 769 q 493 741 426 769 q 592 649 560 713 q 625 475 625 585 l 625 0 l 481 0 l 469 80 l 460 80 q 379 10 428 33 q 268 -13 330 -13 q 150 13 200 -13 q 72 87 99 39 q 44 201 44 135 q 113 365 44 307 q 328 435 181 424 l 455 447 l 455 484 q 438 572 455 540 q 385 617 421 603 q 288 631 349 631 q 195 623 245 631 q 97 601 144 615 l 97 739 q 204 761 144 753 q 319 769 264 769 m 324 116 q 394 131 360 116 q 455 178 428 146 l 455 342 l 346 332 q 248 298 279 326 q 217 219 217 269 q 244 142 217 168 q 324 116 272 116 m 154 861 l 54 1122 l 197 1122 l 288 861 l 154 861 m 409 861 l 309 1122 l 452 1122 l 542 861 l 409 861 z "},"ä":{"ha":702,"x_min":44,"x_max":625,"o":"m 319 769 q 493 741 426 769 q 592 649 560 713 q 625 475 625 585 l 625 0 l 481 0 l 469 80 l 460 80 q 379 10 428 33 q 268 -13 330 -13 q 150 13 200 -13 q 72 87 99 39 q 44 201 44 135 q 113 365 44 307 q 328 435 181 424 l 455 447 l 455 484 q 438 572 455 540 q 385 617 421 603 q 288 631 349 631 q 195 623 245 631 q 97 601 144 615 l 97 739 q 204 761 144 753 q 319 769 264 769 m 324 116 q 394 131 360 116 q 455 178 428 146 l 455 342 l 346 332 q 248 298 279 326 q 217 219 217 269 q 244 142 217 168 q 324 116 272 116 m 195 890 q 122 916 149 890 q 96 986 96 942 q 122 1056 96 1031 q 195 1082 149 1082 q 268 1056 242 1082 q 295 986 295 1031 q 268 916 295 942 q 195 890 242 890 m 501 890 q 428 916 455 890 q 401 986 401 942 q 428 1056 401 1031 q 501 1082 455 1082 q 575 1056 548 1082 q 601 986 601 1031 q 575 916 601 942 q 501 890 548 890 z "},"ạ":{"ha":702,"x_min":44,"x_max":625,"o":"m 319 769 q 493 741 426 769 q 592 649 560 713 q 625 475 625 585 l 625 0 l 481 0 l 469 80 l 460 80 q 379 10 428 33 q 268 -13 330 -13 q 150 13 200 -13 q 72 87 99 39 q 44 201 44 135 q 113 365 44 307 q 328 435 181 424 l 455 447 l 455 484 q 438 572 455 540 q 385 617 421 603 q 288 631 349 631 q 195 623 245 631 q 97 601 144 615 l 97 739 q 204 761 144 753 q 319 769 264 769 m 324 116 q 394 131 360 116 q 455 178 428 146 l 455 342 l 346 332 q 248 298 279 326 q 217 219 217 269 q 244 142 217 168 q 324 116 272 116 m 351 -287 q 278 -262 305 -287 q 251 -193 251 -237 q 278 -123 251 -149 q 351 -97 305 -97 q 424 -123 398 -97 q 451 -193 451 -149 q 424 -262 451 -237 q 351 -287 398 -287 z "},"à":{"ha":702,"x_min":44,"x_max":625,"o":"m 319 769 q 493 741 426 769 q 592 649 560 713 q 625 475 625 585 l 625 0 l 481 0 l 469 80 l 460 80 q 379 10 428 33 q 268 -13 330 -13 q 150 13 200 -13 q 72 87 99 39 q 44 201 44 135 q 113 365 44 307 q 328 435 181 424 l 455 447 l 455 484 q 438 572 455 540 q 385 617 421 603 q 288 631 349 631 q 195 623 245 631 q 97 601 144 615 l 97 739 q 204 761 144 753 q 319 769 264 769 m 324 116 q 394 131 360 116 q 455 178 428 146 l 455 342 l 346 332 q 248 298 279 326 q 217 219 217 269 q 244 142 217 168 q 324 116 272 116 m 270 861 l 104 1122 l 286 1122 l 426 861 l 270 861 z "},"ả":{"ha":702,"x_min":44,"x_max":625,"o":"m 319 769 q 493 741 426 769 q 592 649 560 713 q 625 475 625 585 l 625 0 l 481 0 l 469 80 l 460 80 q 379 10 428 33 q 268 -13 330 -13 q 150 13 200 -13 q 72 87 99 39 q 44 201 44 135 q 113 365 44 307 q 328 435 181 424 l 455 447 l 455 484 q 438 572 455 540 q 385 617 421 603 q 288 631 349 631 q 195 623 245 631 q 97 601 144 615 l 97 739 q 204 761 144 753 q 319 769 264 769 m 324 116 q 394 131 360 116 q 455 178 428 146 l 455 342 l 346 332 q 248 298 279 326 q 217 219 217 269 q 244 142 217 168 q 324 116 272 116 m 301 861 q 311 908 302 888 q 333 941 321 928 q 365 968 346 953 q 393 993 384 983 q 401 1017 401 1003 q 385 1046 401 1037 q 333 1056 369 1056 q 226 1039 278 1056 l 226 1113 q 282 1126 249 1121 q 345 1131 315 1131 q 462 1105 424 1131 q 500 1028 500 1079 q 492 988 500 1004 q 474 960 485 971 q 444 934 463 949 q 409 900 421 915 q 395 861 397 885 l 301 861 z "},"ȃ":{"ha":702,"x_min":44,"x_max":625,"o":"m 319 769 q 493 741 426 769 q 592 649 560 713 q 625 475 625 585 l 625 0 l 481 0 l 469 80 l 460 80 q 379 10 428 33 q 268 -13 330 -13 q 150 13 200 -13 q 72 87 99 39 q 44 201 44 135 q 113 365 44 307 q 328 435 181 424 l 455 447 l 455 484 q 438 572 455 540 q 385 617 421 603 q 288 631 349 631 q 195 623 245 631 q 97 601 144 615 l 97 739 q 204 761 144 753 q 319 769 264 769 m 324 116 q 394 131 360 116 q 455 178 428 146 l 455 342 l 346 332 q 248 298 279 326 q 217 219 217 269 q 244 142 217 168 q 324 116 272 116 m 128 881 q 190 1058 133 999 q 348 1117 247 1117 q 506 1058 447 1117 q 569 881 564 998 l 459 881 q 427 990 455 955 q 348 1024 399 1024 q 268 990 294 1024 q 238 881 241 956 l 128 881 z "},"ā":{"ha":702,"x_min":44,"x_max":625,"o":"m 319 769 q 493 741 426 769 q 592 649 560 713 q 625 475 625 585 l 625 0 l 481 0 l 469 80 l 460 80 q 379 10 428 33 q 268 -13 330 -13 q 150 13 200 -13 q 72 87 99 39 q 44 201 44 135 q 113 365 44 307 q 328 435 181 424 l 455 447 l 455 484 q 438 572 455 540 q 385 617 421 603 q 288 631 349 631 q 195 623 245 631 q 97 601 144 615 l 97 739 q 204 761 144 753 q 319 769 264 769 m 324 116 q 394 131 360 116 q 455 178 428 146 l 455 342 l 346 332 q 248 298 279 326 q 217 219 217 269 q 244 142 217 168 q 324 116 272 116 m 124 931 l 124 1043 l 573 1043 l 573 931 l 124 931 z "},"ą":{"ha":702,"x_min":44,"x_max":659,"o":"m 569 -224 q 659 -201 611 -224 l 659 -276 q 548 -301 608 -301 q 426 -264 469 -301 q 383 -163 383 -228 q 407 -75 383 -115 q 484 0 431 -35 l 481 0 l 469 80 l 460 80 q 379 10 428 33 q 268 -13 330 -13 q 150 13 200 -13 q 72 87 99 39 q 44 201 44 135 q 113 365 44 307 q 328 435 181 424 l 455 447 l 455 484 q 438 572 455 540 q 385 617 421 603 q 288 631 349 631 q 195 623 245 631 q 97 601 144 615 l 97 739 q 204 761 144 753 q 319 769 264 769 q 493 741 426 769 q 592 649 560 713 q 625 475 625 585 l 625 0 q 517 -73 548 -36 q 486 -152 486 -109 q 508 -206 486 -187 q 569 -224 529 -224 m 324 116 q 394 131 360 116 q 455 178 428 146 l 455 342 l 346 332 q 248 298 279 326 q 217 219 217 269 q 244 142 217 168 q 324 116 272 116 z "},"å":{"ha":702,"x_min":44,"x_max":625,"o":"m 319 769 q 493 741 426 769 q 592 649 560 713 q 625 475 625 585 l 625 0 l 481 0 l 469 80 l 460 80 q 379 10 428 33 q 268 -13 330 -13 q 150 13 200 -13 q 72 87 99 39 q 44 201 44 135 q 113 365 44 307 q 328 435 181 424 l 455 447 l 455 484 q 438 572 455 540 q 385 617 421 603 q 288 631 349 631 q 195 623 245 631 q 97 601 144 615 l 97 739 q 204 761 144 753 q 319 769 264 769 m 324 116 q 394 131 360 116 q 455 178 428 146 l 455 342 l 346 332 q 248 298 279 326 q 217 219 217 269 q 244 142 217 168 q 324 116 272 116 m 349 858 q 274 876 307 858 q 222 926 241 894 q 203 999 203 958 q 222 1072 203 1040 q 274 1122 241 1104 q 349 1140 307 1140 q 423 1122 390 1140 q 474 1072 456 1104 q 493 999 493 1040 q 474 926 493 958 q 423 876 456 894 q 349 858 390 858 m 349 926 q 399 946 380 926 q 419 999 419 966 q 399 1052 419 1032 q 349 1072 380 1072 q 297 1052 317 1072 q 278 999 278 1033 q 297 946 278 966 q 349 926 317 926 z "},"ǻ":{"ha":702,"x_min":44,"x_max":625,"o":"m 319 769 q 493 741 426 769 q 592 649 560 713 q 625 475 625 585 l 625 0 l 481 0 l 469 80 l 460 80 q 379 10 428 33 q 268 -13 330 -13 q 150 13 200 -13 q 72 87 99 39 q 44 201 44 135 q 113 365 44 307 q 328 435 181 424 l 455 447 l 455 484 q 438 572 455 540 q 385 617 421 603 q 288 631 349 631 q 195 623 245 631 q 97 601 144 615 l 97 739 q 204 761 144 753 q 319 769 264 769 m 324 116 q 394 131 360 116 q 455 178 428 146 l 455 342 l 346 332 q 248 298 279 326 q 217 219 217 269 q 244 142 217 168 q 324 116 272 116 m 469 1080 q 493 999 493 1046 q 474 926 493 958 q 423 876 456 894 q 349 858 390 858 q 274 876 307 858 q 222 926 241 894 q 203 999 203 958 q 222 1072 203 1040 q 274 1122 241 1104 q 349 1140 307 1140 q 388 1135 371 1140 l 468 1236 l 605 1236 l 469 1080 m 349 926 q 399 946 380 926 q 419 999 419 966 q 399 1052 419 1032 q 349 1072 380 1072 q 297 1052 317 1072 q 278 999 278 1033 q 297 946 278 966 q 349 926 317 926 z "},"ã":{"ha":702,"x_min":44,"x_max":625,"o":"m 319 769 q 493 741 426 769 q 592 649 560 713 q 625 475 625 585 l 625 0 l 481 0 l 469 80 l 460 80 q 379 10 428 33 q 268 -13 330 -13 q 150 13 200 -13 q 72 87 99 39 q 44 201 44 135 q 113 365 44 307 q 328 435 181 424 l 455 447 l 455 484 q 438 572 455 540 q 385 617 421 603 q 288 631 349 631 q 195 623 245 631 q 97 601 144 615 l 97 739 q 204 761 144 753 q 319 769 264 769 m 324 116 q 394 131 360 116 q 455 178 428 146 l 455 342 l 346 332 q 248 298 279 326 q 217 219 217 269 q 244 142 217 168 q 324 116 272 116 m 450 908 q 398 917 422 908 q 338 941 373 925 q 285 963 306 956 q 244 969 265 969 q 181 956 209 969 q 124 913 152 942 l 124 1029 q 178 1068 148 1056 q 247 1081 208 1081 q 299 1072 274 1081 q 360 1047 324 1064 q 411 1026 391 1033 q 452 1019 432 1019 q 516 1032 488 1019 q 573 1076 544 1046 l 573 959 q 519 921 549 933 q 450 908 489 908 z "},"æ":{"ha":1092,"x_min":44,"x_max":1053,"o":"m 1053 325 l 626 325 q 650 207 628 250 q 717 144 672 163 q 838 125 763 125 q 1015 151 917 125 l 1015 13 q 817 -14 913 -14 q 638 15 710 -14 q 523 104 566 44 q 415 14 475 41 q 284 -13 355 -13 q 155 13 209 -13 q 73 86 101 38 q 44 202 44 135 q 116 372 44 310 q 340 433 188 433 l 457 433 l 457 483 q 439 572 457 540 q 384 617 421 603 q 287 631 347 631 q 195 623 245 631 q 97 601 144 615 l 97 739 q 312 769 202 769 q 463 745 403 769 q 556 669 523 720 q 645 744 592 719 q 767 770 699 770 q 978 672 903 770 q 1053 376 1053 574 l 1053 325 m 758 653 q 660 603 694 653 q 625 433 627 554 l 888 433 q 872 565 887 517 q 828 633 856 613 q 758 653 801 653 m 327 116 q 478 199 420 116 q 458 329 463 257 l 356 329 q 250 299 283 329 q 217 217 217 269 q 245 142 217 167 q 327 116 274 116 z "},"ǽ":{"ha":1092,"x_min":44,"x_max":1053,"o":"m 1053 325 l 626 325 q 650 207 628 250 q 717 144 672 163 q 838 125 763 125 q 1015 151 917 125 l 1015 13 q 817 -14 913 -14 q 638 15 710 -14 q 523 104 566 44 q 415 14 475 41 q 284 -13 355 -13 q 155 13 209 -13 q 73 86 101 38 q 44 202 44 135 q 116 372 44 310 q 340 433 188 433 l 457 433 l 457 483 q 439 572 457 540 q 384 617 421 603 q 287 631 347 631 q 195 623 245 631 q 97 601 144 615 l 97 739 q 312 769 202 769 q 463 745 403 769 q 556 669 523 720 q 645 744 592 719 q 767 770 699 770 q 978 672 903 770 q 1053 376 1053 574 l 1053 325 m 758 653 q 660 603 694 653 q 625 433 627 554 l 888 433 q 872 565 887 517 q 828 633 856 613 q 758 653 801 653 m 327 116 q 478 199 420 116 q 458 329 463 257 l 356 329 q 250 299 283 329 q 217 217 217 269 q 245 142 217 167 q 327 116 274 116 m 464 861 l 605 1122 l 786 1122 l 620 861 l 464 861 z "},"b":{"ha":768,"x_min":83,"x_max":719,"o":"m 333 -13 q 202 -3 268 -13 q 83 24 137 6 l 83 1122 l 258 1122 l 258 682 l 267 682 q 343 746 296 723 q 449 769 390 769 q 586 730 525 769 q 683 607 647 691 q 719 392 719 522 q 623 88 719 190 q 333 -13 527 -13 m 344 122 q 492 182 444 122 q 541 377 541 241 q 522 525 541 472 q 467 601 502 579 q 382 622 433 622 q 313 608 346 622 q 258 565 279 593 l 258 134 q 344 122 297 122 z "},"c":{"ha":594,"x_min":49,"x_max":569,"o":"m 394 -14 q 136 82 224 -14 q 49 378 49 177 q 144 675 49 580 q 421 769 240 769 q 569 753 502 769 l 569 610 q 448 624 507 624 q 324 600 372 624 q 253 523 276 576 q 231 381 231 470 q 252 234 231 289 q 317 155 274 179 q 426 131 360 131 q 569 157 485 131 l 569 14 q 394 -14 486 -14 z "},"ć":{"ha":594,"x_min":49,"x_max":581,"o":"m 394 -14 q 136 82 224 -14 q 49 378 49 177 q 144 675 49 580 q 421 769 240 769 q 569 753 502 769 l 569 610 q 448 624 507 624 q 324 600 372 624 q 253 523 276 576 q 231 381 231 470 q 252 234 231 289 q 317 155 274 179 q 426 131 360 131 q 569 157 485 131 l 569 14 q 394 -14 486 -14 m 259 861 l 400 1122 l 581 1122 l 415 861 l 259 861 z "},"č":{"ha":594,"x_min":49,"x_max":569,"o":"m 394 -14 q 136 82 224 -14 q 49 378 49 177 q 144 675 49 580 q 421 769 240 769 q 569 753 502 769 l 569 610 q 448 624 507 624 q 324 600 372 624 q 253 523 276 576 q 231 381 231 470 q 252 234 231 289 q 317 155 274 179 q 426 131 360 131 q 569 157 485 131 l 569 14 q 394 -14 486 -14 m 431 1122 l 557 1122 l 413 861 l 263 861 l 118 1122 l 243 1122 l 338 944 l 431 1122 z "},"ç":{"ha":594,"x_min":49,"x_max":569,"o":"m 448 624 q 324 600 372 624 q 253 523 276 576 q 231 381 231 470 q 252 234 231 289 q 317 155 274 179 q 426 131 360 131 q 569 157 485 131 l 569 14 q 395 -14 488 -14 l 395 -66 q 474 -104 447 -74 q 502 -181 502 -133 q 461 -269 502 -237 q 341 -301 421 -301 q 224 -279 278 -301 l 224 -204 q 334 -226 275 -226 q 388 -214 370 -226 q 405 -174 405 -201 q 333 -119 405 -119 l 306 -119 l 306 -7 q 114 110 179 16 q 49 378 49 205 q 144 675 49 580 q 421 769 240 769 q 569 753 502 769 l 569 610 q 448 624 507 624 z "},"ḉ":{"ha":594,"x_min":49,"x_max":581,"o":"m 581 1122 l 415 861 l 259 861 l 400 1122 l 581 1122 m 49 378 q 144 675 49 580 q 421 769 240 769 q 569 753 502 769 l 569 610 q 448 624 507 624 q 324 600 372 624 q 253 523 276 576 q 231 381 231 470 q 252 234 231 289 q 317 155 274 179 q 426 131 360 131 q 569 157 485 131 l 569 14 q 395 -14 488 -14 l 395 -66 q 474 -104 447 -74 q 502 -181 502 -133 q 461 -269 502 -237 q 341 -301 421 -301 q 224 -279 278 -301 l 224 -204 q 334 -226 275 -226 q 388 -214 370 -226 q 405 -174 405 -201 q 333 -119 405 -119 l 306 -119 l 306 -7 q 114 110 179 16 q 49 378 49 205 z "},"ĉ":{"ha":594,"x_min":49,"x_max":569,"o":"m 394 -14 q 136 82 224 -14 q 49 378 49 177 q 144 675 49 580 q 421 769 240 769 q 569 753 502 769 l 569 610 q 448 624 507 624 q 324 600 372 624 q 253 523 276 576 q 231 381 231 470 q 252 234 231 289 q 317 155 274 179 q 426 131 360 131 q 569 157 485 131 l 569 14 q 394 -14 486 -14 m 556 861 l 431 861 l 338 1040 l 244 861 l 119 861 l 263 1122 l 413 1122 l 556 861 z "},"ċ":{"ha":594,"x_min":49,"x_max":569,"o":"m 394 -14 q 136 82 224 -14 q 49 378 49 177 q 144 675 49 580 q 421 769 240 769 q 569 753 502 769 l 569 610 q 448 624 507 624 q 324 600 372 624 q 253 523 276 576 q 231 381 231 470 q 252 234 231 289 q 317 155 274 179 q 426 131 360 131 q 569 157 485 131 l 569 14 q 394 -14 486 -14 m 338 887 q 253 913 282 887 q 225 986 225 938 q 253 1059 225 1033 q 338 1085 282 1085 q 421 1059 393 1085 q 449 986 449 1033 q 421 913 449 938 q 338 887 393 887 z "},"d":{"ha":768,"x_min":49,"x_max":685,"o":"m 332 -14 q 188 25 251 -14 q 86 148 124 64 q 49 363 49 233 q 145 667 49 565 q 433 769 241 769 q 510 764 463 769 l 510 1122 l 685 1122 l 685 0 l 537 0 l 526 80 l 517 80 q 440 11 488 36 q 332 -14 393 -14 m 383 133 q 454 149 420 133 q 510 195 488 165 l 510 625 q 426 633 470 633 q 276 574 325 633 q 226 378 226 515 q 246 231 226 285 q 300 155 265 176 q 383 133 334 133 z "},"ð":{"ha":752,"x_min":49,"x_max":704,"o":"m 550 917 q 663 672 622 803 q 703 415 704 542 q 377 -15 703 -15 q 134 82 220 -15 q 49 376 49 178 q 132 671 49 575 q 363 767 216 767 q 472 741 424 767 q 392 887 439 818 l 126 836 l 105 934 l 323 976 q 170 1122 256 1053 l 371 1122 q 486 1006 433 1072 l 665 1040 l 686 942 l 550 917 m 377 119 q 488 177 451 119 q 526 374 526 235 q 508 530 526 473 q 458 611 491 588 q 376 634 426 634 q 294 611 327 634 q 244 531 262 588 q 226 377 226 474 q 244 222 226 278 q 294 142 261 165 q 377 119 327 119 z "},"ď":{"ha":768,"x_min":49,"x_max":873,"o":"m 332 -14 q 188 25 251 -14 q 86 148 124 64 q 49 363 49 233 q 145 667 49 565 q 433 769 241 769 q 510 764 463 769 l 510 1122 l 685 1122 l 685 0 l 537 0 l 526 80 l 517 80 q 440 11 488 36 q 332 -14 393 -14 m 383 133 q 454 149 420 133 q 510 195 488 165 l 510 625 q 426 633 470 633 q 276 574 325 633 q 226 378 226 515 q 246 231 226 285 q 300 155 265 176 q 383 133 334 133 m 733 819 q 752 1122 752 951 l 873 1122 q 862 962 873 1041 q 831 819 851 883 l 733 819 z "},"đ":{"ha":768,"x_min":49,"x_max":765,"o":"m 765 881 l 685 881 l 685 0 l 537 0 l 526 80 l 517 80 q 440 11 488 36 q 332 -14 393 -14 q 188 25 251 -14 q 86 148 124 64 q 49 363 49 233 q 145 667 49 565 q 433 769 241 769 q 510 764 463 769 l 510 881 l 301 881 l 301 999 l 510 999 l 510 1122 l 685 1122 l 685 999 l 765 999 l 765 881 m 510 625 q 426 633 470 633 q 276 574 325 633 q 226 378 226 515 q 246 231 226 285 q 300 155 265 176 q 383 133 334 133 q 454 149 420 133 q 510 195 488 165 l 510 625 z "},"ḍ":{"ha":768,"x_min":49,"x_max":685,"o":"m 332 -14 q 188 25 251 -14 q 86 148 124 64 q 49 363 49 233 q 145 667 49 565 q 433 769 241 769 q 510 764 463 769 l 510 1122 l 685 1122 l 685 0 l 537 0 l 526 80 l 517 80 q 440 11 488 36 q 332 -14 393 -14 m 383 133 q 454 149 420 133 q 510 195 488 165 l 510 625 q 426 633 470 633 q 276 574 325 633 q 226 378 226 515 q 246 231 226 285 q 300 155 265 176 q 383 133 334 133 m 388 -287 q 314 -262 341 -287 q 288 -193 288 -237 q 314 -123 288 -149 q 388 -97 341 -97 q 460 -123 434 -97 q 487 -193 487 -149 q 460 -262 487 -237 q 388 -287 434 -287 z "},"ḏ":{"ha":768,"x_min":49,"x_max":685,"o":"m 332 -14 q 188 25 251 -14 q 86 148 124 64 q 49 363 49 233 q 145 667 49 565 q 433 769 241 769 q 510 764 463 769 l 510 1122 l 685 1122 l 685 0 l 537 0 l 526 80 l 517 80 q 440 11 488 36 q 332 -14 393 -14 m 383 133 q 454 149 420 133 q 510 195 488 165 l 510 625 q 426 633 470 633 q 276 574 325 633 q 226 378 226 515 q 246 231 226 285 q 300 155 265 176 q 383 133 334 133 m 172 -247 l 172 -135 l 602 -135 l 602 -247 l 172 -247 z "},"ǳ":{"ha":1390,"x_min":49,"x_max":1360,"o":"m 332 -14 q 188 25 251 -14 q 86 148 124 64 q 49 363 49 233 q 145 667 49 565 q 433 769 241 769 q 510 764 463 769 l 510 1122 l 685 1122 l 685 0 l 537 0 l 526 80 l 517 80 q 440 11 488 36 q 332 -14 393 -14 m 383 133 q 454 149 420 133 q 510 195 488 165 l 510 625 q 426 633 470 633 q 276 574 325 633 q 226 378 226 515 q 246 231 226 285 q 300 155 265 176 q 383 133 334 133 m 1013 140 l 1360 140 l 1360 0 l 806 0 l 806 109 l 1147 618 l 814 618 l 814 758 l 1353 758 l 1353 649 l 1013 140 z "},"ǆ":{"ha":1390,"x_min":49,"x_max":1360,"o":"m 332 -14 q 188 25 251 -14 q 86 148 124 64 q 49 363 49 233 q 145 667 49 565 q 433 769 241 769 q 510 764 463 769 l 510 1122 l 685 1122 l 685 0 l 537 0 l 526 80 l 517 80 q 440 11 488 36 q 332 -14 393 -14 m 383 133 q 454 149 420 133 q 510 195 488 165 l 510 625 q 426 633 470 633 q 276 574 325 633 q 226 378 226 515 q 246 231 226 285 q 300 155 265 176 q 383 133 334 133 m 1013 140 l 1360 140 l 1360 0 l 806 0 l 806 109 l 1147 618 l 814 618 l 814 758 l 1353 758 l 1353 649 l 1013 140 m 1178 1122 l 1303 1122 l 1159 861 l 1009 861 l 865 1122 l 990 1122 l 1084 944 l 1178 1122 z "},"e":{"ha":698,"x_min":49,"x_max":658,"o":"m 658 325 l 226 325 q 251 207 228 250 q 319 144 273 163 q 442 125 365 125 q 620 151 522 125 l 620 13 q 419 -14 519 -14 q 210 27 292 -14 q 89 154 128 67 q 49 381 49 240 q 131 671 49 572 q 363 769 213 769 q 583 671 508 769 q 658 375 658 572 l 658 325 m 362 652 q 289 632 318 652 q 243 564 259 612 q 225 433 226 515 l 493 433 q 476 564 492 516 q 433 632 461 612 q 362 652 405 652 z "},"é":{"ha":698,"x_min":49,"x_max":658,"o":"m 658 325 l 226 325 q 251 207 228 250 q 319 144 273 163 q 442 125 365 125 q 620 151 522 125 l 620 13 q 419 -14 519 -14 q 210 27 292 -14 q 89 154 128 67 q 49 381 49 240 q 131 671 49 572 q 363 769 213 769 q 583 671 508 769 q 658 375 658 572 l 658 325 m 362 652 q 289 632 318 652 q 243 564 259 612 q 225 433 226 515 l 493 433 q 476 564 492 516 q 433 632 461 612 q 362 652 405 652 m 281 861 l 422 1122 l 603 1122 l 437 861 l 281 861 z "},"ĕ":{"ha":698,"x_min":49,"x_max":658,"o":"m 658 325 l 226 325 q 251 207 228 250 q 319 144 273 163 q 442 125 365 125 q 620 151 522 125 l 620 13 q 419 -14 519 -14 q 210 27 292 -14 q 89 154 128 67 q 49 381 49 240 q 131 671 49 572 q 363 769 213 769 q 583 671 508 769 q 658 375 658 572 l 658 325 m 362 652 q 289 632 318 652 q 243 564 259 612 q 225 433 226 515 l 493 433 q 476 564 492 516 q 433 632 461 612 q 362 652 405 652 m 359 869 q 202 928 260 869 q 138 1106 144 988 l 248 1106 q 280 998 252 1033 q 359 963 308 963 q 439 998 411 963 q 469 1106 466 1033 l 579 1106 q 517 928 574 988 q 359 869 459 869 z "},"ě":{"ha":698,"x_min":49,"x_max":658,"o":"m 658 325 l 226 325 q 251 207 228 250 q 319 144 273 163 q 442 125 365 125 q 620 151 522 125 l 620 13 q 419 -14 519 -14 q 210 27 292 -14 q 89 154 128 67 q 49 381 49 240 q 131 671 49 572 q 363 769 213 769 q 583 671 508 769 q 658 375 658 572 l 658 325 m 362 652 q 289 632 318 652 q 243 564 259 612 q 225 433 226 515 l 493 433 q 476 564 492 516 q 433 632 461 612 q 362 652 405 652 m 453 1122 l 578 1122 l 434 861 l 284 861 l 140 1122 l 265 1122 l 359 944 l 453 1122 z "},"ḝ":{"ha":698,"x_min":49,"x_max":658,"o":"m 359 869 q 202 928 260 869 q 138 1106 144 988 l 248 1106 q 280 998 252 1033 q 359 963 308 963 q 439 998 411 963 q 469 1106 466 1033 l 579 1106 q 517 928 574 988 q 359 869 459 869 m 658 325 l 226 325 q 251 207 228 250 q 319 144 273 163 q 442 125 365 125 q 620 151 522 125 l 620 13 q 419 -14 519 -14 l 409 -14 l 409 -66 q 488 -104 460 -74 q 516 -181 516 -133 q 475 -269 516 -237 q 355 -301 435 -301 q 238 -279 292 -301 l 238 -204 q 348 -226 289 -226 q 401 -214 384 -226 q 419 -174 419 -201 q 347 -119 419 -119 l 319 -119 l 319 -7 q 115 108 181 15 q 49 381 49 201 q 131 671 49 572 q 363 769 213 769 q 583 671 508 769 q 658 375 658 572 l 658 325 m 362 652 q 289 632 318 652 q 243 564 259 612 q 225 433 226 515 l 493 433 q 476 564 492 516 q 433 632 461 612 q 362 652 405 652 z "},"ê":{"ha":698,"x_min":49,"x_max":658,"o":"m 658 325 l 226 325 q 251 207 228 250 q 319 144 273 163 q 442 125 365 125 q 620 151 522 125 l 620 13 q 419 -14 519 -14 q 210 27 292 -14 q 89 154 128 67 q 49 381 49 240 q 131 671 49 572 q 363 769 213 769 q 583 671 508 769 q 658 375 658 572 l 658 325 m 362 652 q 289 632 318 652 q 243 564 259 612 q 225 433 226 515 l 493 433 q 476 564 492 516 q 433 632 461 612 q 362 652 405 652 m 578 861 l 452 861 l 359 1040 l 265 861 l 140 861 l 284 1122 l 434 1122 l 578 861 z "},"ế":{"ha":698,"x_min":49,"x_max":772,"o":"m 658 325 l 226 325 q 251 207 228 250 q 319 144 273 163 q 442 125 365 125 q 620 151 522 125 l 620 13 q 419 -14 519 -14 q 210 27 292 -14 q 89 154 128 67 q 49 381 49 240 q 131 671 49 572 q 363 769 213 769 q 583 671 508 769 q 658 375 658 572 l 658 325 m 362 652 q 289 632 318 652 q 243 564 259 612 q 225 433 226 515 l 493 433 q 476 564 492 516 q 433 632 461 612 q 362 652 405 652 m 622 1297 l 772 1297 l 631 1109 l 508 1109 l 622 1297 m 284 1122 l 434 1122 l 578 861 l 452 861 l 359 1040 l 265 861 l 140 861 l 284 1122 z "},"ệ":{"ha":698,"x_min":49,"x_max":658,"o":"m 658 325 l 226 325 q 251 207 228 250 q 319 144 273 163 q 442 125 365 125 q 620 151 522 125 l 620 13 q 419 -14 519 -14 q 210 27 292 -14 q 89 154 128 67 q 49 381 49 240 q 131 671 49 572 q 363 769 213 769 q 583 671 508 769 q 658 375 658 572 l 658 325 m 362 652 q 289 632 318 652 q 243 564 259 612 q 225 433 226 515 l 493 433 q 476 564 492 516 q 433 632 461 612 q 362 652 405 652 m 359 -287 q 286 -262 313 -287 q 259 -193 259 -237 q 286 -123 259 -149 q 359 -97 313 -97 q 432 -123 406 -97 q 458 -193 458 -149 q 432 -262 458 -237 q 359 -287 406 -287 m 578 861 l 452 861 l 359 1040 l 265 861 l 140 861 l 284 1122 l 434 1122 l 578 861 z "},"ề":{"ha":698,"x_min":49,"x_max":658,"o":"m 658 325 l 226 325 q 251 207 228 250 q 319 144 273 163 q 442 125 365 125 q 620 151 522 125 l 620 13 q 419 -14 519 -14 q 210 27 292 -14 q 89 154 128 67 q 49 381 49 240 q 131 671 49 572 q 363 769 213 769 q 583 671 508 769 q 658 375 658 572 l 658 325 m 362 652 q 289 632 318 652 q 243 564 259 612 q 225 433 226 515 l 493 433 q 476 564 492 516 q 433 632 461 612 q 362 652 405 652 m 649 1109 l 526 1109 l 385 1297 l 535 1297 l 649 1109 m 284 1122 l 434 1122 l 578 861 l 452 861 l 359 1040 l 265 861 l 140 861 l 284 1122 z "},"ể":{"ha":698,"x_min":49,"x_max":706,"o":"m 658 325 l 226 325 q 251 207 228 250 q 319 144 273 163 q 442 125 365 125 q 620 151 522 125 l 620 13 q 419 -14 519 -14 q 210 27 292 -14 q 89 154 128 67 q 49 381 49 240 q 131 671 49 572 q 363 769 213 769 q 583 671 508 769 q 658 375 658 572 l 658 325 m 362 652 q 289 632 318 652 q 243 564 259 612 q 225 433 226 515 l 493 433 q 476 564 492 516 q 433 632 461 612 q 362 652 405 652 m 550 1307 q 668 1287 630 1307 q 706 1226 706 1267 q 691 1189 706 1202 q 647 1160 676 1175 q 609 1137 622 1147 q 594 1109 596 1126 l 503 1109 q 523 1155 505 1139 q 572 1184 541 1170 q 600 1200 592 1194 q 609 1215 609 1206 q 537 1242 609 1242 q 410 1224 472 1242 l 410 1288 q 475 1302 436 1297 q 550 1307 514 1307 m 284 1122 l 434 1122 l 578 861 l 452 861 l 359 1040 l 265 861 l 140 861 l 284 1122 z "},"ễ":{"ha":698,"x_min":49,"x_max":658,"o":"m 658 325 l 226 325 q 251 207 228 250 q 319 144 273 163 q 442 125 365 125 q 620 151 522 125 l 620 13 q 419 -14 519 -14 q 210 27 292 -14 q 89 154 128 67 q 49 381 49 240 q 131 671 49 572 q 363 769 213 769 q 583 671 508 769 q 658 375 658 572 l 658 325 m 362 652 q 289 632 318 652 q 243 564 259 612 q 225 433 226 515 l 493 433 q 476 564 492 516 q 433 632 461 612 q 362 652 405 652 m 468 1228 q 534 1240 505 1228 q 592 1275 563 1251 l 592 1177 q 537 1144 567 1155 q 466 1133 506 1133 q 412 1140 437 1133 q 348 1160 387 1147 q 294 1177 317 1172 q 249 1183 272 1183 q 184 1172 213 1183 q 126 1137 155 1160 l 126 1234 q 181 1268 150 1257 q 252 1279 211 1279 q 308 1272 282 1279 q 370 1252 333 1265 q 426 1234 406 1240 q 468 1228 446 1228 m 283 1092 l 435 1092 l 583 862 l 455 862 l 359 1023 l 263 862 l 135 862 l 283 1092 z "},"ȅ":{"ha":698,"x_min":49,"x_max":658,"o":"m 658 325 l 226 325 q 251 207 228 250 q 319 144 273 163 q 442 125 365 125 q 620 151 522 125 l 620 13 q 419 -14 519 -14 q 210 27 292 -14 q 89 154 128 67 q 49 381 49 240 q 131 671 49 572 q 363 769 213 769 q 583 671 508 769 q 658 375 658 572 l 658 325 m 362 652 q 289 632 318 652 q 243 564 259 612 q 225 433 226 515 l 493 433 q 476 564 492 516 q 433 632 461 612 q 362 652 405 652 m 165 861 l 65 1122 l 208 1122 l 298 861 l 165 861 m 419 861 l 319 1122 l 463 1122 l 553 861 l 419 861 z "},"ë":{"ha":698,"x_min":49,"x_max":658,"o":"m 658 325 l 226 325 q 251 207 228 250 q 319 144 273 163 q 442 125 365 125 q 620 151 522 125 l 620 13 q 419 -14 519 -14 q 210 27 292 -14 q 89 154 128 67 q 49 381 49 240 q 131 671 49 572 q 363 769 213 769 q 583 671 508 769 q 658 375 658 572 l 658 325 m 362 652 q 289 632 318 652 q 243 564 259 612 q 225 433 226 515 l 493 433 q 476 564 492 516 q 433 632 461 612 q 362 652 405 652 m 206 890 q 133 916 159 890 q 106 986 106 942 q 133 1056 106 1031 q 206 1082 159 1082 q 279 1056 252 1082 q 306 986 306 1031 q 279 916 306 942 q 206 890 252 890 m 512 890 q 439 916 465 890 q 412 986 412 942 q 439 1056 412 1031 q 512 1082 465 1082 q 585 1056 558 1082 q 612 986 612 1031 q 585 916 612 942 q 512 890 558 890 z "},"ė":{"ha":698,"x_min":49,"x_max":658,"o":"m 658 325 l 226 325 q 251 207 228 250 q 319 144 273 163 q 442 125 365 125 q 620 151 522 125 l 620 13 q 419 -14 519 -14 q 210 27 292 -14 q 89 154 128 67 q 49 381 49 240 q 131 671 49 572 q 363 769 213 769 q 583 671 508 769 q 658 375 658 572 l 658 325 m 362 652 q 289 632 318 652 q 243 564 259 612 q 225 433 226 515 l 493 433 q 476 564 492 516 q 433 632 461 612 q 362 652 405 652 m 359 887 q 275 913 303 887 q 247 986 247 938 q 275 1059 247 1033 q 359 1085 303 1085 q 443 1059 415 1085 q 471 986 471 1033 q 443 913 471 938 q 359 887 415 887 z "},"ẹ":{"ha":698,"x_min":49,"x_max":658,"o":"m 658 325 l 226 325 q 251 207 228 250 q 319 144 273 163 q 442 125 365 125 q 620 151 522 125 l 620 13 q 419 -14 519 -14 q 210 27 292 -14 q 89 154 128 67 q 49 381 49 240 q 131 671 49 572 q 363 769 213 769 q 583 671 508 769 q 658 375 658 572 l 658 325 m 362 652 q 289 632 318 652 q 243 564 259 612 q 225 433 226 515 l 493 433 q 476 564 492 516 q 433 632 461 612 q 362 652 405 652 m 359 -287 q 286 -262 313 -287 q 259 -193 259 -237 q 286 -123 259 -149 q 359 -97 313 -97 q 432 -123 406 -97 q 458 -193 458 -149 q 432 -262 458 -237 q 359 -287 406 -287 z "},"è":{"ha":698,"x_min":49,"x_max":658,"o":"m 658 325 l 226 325 q 251 207 228 250 q 319 144 273 163 q 442 125 365 125 q 620 151 522 125 l 620 13 q 419 -14 519 -14 q 210 27 292 -14 q 89 154 128 67 q 49 381 49 240 q 131 671 49 572 q 363 769 213 769 q 583 671 508 769 q 658 375 658 572 l 658 325 m 362 652 q 289 632 318 652 q 243 564 259 612 q 225 433 226 515 l 493 433 q 476 564 492 516 q 433 632 461 612 q 362 652 405 652 m 281 861 l 115 1122 l 297 1122 l 437 861 l 281 861 z "},"ẻ":{"ha":698,"x_min":49,"x_max":658,"o":"m 658 325 l 226 325 q 251 207 228 250 q 319 144 273 163 q 442 125 365 125 q 620 151 522 125 l 620 13 q 419 -14 519 -14 q 210 27 292 -14 q 89 154 128 67 q 49 381 49 240 q 131 671 49 572 q 363 769 213 769 q 583 671 508 769 q 658 375 658 572 l 658 325 m 362 652 q 289 632 318 652 q 243 564 259 612 q 225 433 226 515 l 493 433 q 476 564 492 516 q 433 632 461 612 q 362 652 405 652 m 312 861 q 322 908 313 888 q 344 941 331 928 q 376 968 356 953 q 403 993 394 983 q 412 1017 412 1003 q 395 1046 412 1037 q 344 1056 379 1056 q 236 1039 288 1056 l 236 1113 q 293 1126 260 1121 q 356 1131 326 1131 q 472 1105 434 1131 q 510 1028 510 1079 q 503 988 510 1004 q 484 960 495 971 q 455 934 474 949 q 419 900 431 915 q 406 861 408 885 l 312 861 z "},"ȇ":{"ha":698,"x_min":49,"x_max":658,"o":"m 658 325 l 226 325 q 251 207 228 250 q 319 144 273 163 q 442 125 365 125 q 620 151 522 125 l 620 13 q 419 -14 519 -14 q 210 27 292 -14 q 89 154 128 67 q 49 381 49 240 q 131 671 49 572 q 363 769 213 769 q 583 671 508 769 q 658 375 658 572 l 658 325 m 362 652 q 289 632 318 652 q 243 564 259 612 q 225 433 226 515 l 493 433 q 476 564 492 516 q 433 632 461 612 q 362 652 405 652 m 138 881 q 201 1058 144 999 q 358 1117 258 1117 q 516 1058 458 1117 q 579 881 574 998 l 469 881 q 438 990 465 955 q 358 1024 410 1024 q 278 990 305 1024 q 248 881 251 956 l 138 881 z "},"ē":{"ha":698,"x_min":49,"x_max":658,"o":"m 658 325 l 226 325 q 251 207 228 250 q 319 144 273 163 q 442 125 365 125 q 620 151 522 125 l 620 13 q 419 -14 519 -14 q 210 27 292 -14 q 89 154 128 67 q 49 381 49 240 q 131 671 49 572 q 363 769 213 769 q 583 671 508 769 q 658 375 658 572 l 658 325 m 362 652 q 289 632 318 652 q 243 564 259 612 q 225 433 226 515 l 493 433 q 476 564 492 516 q 433 632 461 612 q 362 652 405 652 m 134 931 l 134 1043 l 583 1043 l 583 931 l 134 931 z "},"ḗ":{"ha":698,"x_min":49,"x_max":658,"o":"m 658 325 l 226 325 q 251 207 228 250 q 319 144 273 163 q 442 125 365 125 q 620 151 522 125 l 620 13 q 419 -14 519 -14 q 210 27 292 -14 q 89 154 128 67 q 49 381 49 240 q 131 671 49 572 q 363 769 213 769 q 583 671 508 769 q 658 375 658 572 l 658 325 m 362 652 q 289 632 318 652 q 243 564 259 612 q 225 433 226 515 l 493 433 q 476 564 492 516 q 433 632 461 612 q 362 652 405 652 m 134 931 l 134 1043 l 583 1043 l 583 931 l 134 931 m 280 1142 l 394 1347 l 578 1347 l 437 1142 l 280 1142 z "},"ḕ":{"ha":698,"x_min":49,"x_max":658,"o":"m 658 325 l 226 325 q 251 207 228 250 q 319 144 273 163 q 442 125 365 125 q 620 151 522 125 l 620 13 q 419 -14 519 -14 q 210 27 292 -14 q 89 154 128 67 q 49 381 49 240 q 131 671 49 572 q 363 769 213 769 q 583 671 508 769 q 658 375 658 572 l 658 325 m 362 652 q 289 632 318 652 q 243 564 259 612 q 225 433 226 515 l 493 433 q 476 564 492 516 q 433 632 461 612 q 362 652 405 652 m 134 931 l 134 1043 l 583 1043 l 583 931 l 134 931 m 281 1142 l 140 1347 l 324 1347 l 437 1142 l 281 1142 z "},"ę":{"ha":698,"x_min":49,"x_max":658,"o":"m 658 325 l 226 325 q 251 207 228 250 q 319 144 273 163 q 442 125 365 125 q 620 151 522 125 l 620 13 q 485 -64 522 -23 q 447 -152 447 -106 q 469 -206 447 -187 q 530 -224 490 -224 q 620 -201 572 -224 l 620 -276 q 509 -301 569 -301 q 387 -264 430 -301 q 344 -163 344 -228 q 365 -81 344 -118 q 428 -14 385 -44 l 419 -14 q 210 27 292 -14 q 89 154 128 67 q 49 381 49 240 q 131 671 49 572 q 363 769 213 769 q 583 671 508 769 q 658 375 658 572 l 658 325 m 362 649 q 289 628 318 649 q 243 560 259 608 q 225 429 226 512 l 493 429 q 476 560 492 512 q 433 628 461 608 q 362 649 405 649 z "},"ẽ":{"ha":698,"x_min":49,"x_max":658,"o":"m 658 325 l 226 325 q 251 207 228 250 q 319 144 273 163 q 442 125 365 125 q 620 151 522 125 l 620 13 q 419 -14 519 -14 q 210 27 292 -14 q 89 154 128 67 q 49 381 49 240 q 131 671 49 572 q 363 769 213 769 q 583 671 508 769 q 658 375 658 572 l 658 325 m 362 652 q 289 632 318 652 q 243 564 259 612 q 225 433 226 515 l 493 433 q 476 564 492 516 q 433 632 461 612 q 362 652 405 652 m 460 908 q 408 917 433 908 q 348 941 383 925 q 296 963 316 956 q 255 969 276 969 q 191 956 219 969 q 134 913 163 942 l 134 1029 q 188 1068 158 1056 q 257 1081 218 1081 q 310 1072 285 1081 q 371 1047 335 1064 q 422 1026 401 1033 q 463 1019 442 1019 q 526 1032 498 1019 q 583 1076 555 1046 l 583 959 q 530 921 560 933 q 460 908 499 908 z "},"ə":{"ha":698,"x_min":40,"x_max":649,"o":"m 278 772 q 488 731 406 772 q 609 604 569 690 q 649 377 649 517 q 567 87 649 185 q 335 -12 485 -12 q 115 87 190 -12 q 40 383 40 185 l 40 433 l 472 433 q 447 551 469 508 q 379 614 425 594 q 256 633 333 633 q 78 606 176 633 l 78 744 q 278 772 179 772 m 336 106 q 409 126 380 106 q 455 194 439 146 q 473 324 472 242 l 205 324 q 222 194 206 242 q 265 126 237 146 q 336 106 293 106 z "},"f":{"ha":497,"x_min":10,"x_max":533,"o":"m 457 994 q 343 960 378 994 q 307 854 307 927 l 307 758 l 505 758 l 505 618 l 307 618 l 307 0 l 133 0 l 133 618 l 10 618 l 10 758 l 133 758 l 133 845 q 209 1061 133 986 q 433 1136 285 1136 q 533 1128 485 1136 l 533 988 q 457 994 493 994 z "},"g":{"ha":768,"x_min":49,"x_max":685,"o":"m 319 -319 q 206 -312 265 -319 q 99 -290 148 -305 l 99 -149 q 305 -181 204 -181 q 421 -161 376 -181 q 488 -98 466 -142 q 510 17 510 -55 l 510 79 l 501 79 q 425 15 472 38 q 319 -8 378 -8 q 183 30 244 -8 q 85 152 122 69 q 49 364 49 236 q 438 769 49 769 q 567 759 501 769 q 685 731 633 749 l 685 47 q 645 -164 685 -83 q 523 -282 604 -244 q 319 -319 442 -319 m 386 138 q 455 152 422 138 q 510 194 488 167 l 510 624 q 423 633 469 633 q 276 574 325 633 q 226 380 226 515 q 246 233 226 287 q 300 159 265 180 q 386 138 335 138 z "},"ǵ":{"ha":768,"x_min":49,"x_max":685,"o":"m 319 -319 q 206 -312 265 -319 q 99 -290 148 -305 l 99 -149 q 305 -181 204 -181 q 421 -161 376 -181 q 488 -98 466 -142 q 510 17 510 -55 l 510 79 l 501 79 q 425 15 472 38 q 319 -8 378 -8 q 183 30 244 -8 q 85 152 122 69 q 49 364 49 236 q 438 769 49 769 q 567 759 501 769 q 685 731 633 749 l 685 47 q 645 -164 685 -83 q 523 -282 604 -244 q 319 -319 442 -319 m 386 138 q 455 152 422 138 q 510 194 488 167 l 510 624 q 423 633 469 633 q 276 574 325 633 q 226 380 226 515 q 246 233 226 287 q 300 159 265 180 q 386 138 335 138 m 320 861 l 461 1122 l 642 1122 l 476 861 l 320 861 z "},"ğ":{"ha":768,"x_min":49,"x_max":685,"o":"m 319 -319 q 206 -312 265 -319 q 99 -290 148 -305 l 99 -149 q 305 -181 204 -181 q 421 -161 376 -181 q 488 -98 466 -142 q 510 17 510 -55 l 510 79 l 501 79 q 425 15 472 38 q 319 -8 378 -8 q 183 30 244 -8 q 85 152 122 69 q 49 364 49 236 q 438 769 49 769 q 567 759 501 769 q 685 731 633 749 l 685 47 q 645 -164 685 -83 q 523 -282 604 -244 q 319 -319 442 -319 m 386 138 q 455 152 422 138 q 510 194 488 167 l 510 624 q 423 633 469 633 q 276 574 325 633 q 226 380 226 515 q 246 233 226 287 q 300 159 265 180 q 386 138 335 138 m 399 869 q 241 928 299 869 q 178 1106 183 988 l 288 1106 q 319 998 292 1033 q 399 963 347 963 q 478 998 451 963 q 509 1106 506 1033 l 619 1106 q 556 928 614 988 q 399 869 499 869 z "},"ǧ":{"ha":768,"x_min":49,"x_max":685,"o":"m 319 -319 q 206 -312 265 -319 q 99 -290 148 -305 l 99 -149 q 305 -181 204 -181 q 421 -161 376 -181 q 488 -98 466 -142 q 510 17 510 -55 l 510 79 l 501 79 q 425 15 472 38 q 319 -8 378 -8 q 183 30 244 -8 q 85 152 122 69 q 49 364 49 236 q 438 769 49 769 q 567 759 501 769 q 685 731 633 749 l 685 47 q 645 -164 685 -83 q 523 -282 604 -244 q 319 -319 442 -319 m 386 138 q 455 152 422 138 q 510 194 488 167 l 510 624 q 423 633 469 633 q 276 574 325 633 q 226 380 226 515 q 246 233 226 287 q 300 159 265 180 q 386 138 335 138 m 492 1122 l 618 1122 l 474 861 l 324 861 l 179 1122 l 304 1122 l 399 944 l 492 1122 z "},"ĝ":{"ha":768,"x_min":49,"x_max":685,"o":"m 319 -319 q 206 -312 265 -319 q 99 -290 148 -305 l 99 -149 q 305 -181 204 -181 q 421 -161 376 -181 q 488 -98 466 -142 q 510 17 510 -55 l 510 79 l 501 79 q 425 15 472 38 q 319 -8 378 -8 q 183 30 244 -8 q 85 152 122 69 q 49 364 49 236 q 438 769 49 769 q 567 759 501 769 q 685 731 633 749 l 685 47 q 645 -164 685 -83 q 523 -282 604 -244 q 319 -319 442 -319 m 386 138 q 455 152 422 138 q 510 194 488 167 l 510 624 q 423 633 469 633 q 276 574 325 633 q 226 380 226 515 q 246 233 226 287 q 300 159 265 180 q 386 138 335 138 m 617 861 l 492 861 l 399 1040 l 305 861 l 180 861 l 324 1122 l 474 1122 l 617 861 z "},"ģ":{"ha":768,"x_min":49,"x_max":685,"o":"m 319 -319 q 206 -312 265 -319 q 99 -290 148 -305 l 99 -149 q 305 -181 204 -181 q 421 -161 376 -181 q 488 -98 466 -142 q 510 17 510 -55 l 510 79 l 501 79 q 425 15 472 38 q 319 -8 378 -8 q 183 30 244 -8 q 85 152 122 69 q 49 364 49 236 q 438 769 49 769 q 567 759 501 769 q 685 731 633 749 l 685 47 q 645 -164 685 -83 q 523 -282 604 -244 q 319 -319 442 -319 m 386 138 q 455 152 422 138 q 510 194 488 167 l 510 624 q 423 633 469 633 q 276 574 325 633 q 226 380 226 515 q 246 233 226 287 q 300 159 265 180 q 386 138 335 138 m 419 1028 q 481 1006 460 1024 q 501 958 501 988 q 475 907 501 925 q 399 888 450 888 q 297 982 297 888 q 310 1056 297 1016 q 344 1128 323 1097 l 454 1128 q 419 1028 426 1070 z "},"ġ":{"ha":768,"x_min":49,"x_max":685,"o":"m 319 -319 q 206 -312 265 -319 q 99 -290 148 -305 l 99 -149 q 305 -181 204 -181 q 421 -161 376 -181 q 488 -98 466 -142 q 510 17 510 -55 l 510 79 l 501 79 q 425 15 472 38 q 319 -8 378 -8 q 183 30 244 -8 q 85 152 122 69 q 49 364 49 236 q 438 769 49 769 q 567 759 501 769 q 685 731 633 749 l 685 47 q 645 -164 685 -83 q 523 -282 604 -244 q 319 -319 442 -319 m 386 138 q 455 152 422 138 q 510 194 488 167 l 510 624 q 423 633 469 633 q 276 574 325 633 q 226 380 226 515 q 246 233 226 287 q 300 159 265 180 q 386 138 335 138 m 399 887 q 315 913 343 887 q 286 986 286 938 q 315 1059 286 1033 q 399 1085 343 1085 q 482 1059 454 1085 q 510 986 510 1033 q 482 913 510 938 q 399 887 454 887 z "},"ḡ":{"ha":768,"x_min":49,"x_max":685,"o":"m 319 -319 q 206 -312 265 -319 q 99 -290 148 -305 l 99 -149 q 305 -181 204 -181 q 421 -161 376 -181 q 488 -98 466 -142 q 510 17 510 -55 l 510 79 l 501 79 q 425 15 472 38 q 319 -8 378 -8 q 183 30 244 -8 q 85 152 122 69 q 49 364 49 236 q 438 769 49 769 q 567 759 501 769 q 685 731 633 749 l 685 47 q 645 -164 685 -83 q 523 -282 604 -244 q 319 -319 442 -319 m 386 138 q 455 152 422 138 q 510 194 488 167 l 510 624 q 423 633 469 633 q 276 574 325 633 q 226 380 226 515 q 246 233 226 287 q 300 159 265 180 q 386 138 335 138 m 174 931 l 174 1043 l 623 1043 l 623 931 l 174 931 z "},"h":{"ha":769,"x_min":83,"x_max":692,"o":"m 83 1122 l 258 1122 l 258 677 l 267 677 q 469 769 342 769 q 631 704 570 769 q 692 497 692 639 l 692 0 l 517 0 l 517 485 q 488 585 517 555 q 405 615 459 615 q 324 596 365 615 q 258 542 283 578 l 258 0 l 83 0 l 83 1122 z "},"ħ":{"ha":769,"x_min":3,"x_max":692,"o":"m 469 769 q 631 704 570 769 q 692 497 692 639 l 692 0 l 517 0 l 517 485 q 488 585 517 555 q 405 615 459 615 q 324 596 365 615 q 258 542 283 578 l 258 0 l 83 0 l 83 881 l 3 881 l 3 999 l 83 999 l 83 1122 l 258 1122 l 258 999 l 467 999 l 467 881 l 258 881 l 258 677 l 267 677 q 469 769 342 769 z "},"ḫ":{"ha":769,"x_min":83,"x_max":692,"o":"m 83 1122 l 258 1122 l 258 677 l 267 677 q 469 769 342 769 q 631 704 570 769 q 692 497 692 639 l 692 0 l 517 0 l 517 485 q 488 585 517 555 q 405 615 459 615 q 324 596 365 615 q 258 542 283 578 l 258 0 l 83 0 l 83 1122 m 388 -308 q 228 -254 286 -308 q 167 -103 169 -200 l 276 -103 q 388 -215 281 -215 q 498 -103 494 -215 l 608 -103 q 547 -255 605 -201 q 388 -308 490 -308 z "},"ĥ":{"ha":769,"x_min":83,"x_max":692,"o":"m 83 1122 l 258 1122 l 258 677 l 267 677 q 469 769 342 769 q 631 704 570 769 q 692 497 692 639 l 692 0 l 517 0 l 517 485 q 488 585 517 555 q 405 615 459 615 q 324 596 365 615 q 258 542 283 578 l 258 0 l 83 0 l 83 1122 m 618 1178 l 487 1178 l 388 1316 l 288 1178 l 157 1178 l 311 1383 l 463 1383 l 618 1178 z "},"ḥ":{"ha":769,"x_min":83,"x_max":692,"o":"m 83 1122 l 258 1122 l 258 677 l 267 677 q 469 769 342 769 q 631 704 570 769 q 692 497 692 639 l 692 0 l 517 0 l 517 485 q 488 585 517 555 q 405 615 459 615 q 324 596 365 615 q 258 542 283 578 l 258 0 l 83 0 l 83 1122 m 388 -287 q 314 -262 341 -287 q 288 -193 288 -237 q 314 -123 288 -149 q 388 -97 341 -97 q 460 -123 434 -97 q 487 -193 487 -149 q 460 -262 487 -237 q 388 -287 434 -287 z "},"i":{"ha":341,"x_min":58,"x_max":283,"o":"m 83 0 l 83 758 l 258 758 l 258 0 l 83 0 m 171 887 q 87 913 115 887 q 58 986 58 938 q 87 1059 58 1033 q 171 1085 115 1085 q 255 1059 226 1085 q 283 986 283 1033 q 255 913 283 938 q 171 887 226 887 z "},"ı":{"ha":341,"x_min":83,"x_max":258,"o":"m 83 0 l 83 758 l 258 758 l 258 0 l 83 0 z "},"í":{"ha":341,"x_min":83,"x_max":415,"o":"m 83 0 l 83 758 l 258 758 l 258 0 l 83 0 m 92 861 l 233 1122 l 415 1122 l 249 861 l 92 861 z "},"ĭ":{"ha":341,"x_min":-50,"x_max":391,"o":"m 83 0 l 83 758 l 258 758 l 258 0 l 83 0 m 171 869 q 14 928 72 869 q -50 1106 -44 988 l 60 1106 q 92 998 64 1033 q 171 963 119 963 q 250 998 223 963 q 281 1106 278 1033 l 391 1106 q 328 928 386 988 q 171 869 271 869 z "},"î":{"ha":341,"x_min":-48,"x_max":390,"o":"m 83 0 l 83 758 l 258 758 l 258 0 l 83 0 m 390 861 l 264 861 l 171 1040 l 77 861 l -48 861 l 96 1122 l 246 1122 l 390 861 z "},"ȉ":{"ha":341,"x_min":-124,"x_max":365,"o":"m 83 0 l 83 758 l 258 758 l 258 0 l 83 0 m -24 861 l -124 1122 l 19 1122 l 110 861 l -24 861 m 231 861 l 131 1122 l 274 1122 l 365 861 l 231 861 z "},"ï":{"ha":341,"x_min":-82,"x_max":424,"o":"m 83 0 l 83 758 l 258 758 l 258 0 l 83 0 m 17 890 q -56 916 -29 890 q -82 986 -82 942 q -56 1056 -82 1031 q 17 1082 -29 1082 q 91 1056 64 1082 q 117 986 117 1031 q 91 916 117 942 q 17 890 64 890 m 324 890 q 250 916 277 890 q 224 986 224 942 q 250 1056 224 1031 q 324 1082 277 1082 q 397 1056 370 1082 q 424 986 424 1031 q 397 916 424 942 q 324 890 370 890 z "},"ḯ":{"ha":341,"x_min":-82,"x_max":424,"o":"m 83 0 l 83 758 l 258 758 l 258 0 l 83 0 m 17 890 q -56 916 -29 890 q -82 986 -82 942 q -56 1056 -82 1031 q 17 1082 -29 1082 q 91 1056 64 1082 q 117 986 117 1031 q 91 916 117 942 q 17 890 64 890 m 324 890 q 250 916 277 890 q 224 986 224 942 q 250 1056 224 1031 q 324 1082 277 1082 q 397 1056 370 1082 q 424 986 424 1031 q 397 916 424 942 q 324 890 370 890 m 118 1208 l 232 1413 l 416 1413 l 275 1208 l 118 1208 z "},"ị":{"ha":341,"x_min":58,"x_max":283,"o":"m 83 0 l 83 758 l 258 758 l 258 0 l 83 0 m 171 887 q 87 913 115 887 q 58 986 58 938 q 87 1059 58 1033 q 171 1085 115 1085 q 255 1059 226 1085 q 283 986 283 1033 q 255 913 283 938 q 171 887 226 887 m 171 -287 q 98 -262 124 -287 q 71 -193 71 -237 q 98 -123 71 -149 q 171 -97 124 -97 q 244 -123 217 -97 q 270 -193 270 -149 q 244 -262 270 -237 q 171 -287 217 -287 z "},"ì":{"ha":341,"x_min":-74,"x_max":258,"o":"m 83 0 l 83 758 l 258 758 l 258 0 l 83 0 m 92 861 l -74 1122 l 108 1122 l 249 861 l 92 861 z "},"ỉ":{"ha":341,"x_min":48,"x_max":322,"o":"m 83 0 l 83 758 l 258 758 l 258 0 l 83 0 m 124 861 q 134 908 124 888 q 156 941 143 928 q 188 968 168 953 q 215 993 206 983 q 224 1017 224 1003 q 207 1046 224 1037 q 156 1056 191 1056 q 48 1039 100 1056 l 48 1113 q 105 1126 72 1121 q 167 1131 138 1131 q 284 1105 246 1131 q 322 1028 322 1079 q 315 988 322 1004 q 296 960 307 971 q 267 934 285 949 q 231 900 243 915 q 217 861 219 885 l 124 861 z "},"ȋ":{"ha":341,"x_min":-50,"x_max":391,"o":"m 83 0 l 83 758 l 258 758 l 258 0 l 83 0 m -50 881 q 13 1058 -44 999 q 170 1117 69 1117 q 328 1058 269 1117 q 391 881 386 998 l 281 881 q 249 990 277 955 q 170 1024 222 1024 q 90 990 117 1024 q 60 881 63 956 l -50 881 z "},"ī":{"ha":341,"x_min":-54,"x_max":395,"o":"m 83 0 l 83 758 l 258 758 l 258 0 l 83 0 m -54 931 l -54 1043 l 395 1043 l 395 931 l -54 931 z "},"į":{"ha":341,"x_min":17,"x_max":292,"o":"m 171 887 q 87 913 115 887 q 58 986 58 938 q 87 1059 58 1033 q 171 1085 115 1085 q 255 1059 226 1085 q 283 986 283 1033 q 255 913 283 938 q 171 887 226 887 m 202 -224 q 292 -201 244 -224 l 292 -276 q 181 -301 242 -301 q 59 -264 102 -301 q 17 -163 17 -228 q 40 -75 17 -115 q 117 0 64 -35 l 83 0 l 83 758 l 258 758 l 258 0 q 150 -73 181 -36 q 119 -152 119 -109 q 141 -206 119 -187 q 202 -224 163 -224 z "},"ĩ":{"ha":341,"x_min":-54,"x_max":395,"o":"m 83 0 l 83 758 l 258 758 l 258 0 l 83 0 m 272 908 q 220 917 244 908 q 160 941 195 925 q 108 963 128 956 q 67 969 88 969 q 3 956 31 969 q -54 913 -26 942 l -54 1029 q 0 1068 -30 1056 q 69 1081 30 1081 q 122 1072 97 1081 q 183 1047 147 1064 q 234 1026 213 1033 q 274 1019 254 1019 q 338 1032 310 1019 q 395 1076 367 1046 l 395 959 q 341 921 372 933 q 272 908 311 908 z "},"j":{"ha":341,"x_min":-28,"x_max":282,"o":"m -28 -249 q 58 -79 33 -162 q 83 121 83 4 l 83 758 l 258 758 l 258 129 q 219 -111 258 -6 q 88 -326 180 -217 l -28 -249 m 170 888 q 86 914 115 888 q 58 988 58 940 q 86 1061 58 1035 q 170 1087 115 1087 q 254 1061 226 1087 q 282 988 282 1035 q 254 914 282 940 q 170 888 226 888 z "},"ȷ":{"ha":341,"x_min":-28,"x_max":258,"o":"m -28 -249 q 58 -79 33 -162 q 83 121 83 4 l 83 758 l 258 758 l 258 129 q 219 -111 258 -6 q 88 -326 180 -217 l -28 -249 z "},"ĵ":{"ha":341,"x_min":-49,"x_max":388,"o":"m -28 -249 q 58 -79 33 -162 q 83 121 83 4 l 83 758 l 258 758 l 258 129 q 219 -111 258 -6 q 88 -326 180 -217 l -28 -249 m 388 863 l 263 863 l 169 1041 l 76 863 l -49 863 l 94 1124 l 244 1124 l 388 863 z "},"k":{"ha":729,"x_min":83,"x_max":751,"o":"m 560 0 l 345 319 l 258 319 l 258 0 l 83 0 l 83 1122 l 258 1122 l 258 459 l 344 459 l 541 758 l 728 758 l 490 392 l 751 0 l 560 0 z "},"ķ":{"ha":729,"x_min":83,"x_max":751,"o":"m 560 0 l 345 319 l 258 319 l 258 0 l 83 0 l 83 1122 l 258 1122 l 258 459 l 344 459 l 541 758 l 728 758 l 490 392 l 751 0 l 560 0 m 390 -97 q 494 -191 494 -97 q 481 -265 494 -225 q 445 -337 467 -306 l 335 -337 q 370 -237 364 -279 q 310 -215 330 -233 q 290 -167 290 -197 q 315 -116 290 -134 q 390 -97 340 -97 z "},"ĸ":{"ha":729,"x_min":83,"x_max":751,"o":"m 560 0 l 345 319 l 258 319 l 258 0 l 83 0 l 83 758 l 258 758 l 258 459 l 344 459 l 541 758 l 728 758 l 490 392 l 751 0 l 560 0 z "},"l":{"ha":340,"x_min":83,"x_max":258,"o":"m 83 0 l 83 1122 l 258 1122 l 258 0 l 83 0 z "},"ĺ":{"ha":340,"x_min":83,"x_max":390,"o":"m 83 0 l 83 1122 l 258 1122 l 258 0 l 83 0 m 92 1178 l 206 1383 l 390 1383 l 249 1178 l 92 1178 z "},"ľ":{"ha":340,"x_min":83,"x_max":446,"o":"m 83 0 l 83 1122 l 258 1122 l 258 0 l 83 0 m 306 819 q 325 1122 325 951 l 446 1122 q 435 962 446 1041 q 404 819 424 883 l 306 819 z "},"ļ":{"ha":340,"x_min":68,"x_max":272,"o":"m 83 0 l 83 1122 l 258 1122 l 258 0 l 83 0 m 169 -97 q 272 -191 272 -97 q 259 -265 272 -225 q 224 -337 246 -306 l 114 -337 q 149 -237 142 -279 q 88 -215 108 -233 q 68 -167 68 -197 q 93 -116 68 -134 q 169 -97 119 -97 z "},"ŀ":{"ha":504,"x_min":83,"x_max":531,"o":"m 83 0 l 83 1122 l 258 1122 l 258 0 l 83 0 m 419 452 q 335 478 364 452 q 307 551 307 503 q 335 625 307 599 q 419 651 364 651 q 503 625 475 651 q 531 551 531 599 q 503 478 531 503 q 419 452 475 452 z "},"ḷ":{"ha":340,"x_min":70,"x_max":269,"o":"m 83 0 l 83 1122 l 258 1122 l 258 0 l 83 0 m 170 -287 q 97 -262 124 -287 q 70 -193 70 -237 q 97 -123 70 -149 q 170 -97 124 -97 q 243 -123 217 -97 q 269 -193 269 -149 q 243 -262 269 -237 q 170 -287 217 -287 z "},"ǉ":{"ha":681,"x_min":83,"x_max":622,"o":"m 83 0 l 83 1122 l 258 1122 l 258 0 l 83 0 m 313 -249 q 398 -79 374 -162 q 423 121 423 4 l 423 758 l 599 758 l 599 129 q 559 -111 599 -6 q 428 -326 520 -217 l 313 -249 m 510 888 q 426 914 455 888 q 398 988 398 940 q 426 1061 398 1035 q 510 1087 455 1087 q 594 1061 566 1087 q 622 988 622 1035 q 594 914 622 940 q 510 888 566 888 z "},"ḻ":{"ha":340,"x_min":-45,"x_max":385,"o":"m 83 0 l 83 1122 l 258 1122 l 258 0 l 83 0 m -45 -247 l -45 -135 l 385 -135 l 385 -247 l -45 -247 z "},"ł":{"ha":340,"x_min":-31,"x_max":374,"o":"m 374 553 l 258 482 l 258 0 l 83 0 l 83 376 l 24 340 l -31 439 l 83 508 l 83 1122 l 258 1122 l 258 615 l 319 652 l 374 553 z "},"m":{"ha":1149,"x_min":83,"x_max":1072,"o":"m 847 769 q 1011 705 951 769 q 1072 496 1072 640 l 1072 0 l 898 0 l 898 487 q 793 615 898 615 q 724 599 759 615 q 663 549 688 583 q 665 503 665 528 l 665 0 l 494 0 l 494 487 q 467 586 494 556 q 392 615 441 615 q 318 596 356 615 q 258 540 281 577 l 258 0 l 83 0 l 83 758 l 228 758 l 241 676 l 250 676 q 453 769 328 769 q 559 745 513 769 q 633 668 606 720 q 732 744 676 719 q 847 769 788 769 z "},"ṃ":{"ha":1149,"x_min":83,"x_max":1072,"o":"m 847 769 q 1011 705 951 769 q 1072 496 1072 640 l 1072 0 l 898 0 l 898 487 q 793 615 898 615 q 724 599 759 615 q 663 549 688 583 q 665 503 665 528 l 665 0 l 494 0 l 494 487 q 467 586 494 556 q 392 615 441 615 q 318 596 356 615 q 258 540 281 577 l 258 0 l 83 0 l 83 758 l 228 758 l 241 676 l 250 676 q 453 769 328 769 q 559 745 513 769 q 633 668 606 720 q 732 744 676 719 q 847 769 788 769 m 580 -287 q 507 -262 533 -287 q 480 -193 480 -237 q 507 -123 480 -149 q 580 -97 533 -97 q 653 -123 626 -97 q 679 -193 679 -149 q 653 -262 679 -237 q 580 -287 626 -287 z "},"n":{"ha":769,"x_min":83,"x_max":692,"o":"m 83 758 l 228 758 l 241 676 l 250 676 q 343 745 290 722 q 460 769 397 769 q 630 705 567 769 q 692 498 692 640 l 692 0 l 517 0 l 517 486 q 488 585 517 556 q 405 615 459 615 q 324 597 364 615 q 258 542 283 578 l 258 0 l 83 0 l 83 758 z "},"ń":{"ha":769,"x_min":83,"x_max":692,"o":"m 83 758 l 228 758 l 241 676 l 250 676 q 343 745 290 722 q 460 769 397 769 q 630 705 567 769 q 692 498 692 640 l 692 0 l 517 0 l 517 486 q 488 585 517 556 q 405 615 459 615 q 324 597 364 615 q 258 542 283 578 l 258 0 l 83 0 l 83 758 m 309 861 l 450 1122 l 631 1122 l 465 861 l 309 861 z "},"ŉ":{"ha":769,"x_min":8,"x_max":692,"o":"m 83 758 l 228 758 l 241 676 l 250 676 q 343 745 290 722 q 460 769 397 769 q 630 705 567 769 q 692 498 692 640 l 692 0 l 517 0 l 517 486 q 488 585 517 556 q 405 615 459 615 q 324 597 364 615 q 258 542 283 578 l 258 0 l 83 0 l 83 758 m 108 1128 q 212 1035 212 1128 q 199 960 212 1001 q 163 888 185 920 l 53 888 q 88 988 82 947 q 28 1010 48 992 q 8 1058 8 1028 q 33 1110 8 1091 q 108 1128 58 1128 z "},"ň":{"ha":769,"x_min":83,"x_max":692,"o":"m 83 758 l 228 758 l 241 676 l 250 676 q 343 745 290 722 q 460 769 397 769 q 630 705 567 769 q 692 498 692 640 l 692 0 l 517 0 l 517 486 q 488 585 517 556 q 405 615 459 615 q 324 597 364 615 q 258 542 283 578 l 258 0 l 83 0 l 83 758 m 481 1122 l 607 1122 l 463 861 l 313 861 l 168 1122 l 293 1122 l 388 944 l 481 1122 z "},"ņ":{"ha":769,"x_min":83,"x_max":692,"o":"m 83 758 l 228 758 l 241 676 l 250 676 q 343 745 290 722 q 460 769 397 769 q 630 705 567 769 q 692 498 692 640 l 692 0 l 517 0 l 517 486 q 488 585 517 556 q 405 615 459 615 q 324 597 364 615 q 258 542 283 578 l 258 0 l 83 0 l 83 758 m 386 -97 q 490 -191 490 -97 q 476 -265 490 -225 q 441 -337 463 -306 l 331 -337 q 366 -237 360 -279 q 306 -215 326 -233 q 285 -167 285 -197 q 311 -116 285 -134 q 386 -97 336 -97 z "},"ṅ":{"ha":769,"x_min":83,"x_max":692,"o":"m 83 758 l 228 758 l 241 676 l 250 676 q 343 745 290 722 q 460 769 397 769 q 630 705 567 769 q 692 498 692 640 l 692 0 l 517 0 l 517 486 q 488 585 517 556 q 405 615 459 615 q 324 597 364 615 q 258 542 283 578 l 258 0 l 83 0 l 83 758 m 388 887 q 303 913 332 887 q 275 986 275 938 q 303 1059 275 1033 q 388 1085 332 1085 q 471 1059 443 1085 q 499 986 499 1033 q 471 913 499 938 q 388 887 443 887 z "},"ṇ":{"ha":769,"x_min":83,"x_max":692,"o":"m 83 758 l 228 758 l 241 676 l 250 676 q 343 745 290 722 q 460 769 397 769 q 630 705 567 769 q 692 498 692 640 l 692 0 l 517 0 l 517 486 q 488 585 517 556 q 405 615 459 615 q 324 597 364 615 q 258 542 283 578 l 258 0 l 83 0 l 83 758 m 388 -287 q 314 -262 341 -287 q 288 -193 288 -237 q 314 -123 288 -149 q 388 -97 341 -97 q 460 -123 434 -97 q 487 -193 487 -149 q 460 -262 487 -237 q 388 -287 434 -287 z "},"ŋ":{"ha":769,"x_min":83,"x_max":692,"o":"m 406 -249 q 492 -79 467 -162 q 517 121 517 4 l 517 488 q 488 588 517 558 q 405 618 459 618 q 324 600 365 618 q 258 544 283 581 l 258 0 l 83 0 l 83 758 l 228 758 l 241 676 l 250 676 q 344 746 291 723 q 460 769 397 769 q 630 705 567 769 q 692 497 692 640 l 692 117 q 651 -116 690 -12 q 522 -326 613 -219 l 406 -249 z "},"ǌ":{"ha":1110,"x_min":83,"x_max":1051,"o":"m 83 758 l 228 758 l 241 676 l 250 676 q 343 745 290 722 q 460 769 397 769 q 630 705 567 769 q 692 498 692 640 l 692 0 l 517 0 l 517 486 q 488 585 517 556 q 405 615 459 615 q 324 597 364 615 q 258 542 283 578 l 258 0 l 83 0 l 83 758 m 741 -249 q 827 -79 802 -162 q 851 121 851 4 l 851 758 l 1027 758 l 1027 129 q 988 -111 1027 -6 q 857 -326 949 -217 l 741 -249 m 939 888 q 855 914 883 888 q 826 988 826 940 q 855 1061 826 1035 q 939 1087 883 1087 q 1023 1061 994 1087 q 1051 988 1051 1035 q 1023 914 1051 940 q 939 888 994 888 z "},"ṉ":{"ha":769,"x_min":83,"x_max":692,"o":"m 83 758 l 228 758 l 241 676 l 250 676 q 343 745 290 722 q 460 769 397 769 q 630 705 567 769 q 692 498 692 640 l 692 0 l 517 0 l 517 486 q 488 585 517 556 q 405 615 459 615 q 324 597 364 615 q 258 542 283 578 l 258 0 l 83 0 l 83 758 m 172 -247 l 172 -135 l 602 -135 l 602 -247 l 172 -247 z "},"ñ":{"ha":769,"x_min":83,"x_max":692,"o":"m 83 758 l 228 758 l 241 676 l 250 676 q 343 745 290 722 q 460 769 397 769 q 630 705 567 769 q 692 498 692 640 l 692 0 l 517 0 l 517 486 q 488 585 517 556 q 405 615 459 615 q 324 597 364 615 q 258 542 283 578 l 258 0 l 83 0 l 83 758 m 489 908 q 436 917 461 908 q 376 941 412 925 q 324 963 344 956 q 283 969 304 969 q 219 956 248 969 q 163 913 191 942 l 163 1029 q 217 1068 187 1056 q 285 1081 247 1081 q 338 1072 313 1081 q 399 1047 363 1064 q 450 1026 430 1033 q 491 1019 471 1019 q 555 1032 526 1019 q 612 1076 583 1046 l 612 959 q 558 921 588 933 q 489 908 528 908 z "},"o":{"ha":752,"x_min":49,"x_max":704,"o":"m 376 -14 q 134 82 219 -14 q 49 376 49 178 q 133 673 49 576 q 376 769 218 769 q 619 672 533 769 q 704 378 704 575 q 619 83 704 179 q 376 -14 533 -14 m 376 120 q 458 143 426 120 q 508 222 491 166 q 526 376 526 278 q 508 532 526 475 q 458 612 490 589 q 376 635 426 635 q 294 612 327 635 q 244 533 262 589 q 226 378 226 476 q 244 223 226 280 q 294 143 261 167 q 376 120 327 120 z "},"ó":{"ha":752,"x_min":49,"x_max":704,"o":"m 376 -14 q 134 82 219 -14 q 49 376 49 178 q 133 673 49 576 q 376 769 218 769 q 619 672 533 769 q 704 378 704 575 q 619 83 704 179 q 376 -14 533 -14 m 376 120 q 458 143 426 120 q 508 222 491 166 q 526 376 526 278 q 508 532 526 475 q 458 612 490 589 q 376 635 426 635 q 294 612 327 635 q 244 533 262 589 q 226 378 226 476 q 244 223 226 280 q 294 143 261 167 q 376 120 327 120 m 298 861 l 439 1122 l 620 1122 l 454 861 l 298 861 z "},"ŏ":{"ha":752,"x_min":49,"x_max":704,"o":"m 376 -14 q 134 82 219 -14 q 49 376 49 178 q 133 673 49 576 q 376 769 218 769 q 619 672 533 769 q 704 378 704 575 q 619 83 704 179 q 376 -14 533 -14 m 376 120 q 458 143 426 120 q 508 222 491 166 q 526 376 526 278 q 508 532 526 475 q 458 612 490 589 q 376 635 426 635 q 294 612 327 635 q 244 533 262 589 q 226 378 226 476 q 244 223 226 280 q 294 143 261 167 q 376 120 327 120 m 376 869 q 219 928 277 869 q 156 1106 161 988 l 265 1106 q 297 998 269 1033 q 376 963 325 963 q 456 998 428 963 q 487 1106 483 1033 l 597 1106 q 534 928 592 988 q 376 869 476 869 z "},"ô":{"ha":752,"x_min":49,"x_max":704,"o":"m 376 -14 q 134 82 219 -14 q 49 376 49 178 q 133 673 49 576 q 376 769 218 769 q 619 672 533 769 q 704 378 704 575 q 619 83 704 179 q 376 -14 533 -14 m 376 120 q 458 143 426 120 q 508 222 491 166 q 526 376 526 278 q 508 532 526 475 q 458 612 490 589 q 376 635 426 635 q 294 612 327 635 q 244 533 262 589 q 226 378 226 476 q 244 223 226 280 q 294 143 261 167 q 376 120 327 120 m 595 861 l 469 861 l 376 1040 l 283 861 l 158 861 l 301 1122 l 451 1122 l 595 861 z "},"ố":{"ha":752,"x_min":49,"x_max":789,"o":"m 376 -14 q 134 82 219 -14 q 49 376 49 178 q 133 673 49 576 q 376 769 218 769 q 619 672 533 769 q 704 378 704 575 q 619 83 704 179 q 376 -14 533 -14 m 376 120 q 458 143 426 120 q 508 222 491 166 q 526 376 526 278 q 508 532 526 475 q 458 612 490 589 q 376 635 426 635 q 294 612 327 635 q 244 533 262 589 q 226 378 226 476 q 244 223 226 280 q 294 143 261 167 q 376 120 327 120 m 639 1297 l 789 1297 l 649 1109 l 525 1109 l 639 1297 m 301 1122 l 451 1122 l 595 861 l 469 861 l 376 1040 l 283 861 l 158 861 l 301 1122 z "},"ộ":{"ha":752,"x_min":49,"x_max":704,"o":"m 376 -14 q 134 82 219 -14 q 49 376 49 178 q 133 673 49 576 q 376 769 218 769 q 619 672 533 769 q 704 378 704 575 q 619 83 704 179 q 376 -14 533 -14 m 376 120 q 458 143 426 120 q 508 222 491 166 q 526 376 526 278 q 508 532 526 475 q 458 612 490 589 q 376 635 426 635 q 294 612 327 635 q 244 533 262 589 q 226 378 226 476 q 244 223 226 280 q 294 143 261 167 q 376 120 327 120 m 376 -287 q 303 -262 330 -287 q 276 -193 276 -237 q 303 -123 276 -149 q 376 -97 330 -97 q 449 -123 423 -97 q 476 -193 476 -149 q 449 -262 476 -237 q 376 -287 423 -287 m 595 861 l 469 861 l 376 1040 l 283 861 l 158 861 l 301 1122 l 451 1122 l 595 861 z "},"ồ":{"ha":752,"x_min":49,"x_max":704,"o":"m 376 -14 q 134 82 219 -14 q 49 376 49 178 q 133 673 49 576 q 376 769 218 769 q 619 672 533 769 q 704 378 704 575 q 619 83 704 179 q 376 -14 533 -14 m 376 120 q 458 143 426 120 q 508 222 491 166 q 526 376 526 278 q 508 532 526 475 q 458 612 490 589 q 376 635 426 635 q 294 612 327 635 q 244 533 262 589 q 226 378 226 476 q 244 223 226 280 q 294 143 261 167 q 376 120 327 120 m 666 1109 l 543 1109 l 402 1297 l 552 1297 l 666 1109 m 301 1122 l 451 1122 l 595 861 l 469 861 l 376 1040 l 283 861 l 158 861 l 301 1122 z "},"ổ":{"ha":752,"x_min":49,"x_max":724,"o":"m 376 -14 q 134 82 219 -14 q 49 376 49 178 q 133 673 49 576 q 376 769 218 769 q 619 672 533 769 q 704 378 704 575 q 619 83 704 179 q 376 -14 533 -14 m 376 120 q 458 143 426 120 q 508 222 491 166 q 526 376 526 278 q 508 532 526 475 q 458 612 490 589 q 376 635 426 635 q 294 612 327 635 q 244 533 262 589 q 226 378 226 476 q 244 223 226 280 q 294 143 261 167 q 376 120 327 120 m 567 1307 q 685 1287 647 1307 q 724 1226 724 1267 q 709 1189 724 1202 q 665 1160 694 1175 q 626 1137 639 1147 q 611 1109 613 1126 l 520 1109 q 540 1155 522 1139 q 590 1184 558 1170 q 618 1200 609 1194 q 626 1215 626 1206 q 554 1242 626 1242 q 428 1224 490 1242 l 428 1288 q 492 1302 453 1297 q 567 1307 531 1307 m 301 1122 l 451 1122 l 595 861 l 469 861 l 376 1040 l 283 861 l 158 861 l 301 1122 z "},"ỗ":{"ha":752,"x_min":49,"x_max":704,"o":"m 376 -14 q 134 82 219 -14 q 49 376 49 178 q 133 673 49 576 q 376 769 218 769 q 619 672 533 769 q 704 378 704 575 q 619 83 704 179 q 376 -14 533 -14 m 376 120 q 458 143 426 120 q 508 222 491 166 q 526 376 526 278 q 508 532 526 475 q 458 612 490 589 q 376 635 426 635 q 294 612 327 635 q 244 533 262 589 q 226 378 226 476 q 244 223 226 280 q 294 143 261 167 q 376 120 327 120 m 485 1228 q 551 1240 522 1228 q 609 1275 580 1251 l 609 1177 q 554 1144 585 1155 q 483 1133 524 1133 q 429 1140 454 1133 q 365 1160 404 1147 q 312 1177 334 1172 q 267 1183 290 1183 q 201 1172 230 1183 q 143 1137 172 1160 l 143 1234 q 198 1268 167 1257 q 269 1279 228 1279 q 325 1272 299 1279 q 388 1252 351 1265 q 443 1234 423 1240 q 485 1228 463 1228 m 300 1092 l 452 1092 l 600 862 l 472 862 l 376 1023 l 281 862 l 152 862 l 300 1092 z "},"ȍ":{"ha":752,"x_min":49,"x_max":704,"o":"m 376 -14 q 134 82 219 -14 q 49 376 49 178 q 133 673 49 576 q 376 769 218 769 q 619 672 533 769 q 704 378 704 575 q 619 83 704 179 q 376 -14 533 -14 m 376 120 q 458 143 426 120 q 508 222 491 166 q 526 376 526 278 q 508 532 526 475 q 458 612 490 589 q 376 635 426 635 q 294 612 327 635 q 244 533 262 589 q 226 378 226 476 q 244 223 226 280 q 294 143 261 167 q 376 120 327 120 m 182 861 l 82 1122 l 225 1122 l 315 861 l 182 861 m 437 861 l 337 1122 l 480 1122 l 570 861 l 437 861 z "},"ö":{"ha":752,"x_min":49,"x_max":704,"o":"m 376 -14 q 134 82 219 -14 q 49 376 49 178 q 133 673 49 576 q 376 769 218 769 q 619 672 533 769 q 704 378 704 575 q 619 83 704 179 q 376 -14 533 -14 m 376 120 q 458 143 426 120 q 508 222 491 166 q 526 376 526 278 q 508 532 526 475 q 458 612 490 589 q 376 635 426 635 q 294 612 327 635 q 244 533 262 589 q 226 378 226 476 q 244 223 226 280 q 294 143 261 167 q 376 120 327 120 m 223 890 q 150 916 176 890 q 124 986 124 942 q 150 1056 124 1031 q 223 1082 176 1082 q 296 1056 269 1082 q 323 986 323 1031 q 296 916 323 942 q 223 890 269 890 m 529 890 q 456 916 483 890 q 429 986 429 942 q 456 1056 429 1031 q 529 1082 483 1082 q 602 1056 576 1082 q 629 986 629 1031 q 602 916 629 942 q 529 890 576 890 z "},"ȫ":{"ha":752,"x_min":49,"x_max":704,"o":"m 376 -14 q 134 82 219 -14 q 49 376 49 178 q 133 673 49 576 q 376 769 218 769 q 619 672 533 769 q 704 378 704 575 q 619 83 704 179 q 376 -14 533 -14 m 376 120 q 458 143 426 120 q 508 222 491 166 q 526 376 526 278 q 508 532 526 475 q 458 612 490 589 q 376 635 426 635 q 294 612 327 635 q 244 533 262 589 q 226 378 226 476 q 244 223 226 280 q 294 143 261 167 q 376 120 327 120 m 223 890 q 150 916 176 890 q 124 986 124 942 q 150 1056 124 1031 q 223 1082 176 1082 q 296 1056 269 1082 q 323 986 323 1031 q 296 916 323 942 q 223 890 269 890 m 529 890 q 456 916 483 890 q 429 986 429 942 q 456 1056 429 1031 q 529 1082 483 1082 q 602 1056 576 1082 q 629 986 629 1031 q 602 916 629 942 q 529 890 576 890 m 151 1172 l 151 1284 l 601 1284 l 601 1172 l 151 1172 z "},"ȱ":{"ha":752,"x_min":49,"x_max":704,"o":"m 376 -14 q 134 82 219 -14 q 49 376 49 178 q 133 673 49 576 q 376 769 218 769 q 619 672 533 769 q 704 378 704 575 q 619 83 704 179 q 376 -14 533 -14 m 376 120 q 458 143 426 120 q 508 222 491 166 q 526 376 526 278 q 508 532 526 475 q 458 612 490 589 q 376 635 426 635 q 294 612 327 635 q 244 533 262 589 q 226 378 226 476 q 244 223 226 280 q 294 143 261 167 q 376 120 327 120 m 376 887 q 292 913 321 887 q 264 986 264 938 q 292 1059 264 1033 q 376 1085 321 1085 q 460 1059 432 1085 q 488 986 488 1033 q 460 913 488 938 q 376 887 432 887 m 151 1173 l 151 1285 l 601 1285 l 601 1173 l 151 1173 z "},"ọ":{"ha":752,"x_min":49,"x_max":704,"o":"m 376 -14 q 134 82 219 -14 q 49 376 49 178 q 133 673 49 576 q 376 769 218 769 q 619 672 533 769 q 704 378 704 575 q 619 83 704 179 q 376 -14 533 -14 m 376 120 q 458 143 426 120 q 508 222 491 166 q 526 376 526 278 q 508 532 526 475 q 458 612 490 589 q 376 635 426 635 q 294 612 327 635 q 244 533 262 589 q 226 378 226 476 q 244 223 226 280 q 294 143 261 167 q 376 120 327 120 m 376 -287 q 303 -262 330 -287 q 276 -193 276 -237 q 303 -123 276 -149 q 376 -97 330 -97 q 449 -123 423 -97 q 476 -193 476 -149 q 449 -262 476 -237 q 376 -287 423 -287 z "},"ò":{"ha":752,"x_min":49,"x_max":704,"o":"m 376 -14 q 134 82 219 -14 q 49 376 49 178 q 133 673 49 576 q 376 769 218 769 q 619 672 533 769 q 704 378 704 575 q 619 83 704 179 q 376 -14 533 -14 m 376 120 q 458 143 426 120 q 508 222 491 166 q 526 376 526 278 q 508 532 526 475 q 458 612 490 589 q 376 635 426 635 q 294 612 327 635 q 244 533 262 589 q 226 378 226 476 q 244 223 226 280 q 294 143 261 167 q 376 120 327 120 m 298 861 l 132 1122 l 314 1122 l 454 861 l 298 861 z "},"ỏ":{"ha":752,"x_min":49,"x_max":704,"o":"m 376 -14 q 134 82 219 -14 q 49 376 49 178 q 133 673 49 576 q 376 769 218 769 q 619 672 533 769 q 704 378 704 575 q 619 83 704 179 q 376 -14 533 -14 m 376 120 q 458 143 426 120 q 508 222 491 166 q 526 376 526 278 q 508 532 526 475 q 458 612 490 589 q 376 635 426 635 q 294 612 327 635 q 244 533 262 589 q 226 378 226 476 q 244 223 226 280 q 294 143 261 167 q 376 120 327 120 m 329 861 q 339 908 330 888 q 361 941 349 928 q 393 968 374 953 q 420 993 412 983 q 429 1017 429 1003 q 413 1046 429 1037 q 361 1056 397 1056 q 253 1039 306 1056 l 253 1113 q 310 1126 277 1121 q 373 1131 343 1131 q 490 1105 451 1131 q 528 1028 528 1079 q 520 988 528 1004 q 502 960 513 971 q 472 934 491 949 q 437 900 449 915 q 423 861 425 885 l 329 861 z "},"ơ":{"ha":752,"x_min":49,"x_max":730,"o":"m 606 685 q 704 378 704 587 q 619 83 704 179 q 376 -14 533 -14 q 134 82 219 -14 q 49 376 49 178 q 134 673 49 576 q 378 769 219 769 q 450 766 398 769 q 492 763 482 763 q 581 789 550 763 q 612 873 612 815 q 598 969 612 915 l 715 969 q 730 864 730 922 q 698 747 730 792 q 606 685 665 702 m 376 120 q 458 143 426 120 q 508 222 491 166 q 526 376 526 278 q 508 532 526 475 q 458 612 490 589 q 376 635 426 635 q 294 612 327 635 q 244 533 262 589 q 226 378 226 476 q 244 223 226 280 q 294 143 261 167 q 376 120 327 120 z "},"ớ":{"ha":752,"x_min":49,"x_max":730,"o":"m 599 1122 l 443 861 l 297 861 l 428 1122 l 599 1122 m 606 685 q 704 378 704 587 q 619 83 704 179 q 376 -14 533 -14 q 134 82 219 -14 q 49 376 49 178 q 134 673 49 576 q 378 769 219 769 q 450 766 398 769 q 492 763 482 763 q 581 789 550 763 q 612 873 612 815 q 598 969 612 915 l 715 969 q 730 864 730 922 q 698 747 730 792 q 606 685 665 702 m 376 120 q 458 143 426 120 q 508 222 491 166 q 526 376 526 278 q 508 532 526 475 q 458 612 490 589 q 376 635 426 635 q 294 612 327 635 q 244 533 262 589 q 226 378 226 476 q 244 223 226 280 q 294 143 261 167 q 376 120 327 120 z "},"ợ":{"ha":752,"x_min":49,"x_max":730,"o":"m 606 685 q 704 378 704 587 q 619 83 704 179 q 376 -14 533 -14 q 134 82 219 -14 q 49 376 49 178 q 134 673 49 576 q 378 769 219 769 q 450 766 398 769 q 492 763 482 763 q 581 789 550 763 q 612 873 612 815 q 598 969 612 915 l 715 969 q 730 864 730 922 q 698 747 730 792 q 606 685 665 702 m 376 120 q 458 143 426 120 q 508 222 491 166 q 526 376 526 278 q 508 532 526 475 q 458 612 490 589 q 376 635 426 635 q 294 612 327 635 q 244 533 262 589 q 226 378 226 476 q 244 223 226 280 q 294 143 261 167 q 376 120 327 120 m 376 -287 q 302 -262 329 -287 q 276 -193 276 -237 q 302 -123 276 -149 q 376 -97 329 -97 q 449 -123 422 -97 q 475 -193 475 -149 q 449 -262 475 -237 q 376 -287 422 -287 z "},"ờ":{"ha":752,"x_min":49,"x_max":730,"o":"m 606 685 q 704 378 704 587 q 619 83 704 179 q 376 -14 533 -14 q 134 82 219 -14 q 49 376 49 178 q 134 673 49 576 q 378 769 219 769 q 450 766 398 769 q 492 763 482 763 q 581 789 550 763 q 612 873 612 815 q 598 969 612 915 l 715 969 q 730 864 730 922 q 698 747 730 792 q 606 685 665 702 m 376 120 q 458 143 426 120 q 508 222 491 166 q 526 376 526 278 q 508 532 526 475 q 458 612 490 589 q 376 635 426 635 q 294 612 327 635 q 244 533 262 589 q 226 378 226 476 q 244 223 226 280 q 294 143 261 167 q 376 120 327 120 m 292 861 l 126 1122 l 308 1122 l 448 861 l 292 861 z "},"ở":{"ha":752,"x_min":49,"x_max":730,"o":"m 606 685 q 704 378 704 587 q 619 83 704 179 q 376 -14 533 -14 q 134 82 219 -14 q 49 376 49 178 q 134 673 49 576 q 378 769 219 769 q 450 766 398 769 q 492 763 482 763 q 581 789 550 763 q 612 873 612 815 q 598 969 612 915 l 715 969 q 730 864 730 922 q 698 747 730 792 q 606 685 665 702 m 376 120 q 458 143 426 120 q 508 222 491 166 q 526 376 526 278 q 508 532 526 475 q 458 612 490 589 q 376 635 426 635 q 294 612 327 635 q 244 533 262 589 q 226 378 226 476 q 244 223 226 280 q 294 143 261 167 q 376 120 327 120 m 323 861 q 333 908 324 888 q 355 941 342 928 q 387 968 367 953 q 414 993 406 983 q 423 1017 423 1003 q 407 1046 423 1037 q 355 1056 390 1056 q 247 1039 299 1056 l 247 1113 q 304 1126 271 1121 q 367 1131 337 1131 q 483 1105 445 1131 q 522 1028 522 1079 q 514 988 522 1004 q 495 960 506 971 q 466 934 485 949 q 431 900 442 915 q 417 861 419 885 l 323 861 z "},"ỡ":{"ha":752,"x_min":49,"x_max":730,"o":"m 261 969 q 202 956 230 969 q 147 913 175 942 l 147 1029 q 263 1081 194 1081 q 315 1072 291 1081 q 369 1047 339 1063 q 417 1026 398 1033 q 456 1019 435 1019 q 514 1033 486 1019 q 569 1076 541 1047 l 569 959 q 453 908 523 908 q 402 917 426 908 q 347 941 378 925 q 300 963 319 956 q 261 969 281 969 m 606 685 q 704 378 704 587 q 619 83 704 179 q 376 -14 533 -14 q 134 82 219 -14 q 49 376 49 178 q 134 673 49 576 q 378 769 219 769 q 450 766 398 769 q 492 763 482 763 q 581 789 550 763 q 612 873 612 815 q 598 969 612 915 l 715 969 q 730 864 730 922 q 698 747 730 792 q 606 685 665 702 m 376 120 q 458 143 426 120 q 508 222 491 166 q 526 376 526 278 q 508 532 526 475 q 458 612 490 589 q 376 635 426 635 q 294 612 327 635 q 244 533 262 589 q 226 378 226 476 q 244 223 226 280 q 294 143 261 167 q 376 120 327 120 z "},"ő":{"ha":752,"x_min":49,"x_max":704,"o":"m 376 -14 q 134 82 219 -14 q 49 376 49 178 q 133 673 49 576 q 376 769 218 769 q 619 672 533 769 q 704 378 704 575 q 619 83 704 179 q 376 -14 533 -14 m 376 120 q 458 143 426 120 q 508 222 491 166 q 526 376 526 278 q 508 532 526 475 q 458 612 490 589 q 376 635 426 635 q 294 612 327 635 q 244 533 262 589 q 226 378 226 476 q 244 223 226 280 q 294 143 261 167 q 376 120 327 120 m 183 861 l 274 1122 l 416 1122 l 315 861 l 183 861 m 437 861 l 528 1122 l 669 1122 l 569 861 l 437 861 z "},"ȏ":{"ha":752,"x_min":49,"x_max":704,"o":"m 376 -14 q 134 82 219 -14 q 49 376 49 178 q 133 673 49 576 q 376 769 218 769 q 619 672 533 769 q 704 378 704 575 q 619 83 704 179 q 376 -14 533 -14 m 376 120 q 458 143 426 120 q 508 222 491 166 q 526 376 526 278 q 508 532 526 475 q 458 612 490 589 q 376 635 426 635 q 294 612 327 635 q 244 533 262 589 q 226 378 226 476 q 244 223 226 280 q 294 143 261 167 q 376 120 327 120 m 156 881 q 218 1058 161 999 q 376 1117 275 1117 q 533 1058 475 1117 q 597 881 592 998 l 487 881 q 455 990 483 955 q 376 1024 427 1024 q 295 990 322 1024 q 265 881 269 956 l 156 881 z "},"ō":{"ha":752,"x_min":49,"x_max":704,"o":"m 376 -14 q 134 82 219 -14 q 49 376 49 178 q 133 673 49 576 q 376 769 218 769 q 619 672 533 769 q 704 378 704 575 q 619 83 704 179 q 376 -14 533 -14 m 376 120 q 458 143 426 120 q 508 222 491 166 q 526 376 526 278 q 508 532 526 475 q 458 612 490 589 q 376 635 426 635 q 294 612 327 635 q 244 533 262 589 q 226 378 226 476 q 244 223 226 280 q 294 143 261 167 q 376 120 327 120 m 151 931 l 151 1043 l 601 1043 l 601 931 l 151 931 z "},"ṓ":{"ha":752,"x_min":49,"x_max":704,"o":"m 376 -14 q 134 82 219 -14 q 49 376 49 178 q 133 673 49 576 q 376 769 218 769 q 619 672 533 769 q 704 378 704 575 q 619 83 704 179 q 376 -14 533 -14 m 376 120 q 458 143 426 120 q 508 222 491 166 q 526 376 526 278 q 508 532 526 475 q 458 612 490 589 q 376 635 426 635 q 294 612 327 635 q 244 533 262 589 q 226 378 226 476 q 244 223 226 280 q 294 143 261 167 q 376 120 327 120 m 151 931 l 151 1043 l 601 1043 l 601 931 l 151 931 m 297 1142 l 411 1347 l 595 1347 l 454 1142 l 297 1142 z "},"ṑ":{"ha":752,"x_min":49,"x_max":704,"o":"m 376 -14 q 134 82 219 -14 q 49 376 49 178 q 133 673 49 576 q 376 769 218 769 q 619 672 533 769 q 704 378 704 575 q 619 83 704 179 q 376 -14 533 -14 m 376 120 q 458 143 426 120 q 508 222 491 166 q 526 376 526 278 q 508 532 526 475 q 458 612 490 589 q 376 635 426 635 q 294 612 327 635 q 244 533 262 589 q 226 378 226 476 q 244 223 226 280 q 294 143 261 167 q 376 120 327 120 m 151 931 l 151 1043 l 601 1043 l 601 931 l 151 931 m 298 1142 l 157 1347 l 341 1347 l 454 1142 l 298 1142 z "},"ǫ":{"ha":752,"x_min":49,"x_max":704,"o":"m 506 6 q 385 -65 419 -26 q 351 -149 351 -104 q 372 -205 351 -185 q 433 -224 394 -224 q 517 -205 474 -224 l 524 -277 q 413 -301 472 -301 q 291 -264 334 -301 q 247 -163 247 -228 q 268 -80 247 -117 q 333 -12 289 -42 q 123 97 197 1 q 49 376 49 193 q 133 673 49 576 q 376 769 218 769 q 619 672 533 769 q 704 378 704 575 q 654 133 704 224 q 506 6 603 42 m 226 378 q 244 223 226 280 q 294 143 261 167 q 376 120 327 120 q 458 143 426 120 q 508 222 491 166 q 526 376 526 278 q 508 532 526 475 q 458 612 490 589 q 376 635 426 635 q 294 612 327 635 q 244 533 262 589 q 226 378 226 476 z "},"ø":{"ha":752,"x_min":49,"x_max":704,"o":"m 626 663 q 704 378 704 565 q 619 83 704 179 q 376 -14 533 -14 q 195 31 269 -14 l 153 -31 l 74 24 l 123 97 q 49 376 49 194 q 133 673 49 576 q 376 769 218 769 q 553 727 481 769 l 596 789 l 675 733 l 626 663 m 376 638 q 291 614 325 638 q 239 534 257 591 q 220 378 220 477 q 233 242 220 295 l 477 601 q 376 638 442 638 m 376 117 q 462 141 428 117 q 514 221 496 164 q 533 376 533 278 q 518 519 533 465 l 272 158 q 376 117 308 117 z "},"ǿ":{"ha":752,"x_min":49,"x_max":704,"o":"m 626 663 q 704 378 704 565 q 619 83 704 179 q 376 -14 533 -14 q 195 31 269 -14 l 153 -31 l 74 24 l 123 97 q 49 376 49 194 q 133 673 49 576 q 376 769 218 769 q 553 727 481 769 l 596 789 l 675 733 l 626 663 m 376 638 q 291 614 325 638 q 239 534 257 591 q 220 378 220 477 q 233 242 220 295 l 477 601 q 376 638 442 638 m 376 117 q 462 141 428 117 q 514 221 496 164 q 533 376 533 278 q 518 519 533 465 l 272 158 q 376 117 308 117 m 297 861 l 438 1122 l 619 1122 l 453 861 l 297 861 z "},"õ":{"ha":752,"x_min":49,"x_max":704,"o":"m 376 -14 q 134 82 219 -14 q 49 376 49 178 q 133 673 49 576 q 376 769 218 769 q 619 672 533 769 q 704 378 704 575 q 619 83 704 179 q 376 -14 533 -14 m 376 120 q 458 143 426 120 q 508 222 491 166 q 526 376 526 278 q 508 532 526 475 q 458 612 490 589 q 376 635 426 635 q 294 612 327 635 q 244 533 262 589 q 226 378 226 476 q 244 223 226 280 q 294 143 261 167 q 376 120 327 120 m 478 908 q 425 917 450 908 q 365 941 401 925 q 313 963 333 956 q 272 969 293 969 q 208 956 237 969 q 151 913 180 942 l 151 1029 q 206 1068 176 1056 q 274 1081 235 1081 q 327 1072 302 1081 q 388 1047 352 1064 q 439 1026 419 1033 q 480 1019 460 1019 q 544 1032 515 1019 q 601 1076 572 1046 l 601 959 q 547 921 577 933 q 478 908 517 908 z "},"ṍ":{"ha":752,"x_min":49,"x_max":704,"o":"m 376 -14 q 134 82 219 -14 q 49 376 49 178 q 133 673 49 576 q 376 769 218 769 q 619 672 533 769 q 704 378 704 575 q 619 83 704 179 q 376 -14 533 -14 m 376 120 q 458 143 426 120 q 508 222 491 166 q 526 376 526 278 q 508 532 526 475 q 458 612 490 589 q 376 635 426 635 q 294 612 327 635 q 244 533 262 589 q 226 378 226 476 q 244 223 226 280 q 294 143 261 167 q 376 120 327 120 m 478 908 q 425 917 450 908 q 365 941 401 925 q 313 963 333 956 q 272 969 293 969 q 208 956 237 969 q 151 913 180 942 l 151 1029 q 206 1068 176 1056 q 274 1081 235 1081 q 327 1072 302 1081 q 388 1047 352 1064 q 439 1026 419 1033 q 480 1019 460 1019 q 544 1032 515 1019 q 601 1076 572 1046 l 601 959 q 547 921 577 933 q 478 908 517 908 m 324 1208 l 438 1413 l 622 1413 l 481 1208 l 324 1208 z "},"ṏ":{"ha":752,"x_min":49,"x_max":704,"o":"m 376 -14 q 134 82 219 -14 q 49 376 49 178 q 133 673 49 576 q 376 769 218 769 q 619 672 533 769 q 704 378 704 575 q 619 83 704 179 q 376 -14 533 -14 m 376 120 q 458 143 426 120 q 508 222 491 166 q 526 376 526 278 q 508 532 526 475 q 458 612 490 589 q 376 635 426 635 q 294 612 327 635 q 244 533 262 589 q 226 378 226 476 q 244 223 226 280 q 294 143 261 167 q 376 120 327 120 m 478 908 q 425 917 450 908 q 365 941 401 925 q 313 963 333 956 q 272 969 293 969 q 208 956 237 969 q 151 913 180 942 l 151 1029 q 206 1068 176 1056 q 274 1081 235 1081 q 327 1072 302 1081 q 388 1047 352 1064 q 439 1026 419 1033 q 480 1019 460 1019 q 544 1032 515 1019 q 601 1076 572 1046 l 601 959 q 547 921 577 933 q 478 908 517 908 m 223 1131 q 150 1157 176 1131 q 124 1227 124 1183 q 150 1297 124 1272 q 223 1323 176 1323 q 296 1297 269 1323 q 323 1227 323 1272 q 296 1157 323 1183 q 223 1131 269 1131 m 529 1131 q 456 1157 483 1131 q 429 1227 429 1183 q 456 1297 429 1272 q 529 1323 483 1323 q 602 1297 576 1323 q 629 1227 629 1272 q 602 1157 629 1183 q 529 1131 576 1131 z "},"ȭ":{"ha":752,"x_min":49,"x_max":704,"o":"m 376 -14 q 134 82 219 -14 q 49 376 49 178 q 133 673 49 576 q 376 769 218 769 q 619 672 533 769 q 704 378 704 575 q 619 83 704 179 q 376 -14 533 -14 m 376 120 q 458 143 426 120 q 508 222 491 166 q 526 376 526 278 q 508 532 526 475 q 458 612 490 589 q 376 635 426 635 q 294 612 327 635 q 244 533 262 589 q 226 378 226 476 q 244 223 226 280 q 294 143 261 167 q 376 120 327 120 m 478 908 q 425 917 450 908 q 365 941 401 925 q 313 963 333 956 q 272 969 293 969 q 208 956 237 969 q 151 913 180 942 l 151 1029 q 206 1068 176 1056 q 274 1081 235 1081 q 327 1072 302 1081 q 388 1047 352 1064 q 439 1026 419 1033 q 480 1019 460 1019 q 544 1032 515 1019 q 601 1076 572 1046 l 601 959 q 547 921 577 933 q 478 908 517 908 m 151 1172 l 151 1284 l 601 1284 l 601 1172 l 151 1172 z "},"œ":{"ha":1169,"x_min":49,"x_max":1128,"o":"m 1128 325 l 702 325 q 727 207 705 250 q 794 144 749 163 q 914 125 839 125 q 1090 151 993 125 l 1090 13 q 892 -14 990 -14 q 717 15 788 -14 q 605 104 646 44 q 367 -14 528 -14 q 133 83 217 -14 q 49 376 49 179 q 132 673 49 576 q 367 769 215 769 q 513 736 451 769 q 613 638 575 703 q 707 736 648 703 q 843 770 765 770 q 1054 672 979 770 q 1128 376 1128 574 l 1128 325 m 834 653 q 737 603 770 653 q 701 433 703 554 l 964 433 q 947 565 963 517 q 904 633 932 613 q 834 653 876 653 m 375 120 q 456 143 424 120 q 506 222 488 166 q 523 376 523 278 q 506 532 523 475 q 456 612 488 589 q 375 635 424 635 q 294 612 326 635 q 244 533 262 589 q 226 378 226 476 q 244 223 226 280 q 294 143 261 167 q 375 120 326 120 z "},"p":{"ha":768,"x_min":83,"x_max":719,"o":"m 83 758 l 231 758 l 242 676 l 251 676 q 327 744 280 719 q 436 769 375 769 q 580 731 516 769 q 682 608 644 692 q 719 392 719 524 q 623 89 719 190 q 335 -13 526 -13 q 258 -8 299 -13 l 258 -306 l 83 -306 l 83 758 m 342 123 q 453 148 409 123 q 519 229 497 173 q 541 377 541 285 q 522 526 541 472 q 468 601 502 580 q 385 623 434 623 q 314 607 347 623 q 258 560 280 591 l 258 131 q 342 123 297 123 z "},"þ":{"ha":768,"x_min":83,"x_max":719,"o":"m 83 1122 l 258 1122 l 258 682 l 267 682 q 343 746 296 723 q 449 769 390 769 q 586 731 526 769 q 683 607 647 692 q 719 392 719 522 q 623 89 719 190 q 335 -13 526 -13 q 258 -8 299 -13 l 258 -306 l 83 -306 l 83 1122 m 342 123 q 453 148 409 123 q 519 229 497 173 q 541 377 541 285 q 522 525 541 472 q 467 601 502 579 q 383 622 433 622 q 313 607 346 622 q 258 564 279 592 l 258 131 q 342 123 297 123 z "},"q":{"ha":768,"x_min":49,"x_max":685,"o":"m 510 74 l 501 74 q 425 10 472 33 q 319 -13 378 -13 q 182 26 243 -13 q 85 149 121 65 q 49 364 49 234 q 438 769 49 769 q 566 759 500 769 q 685 731 633 749 l 685 -306 l 510 -306 l 510 74 m 386 134 q 455 149 422 134 q 510 191 488 163 l 510 624 q 423 633 469 633 q 276 574 325 633 q 226 379 226 515 q 246 231 226 285 q 301 156 266 177 q 386 134 335 134 z "},"r":{"ha":508,"x_min":83,"x_max":500,"o":"m 83 758 l 227 758 l 241 656 l 250 656 q 331 739 280 712 q 445 767 382 767 q 500 762 474 767 l 500 601 q 435 606 471 606 q 334 583 383 606 q 258 519 285 560 l 258 0 l 83 0 l 83 758 z "},"ŕ":{"ha":508,"x_min":83,"x_max":530,"o":"m 83 758 l 227 758 l 241 656 l 250 656 q 331 739 280 712 q 445 767 382 767 q 500 762 474 767 l 500 601 q 435 606 471 606 q 334 583 383 606 q 258 519 285 560 l 258 0 l 83 0 l 83 758 m 208 861 l 349 1122 l 530 1122 l 364 861 l 208 861 z "},"ř":{"ha":508,"x_min":67,"x_max":506,"o":"m 83 758 l 227 758 l 241 656 l 250 656 q 331 739 280 712 q 445 767 382 767 q 500 762 474 767 l 500 601 q 435 606 471 606 q 334 583 383 606 q 258 519 285 560 l 258 0 l 83 0 l 83 758 m 380 1122 l 506 1122 l 361 861 l 211 861 l 67 1122 l 192 1122 l 286 944 l 380 1122 z "},"ŗ":{"ha":508,"x_min":69,"x_max":500,"o":"m 83 758 l 227 758 l 241 656 l 250 656 q 331 739 280 712 q 445 767 382 767 q 500 762 474 767 l 500 601 q 435 606 471 606 q 334 583 383 606 q 258 519 285 560 l 258 0 l 83 0 l 83 758 m 169 -97 q 273 -191 273 -97 q 260 -265 273 -225 q 224 -337 247 -306 l 115 -337 q 149 -237 143 -279 q 89 -215 109 -233 q 69 -167 69 -197 q 94 -116 69 -134 q 169 -97 119 -97 z "},"ȑ":{"ha":508,"x_min":-8,"x_max":500,"o":"m 83 758 l 227 758 l 241 656 l 250 656 q 331 739 280 712 q 445 767 382 767 q 500 762 474 767 l 500 601 q 435 606 471 606 q 334 583 383 606 q 258 519 285 560 l 258 0 l 83 0 l 83 758 m 92 861 l -8 1122 l 135 1122 l 225 861 l 92 861 m 347 861 l 247 1122 l 390 1122 l 480 861 l 347 861 z "},"ṛ":{"ha":508,"x_min":71,"x_max":500,"o":"m 83 758 l 227 758 l 241 656 l 250 656 q 331 739 280 712 q 445 767 382 767 q 500 762 474 767 l 500 601 q 435 606 471 606 q 334 583 383 606 q 258 519 285 560 l 258 0 l 83 0 l 83 758 m 171 -287 q 98 -262 124 -287 q 71 -193 71 -237 q 98 -123 71 -149 q 171 -97 124 -97 q 244 -123 217 -97 q 270 -193 270 -149 q 244 -262 270 -237 q 171 -287 217 -287 z "},"ȓ":{"ha":508,"x_min":65,"x_max":506,"o":"m 83 758 l 227 758 l 241 656 l 250 656 q 331 739 280 712 q 445 767 382 767 q 500 762 474 767 l 500 601 q 435 606 471 606 q 334 583 383 606 q 258 519 285 560 l 258 0 l 83 0 l 83 758 m 65 881 q 128 1058 71 999 q 285 1117 185 1117 q 443 1058 385 1117 q 506 881 501 998 l 397 881 q 365 990 392 955 q 285 1024 337 1024 q 205 990 232 1024 q 175 881 178 956 l 65 881 z "},"ṟ":{"ha":508,"x_min":-44,"x_max":500,"o":"m 83 758 l 227 758 l 241 656 l 250 656 q 331 739 280 712 q 445 767 382 767 q 500 762 474 767 l 500 601 q 435 606 471 606 q 334 583 383 606 q 258 519 285 560 l 258 0 l 83 0 l 83 758 m -44 -247 l -44 -135 l 385 -135 l 385 -247 l -44 -247 z "},"s":{"ha":606,"x_min":42,"x_max":572,"o":"m 270 -14 q 61 17 154 -14 l 61 154 q 267 122 163 122 q 410 216 410 122 q 392 272 410 252 q 330 301 373 292 l 227 324 q 87 398 132 346 q 42 538 42 450 q 77 659 42 607 q 183 741 113 712 q 356 769 253 769 q 532 749 451 769 l 532 612 q 363 633 455 633 q 241 608 278 633 q 204 540 204 582 q 223 486 204 506 q 283 457 241 467 l 385 435 q 527 362 482 413 q 572 222 572 311 q 536 95 572 149 q 433 14 501 42 q 270 -14 365 -14 z "},"ś":{"ha":606,"x_min":42,"x_max":572,"o":"m 270 -14 q 61 17 154 -14 l 61 154 q 267 122 163 122 q 410 216 410 122 q 392 272 410 252 q 330 301 373 292 l 227 324 q 87 398 132 346 q 42 538 42 450 q 77 659 42 607 q 183 741 113 712 q 356 769 253 769 q 532 749 451 769 l 532 612 q 363 633 455 633 q 241 608 278 633 q 204 540 204 582 q 223 486 204 506 q 283 457 241 467 l 385 435 q 527 362 482 413 q 572 222 572 311 q 536 95 572 149 q 433 14 501 42 q 270 -14 365 -14 m 226 861 l 367 1122 l 548 1122 l 382 861 l 226 861 z "},"ṥ":{"ha":606,"x_min":42,"x_max":572,"o":"m 270 -14 q 61 17 154 -14 l 61 154 q 267 122 163 122 q 410 216 410 122 q 392 272 410 252 q 330 301 373 292 l 227 324 q 87 398 132 346 q 42 538 42 450 q 77 659 42 607 q 183 741 113 712 q 356 769 253 769 q 532 749 451 769 l 532 612 q 363 633 455 633 q 241 608 278 633 q 204 540 204 582 q 223 486 204 506 q 283 457 241 467 l 385 435 q 527 362 482 413 q 572 222 572 311 q 536 95 572 149 q 433 14 501 42 q 270 -14 365 -14 m 212 1094 q 143 1114 167 1094 q 119 1169 119 1133 q 143 1224 119 1205 q 212 1244 167 1244 q 281 1224 256 1244 q 305 1169 305 1205 q 281 1114 305 1133 q 212 1094 256 1094 m 226 861 l 367 1122 l 548 1122 l 382 861 l 226 861 z "},"š":{"ha":606,"x_min":42,"x_max":572,"o":"m 270 -14 q 61 17 154 -14 l 61 154 q 267 122 163 122 q 410 216 410 122 q 392 272 410 252 q 330 301 373 292 l 227 324 q 87 398 132 346 q 42 538 42 450 q 77 659 42 607 q 183 741 113 712 q 356 769 253 769 q 532 749 451 769 l 532 612 q 363 633 455 633 q 241 608 278 633 q 204 540 204 582 q 223 486 204 506 q 283 457 241 467 l 385 435 q 527 362 482 413 q 572 222 572 311 q 536 95 572 149 q 433 14 501 42 q 270 -14 365 -14 m 398 1122 l 524 1122 l 379 861 l 229 861 l 85 1122 l 210 1122 l 304 944 l 398 1122 z "},"ṧ":{"ha":606,"x_min":42,"x_max":572,"o":"m 270 -14 q 61 17 154 -14 l 61 154 q 267 122 163 122 q 410 216 410 122 q 392 272 410 252 q 330 301 373 292 l 227 324 q 87 398 132 346 q 42 538 42 450 q 77 659 42 607 q 183 741 113 712 q 356 769 253 769 q 532 749 451 769 l 532 612 q 363 633 455 633 q 241 608 278 633 q 204 540 204 582 q 223 486 204 506 q 283 457 241 467 l 385 435 q 527 362 482 413 q 572 222 572 311 q 536 95 572 149 q 433 14 501 42 q 270 -14 365 -14 m 304 1137 q 235 1156 260 1137 q 210 1211 210 1176 q 235 1267 210 1247 q 304 1286 260 1286 q 373 1267 348 1286 q 397 1211 397 1247 q 373 1156 397 1176 q 304 1137 348 1137 m 398 1122 l 524 1122 l 379 861 l 229 861 l 85 1122 l 210 1122 l 304 944 l 398 1122 z "},"ş":{"ha":606,"x_min":42,"x_max":572,"o":"m 572 222 q 515 69 572 129 q 354 -8 458 10 l 354 -66 q 433 -104 406 -74 q 461 -181 461 -133 q 420 -269 461 -237 q 300 -301 380 -301 q 183 -279 238 -301 l 183 -204 q 293 -226 234 -226 q 347 -214 329 -226 q 364 -174 364 -201 q 292 -119 364 -119 l 265 -119 l 265 -14 q 61 17 151 -12 l 61 154 q 267 122 163 122 q 410 216 410 122 q 392 272 410 252 q 330 301 373 292 l 227 324 q 87 398 132 346 q 42 538 42 450 q 77 659 42 607 q 183 741 113 712 q 356 769 253 769 q 532 749 451 769 l 532 612 q 363 633 455 633 q 241 608 278 633 q 204 540 204 582 q 223 486 204 506 q 283 457 241 467 l 385 435 q 527 362 482 413 q 572 222 572 311 z "},"ŝ":{"ha":606,"x_min":42,"x_max":572,"o":"m 270 -14 q 61 17 154 -14 l 61 154 q 267 122 163 122 q 410 216 410 122 q 392 272 410 252 q 330 301 373 292 l 227 324 q 87 398 132 346 q 42 538 42 450 q 77 659 42 607 q 183 741 113 712 q 356 769 253 769 q 532 749 451 769 l 532 612 q 363 633 455 633 q 241 608 278 633 q 204 540 204 582 q 223 486 204 506 q 283 457 241 467 l 385 435 q 527 362 482 413 q 572 222 572 311 q 536 95 572 149 q 433 14 501 42 q 270 -14 365 -14 m 523 861 l 397 861 l 304 1040 l 210 861 l 85 861 l 229 1122 l 379 1122 l 523 861 z "},"ș":{"ha":606,"x_min":42,"x_max":572,"o":"m 270 -14 q 61 17 154 -14 l 61 154 q 267 122 163 122 q 410 216 410 122 q 392 272 410 252 q 330 301 373 292 l 227 324 q 87 398 132 346 q 42 538 42 450 q 77 659 42 607 q 183 741 113 712 q 356 769 253 769 q 532 749 451 769 l 532 612 q 363 633 455 633 q 241 608 278 633 q 204 540 204 582 q 223 486 204 506 q 283 457 241 467 l 385 435 q 527 362 482 413 q 572 222 572 311 q 536 95 572 149 q 433 14 501 42 q 270 -14 365 -14 m 303 -97 q 406 -191 406 -97 q 393 -265 406 -225 q 358 -337 380 -306 l 248 -337 q 283 -237 276 -279 q 222 -215 242 -233 q 202 -167 202 -197 q 227 -116 202 -134 q 303 -97 253 -97 z "},"ṡ":{"ha":606,"x_min":42,"x_max":572,"o":"m 270 -14 q 61 17 154 -14 l 61 154 q 267 122 163 122 q 410 216 410 122 q 392 272 410 252 q 330 301 373 292 l 227 324 q 87 398 132 346 q 42 538 42 450 q 77 659 42 607 q 183 741 113 712 q 356 769 253 769 q 532 749 451 769 l 532 612 q 363 633 455 633 q 241 608 278 633 q 204 540 204 582 q 223 486 204 506 q 283 457 241 467 l 385 435 q 527 362 482 413 q 572 222 572 311 q 536 95 572 149 q 433 14 501 42 q 270 -14 365 -14 m 304 887 q 220 913 249 887 q 192 986 192 938 q 220 1059 192 1033 q 304 1085 249 1085 q 388 1059 360 1085 q 416 986 416 1033 q 388 913 416 938 q 304 887 360 887 z "}}}
